M48
;Layer_Color=9474304
;FILE_FORMAT=2:5
INCH,LZ
;TYPE=PLATED
T01F00S00C0.00787
T02F00S00C0.01575
T03F00S00C0.01968
T05F00S00C0.02362
T06F00S00C0.03543
T07F00S00C0.03701
T09F00S00C0.04409
T10F00S00C0.05512
T11F00S00C0.06378
T12F00S00C0.06693
T13F00S00C0.12598
%
T01
X0130905Y0020669
X0170276
X0209646
X0600031Y0007811
X0597244Y0108661
X0601031Y0117311
X0606031
X0611031
X0616031
X0621031
X0591031
X0587031Y0131311
X0581031Y0131811
X0577165Y0153543
X0576378Y0162598
X0576531Y0166311
Y0171811
X0591531
Y0166311
X059135Y0177165
X0601031Y0175602
X0606031
X0611031
X0616031
X0621031
X0610394Y0152362
X0610383Y0147835
X0610715Y0143203
X061063Y0138189
X0603893Y0138233
X0600787Y014252
X0603937Y014685
X0590551Y0153937
X0540495Y0163919
X0535995Y0163419
X0533858Y0169291
Y0175197
X0526985Y0177165
X0544339Y0180124
X0538696Y0187008
X0541339Y0127953
X0549213
X0548425Y0124016
Y011811
X0538339Y0113469
X0526378Y0120079
X0499803Y0098819
X0492323Y0086221
X0485433Y0112992
X0476378Y0141535
Y0145866
Y0148622
Y0151378
Y0154134
Y015689
X0484815Y0059992
X0480315Y0043681
X0474409
X0437598Y0075787
X0434842Y0073189
X0432087Y0075787
X0429331Y0073189
X0426575Y0075787
Y0081299
X0429331Y0078701
X0432087Y0081299
X0434842Y0078701
X0437598Y0081299
X0434842Y0084213
X0429331
X0466929Y0116142
X0465551Y0124961
X0453543Y014311
Y0145866
Y0148622
Y0151378
X0453543Y0154134
X0453543Y015689
X0442919Y0176181
X0442886Y0178937
Y0181693
X0442886Y0184449
X0442913Y0187205
X0420079Y0187205
Y0184449
Y0181693
Y0178937
Y0176181
X0397638Y0174409
X0405512Y0154528
X0382677Y0112992
X0371016Y010637
Y0096528
X0361417Y0100787
Y0111024
X0319929Y0106228
Y0096386
X0318898Y0149213
X0319685Y0177165
X0322987Y0177761
X0320866Y0179921
X0330118Y017874
X0336614Y0185433
X0369685Y0186221
X0314173Y0177953
X0310236Y0169291
X0310097Y016609
X031063Y0163386
X0312007Y0148622
X0314961Y014252
X0304331Y0152362
X0283839Y0151575
X0282874Y0154949
X0283839Y0145669
X0248406Y0155512
Y0161417
Y0167323
Y0173228
X0302756Y0179528
X0271654Y0070079
X0255906
X0240158
X0207874Y0068898
Y0074803
X0168504
Y0068898
X0164567Y0147638
X0155905Y0133858
X014685Y0141732
X0141339Y0151181
X0120079Y0151575
X0121653Y0147638
X012126Y0141732
X012126Y0128347
X011626Y0122953
X0101969Y0151575
X0102362Y0185039
X0027559Y0184055
X0020669Y0187008
X0011811Y0169291
X0130905Y0086614
X0129134Y0074803
Y0068898
X0149606Y0189635
X0155512
X0144882Y0204331
X0146653Y0221457
X0131565Y022564
Y0231299
X0129527Y021811
X0130037Y0214567
X0104331Y021752
X0098425Y0207677
X009252
X0100787Y0202756
Y019685
X008563Y0197835
X0074441Y0189848
X0033465Y0192913
X0030512Y0200787
X0023622Y0205709
X0011811Y0208661
Y0248031
X0020669Y0270669
X0023622Y0272835
X0027559Y0266732
X0033465Y027559
X0030512Y0283465
X0011811Y0291339
Y0330709
X0080709Y0322835
X0084646
X0088583
X009252
Y0290354
X0098425
X0100787Y0285433
Y0279528
X0102362Y0267717
X008563Y0280512
X0074441Y0272525
X0080709Y0240158
X0084646
X0088583
X009252
X0104331Y0300197
X0129527Y0300787
X0130037Y0297244
X0131565Y0308317
Y0313976
X0146653Y0304134
X0144882Y0287008
X0149606Y0272313
X0155512
X0165632Y0287354
X0175984Y0303937
X0183465
X0183071Y0263779
X0191142
X0216161Y0257874
X0245276Y0232283
X025Y0230315
X0248406Y0220472
Y0214567
Y0208661
Y0202756
X0282874Y0202193
X0283839Y0198819
Y0192913
X028937Y0226378
X0286614Y0241339
X0279528Y0236221
X0269685
X0263779Y0226378
X0263779Y0269685
Y0279528
X0259055Y029685
X0279528
X0286051Y0316929
X0287776Y032874
Y0334646
X0298228Y0338583
X0263779
X0240945Y0338189
X0287776Y027559
Y0269685
X0286051Y0257874
X0298228Y0279528
X0303543Y0221654
X030934Y0215833
X0309842Y0212598
X0188976Y0220472
X0175197
X0165632Y0204677
X0179134Y019685
X0192913
X0320866Y0190945
X0325875Y0205793
X0325984Y0208661
X0319576Y02241
X0318898Y0230315
X0320866Y0236221
X0329528Y0238976
X033563Y0237205
X0339567
X0353543Y0229528
X0383858Y0240158
Y0254921
X0394685Y0261811
Y0267717
Y0273622
X0394189Y0286282
X0394094Y0292642
X0398819Y0291732
Y0295669
X0412992Y0298031
X0413779Y0292126
X0421397Y0273535
X0426897
X0436221Y0269291
X0438976
X0441732
X0444488
X0440551Y0265354
X0432283Y0262598
X041811Y0262992
X0413933Y0251728
X0408661Y0251575
X0406639Y0236709
X0415139Y0230283
X041811Y0217323
X0421654Y0212598
X0410236Y0211811
X041063Y020748
X0408661Y0200394
X0393701Y0217323
X0431102Y0228346
X0445521Y024188
X0450955Y02419
X0462598Y0244094
X0461795Y0232409
Y0224909
X0457874Y0225984
Y0218898
X0458268Y0215354
X0465748Y0205512
X0466535Y0191929
X046063
X0468176Y0254703
X0470866Y0276378
X0462992Y0274803
X0460433Y0280878
X0461587Y0285039
X0462598Y0293307
X0447244Y0280315
X0447637Y030748
X0444488Y030748
X0438976Y0302755
X043622
X0429134Y0340551
X044685Y0338583
X0398819Y0313779
X0377953Y0298031
X0374409Y0291732
X0376969Y0279528
X0338583Y0327756
X0340551Y0188976
X0477165Y024252
X0481882Y025237
X0482283Y0265748
X0492913Y0277165
X0497244Y0283465
X05
X0502756
X0502756Y0300394
X05Y0305118
X0497244Y0309842
X0514567Y0298031
X0516929Y0295669
X0512205Y0293307
Y0325197
X0514567Y0322835
X0516929Y0325197
X052874Y0322835
X0555512Y0302362
Y025315
X0541339Y0265748
X055315Y0209055
X0481299Y034252
X0482283Y0372047
X0488189Y0374016
X0492126
X0474409Y038189
Y0385827
Y0389764
X0512205Y0395276
X0516929
X0514567Y0397638
X0519685
X0519685Y0383071
X0514567
X0516929Y0366929
X0512205
X0543276Y0350736
X0547276
X0554055Y0344488
X0559055
X0564055
X0480709Y0428346
X0480315Y0457677
X0474409
X0484645Y0471653
X0490158Y0472047
X0484252Y0486031
X0475394Y0485236
X0478386Y0498032
X0454724Y0484252
X0450394Y0478346
Y0475197
X045Y0472047
X0452693Y0464567
X0456693
X0460693
X0464567Y046063
X0457874Y0457087
X0452756Y0455709
X0450182Y0456693
X0452756Y0436024
X0468504Y0431291
X0462598Y041948
X0422094Y0421828
X0430118Y0439961
X0401378Y0440354
Y0443504
X0402748Y0449803
X0401378Y043563
Y043248
X0413386Y0455709
X0415748Y0491339
X0418898
X0423622
X0426772
X0399213
X0396063
X0391339
X0388189
X0372047Y0416929
X0366142Y0417323
X0362598Y0423228
X0361024Y0411417
Y0405512
X036063Y0388976
X0364173Y0384252
X0369291
X0364173Y0370866
X035315Y0370472
X0349213
X0351181Y0373228
X0349213Y0375984
X035315
X0351461Y0366764
X035135Y0362904
Y0359904
Y0356904
Y0353904
Y0350404
Y0347404
X0377165Y0355118
X0405024Y0369177
X0409524
X0414524Y0372177
Y0377677
X0411811Y0382874
Y0386024
X0417323Y0362402
Y0358071
X0419291Y0346457
X0344094Y0385039
X0334252
X0333858Y0415354
X0287776Y0393701
Y0387795
X0286051Y0375984
X0286221Y0359449
X0279528Y035748
X0255906Y0358268
X0257874Y0372047
X0246063
X024311
Y0400591
X0257874Y0397638
X0270303Y037971
X0309842Y0360236
X019685Y0358268
X0177165
X0165632Y0370031
X0144882Y0369685
X0146653Y0386811
X0131565Y0390995
Y0396654
X0129527Y0383465
X0130037Y0379921
X0104331Y0382874
X0098425Y0373031
X009252
X0100787Y036811
Y0362205
X0102362Y0350394
X008563Y0363189
X0074441Y0355202
X0033465Y0358268
X0030512Y0366142
X0023622Y0372047
X0011811Y0374016
X0020669Y0353346
X0027559Y034941
X0011811Y0413386
X0080709Y0405512
X0084646
X0088583
X009252
X0149606Y035499
X0155512
T02
X0614567Y0130413
Y0160925
T03
X052874Y0053937
X0554134Y0179134
X037441Y0334075
X0368707Y0343563
X0523622Y0313779
X052874
X0533465
Y0318898
Y0293307
X0528543
Y0288189
X0533465
T05
X0236221Y0249843
Y0259842
Y0269843
T06
X0340551Y0086457
Y0096457
Y0106457
X0350551
Y0096457
Y0086457
X0356142Y0160354
X0366142
X0376142
Y0170354
X0366142
X0356142
T07
X0044291Y0196161
Y0206161
Y0216161
Y0226161
X0054291Y0221161
Y0211161
Y0201161
Y0191161
Y0273839
Y0283839
Y0293839
Y0303839
X0044291Y0298839
Y0288839
Y0278839
Y0308839
Y0361516
Y0371516
Y0381516
Y0391516
X0054291Y0386516
Y0376516
Y0366516
Y0356516
T09
X0549114Y0019842
X0559114
X0569114
X0579114
X0589114
X0599114
Y0099843
X0589114
X0579114
X0569114
X0559114
X0549114
T10
X0545275Y039554
X0611417Y0391575
Y0411575
X0545276Y0486349
T11
X0039803Y0176654
Y0240669
Y0259331
Y0323346
Y0342008
Y0406024
T12
X0598268Y0199646
Y0219646
X0618268
Y0199646
X0608268Y0209646
X0598268Y0252795
Y0272795
X0618268
Y0252795
X0608268Y0262795
X0598268Y0302008
Y0322008
X0618268
Y0302008
X0608268Y0312008
T13
X0062992Y0027559
X05Y0023622
X0606299Y0492126
X0059055Y0433071
M30
