G04*
G04 #@! TF.GenerationSoftware,Altium Limited,Altium Designer,24.5.1 (21)*
G04*
G04 Layer_Color=16711935*
%FSLAX25Y25*%
%MOIN*%
G70*
G04*
G04 #@! TF.SameCoordinates,BF01A39B-E5BE-45C2-AD7E-2E88940229C6*
G04*
G04*
G04 #@! TF.FilePolarity,Positive*
G04*
G01*
G75*
%ADD168C,0.00000*%
%ADD169C,0.00591*%
D168*
X609842Y161713D02*
G03*
X608602Y160472I0J-1240D01*
G01*
X611083D02*
G03*
X609842Y161713I-1240J0D01*
G01*
Y157972D02*
G03*
X611083Y159213I0J1240D01*
G01*
X608602D02*
G03*
X609842Y157972I1240J0D01*
G01*
X613583Y127992D02*
G03*
X614567Y127008I984J0D01*
G01*
X614665Y131732D02*
G03*
X613583Y130650I0J-1083D01*
G01*
X615748Y130650D02*
G03*
X614665Y131732I-1083J0D01*
G01*
X615748Y130157D02*
G03*
X616929Y128976I1181J0D01*
G01*
X617913Y127992D02*
G03*
X616929Y128976I-984J0D01*
G01*
Y127008D02*
G03*
X617913Y127992I0J984D01*
G01*
X614567Y164331D02*
G03*
X613583Y163347I0J-984D01*
G01*
Y160689D02*
G03*
X614665Y159606I1083J0D01*
G01*
X614665D02*
G03*
X615748Y160689I0J1083D01*
G01*
X616929Y162362D02*
G03*
X615748Y161181I0J-1181D01*
G01*
X616929Y162362D02*
G03*
X617913Y163347I0J984D01*
G01*
D02*
G03*
X616929Y164331I-984J0D01*
G01*
X611083Y159213D02*
Y160472D01*
X608602Y159213D02*
Y160472D01*
X613583Y127992D02*
Y130650D01*
X615748Y130157D02*
Y130650D01*
X614567Y127008D02*
X616929D01*
X613583Y160689D02*
Y163347D01*
X615748Y160689D02*
Y161181D01*
X614567Y164331D02*
X616929D01*
D169*
X-0Y452756D02*
X0Y0D01*
X381890Y515748D02*
X629921Y515748D01*
X318898Y452756D02*
X381890Y515748D01*
X-0Y452756D02*
X318898D01*
X0Y0D02*
X629921D01*
X629921Y515748D02*
X629921Y0D01*
M02*
