G04*
G04 #@! TF.GenerationSoftware,Altium Limited,Altium Designer,24.5.1 (21)*
G04*
G04 Layer_Color=8388736*
%FSLAX25Y25*%
%MOIN*%
G70*
G04*
G04 #@! TF.SameCoordinates,BF01A39B-E5BE-45C2-AD7E-2E88940229C6*
G04*
G04*
G04 #@! TF.FilePolarity,Negative*
G04*
G01*
G75*
%ADD25R,0.05512X0.04528*%
%ADD36R,0.02756X0.00787*%
%ADD37R,0.07008X0.09252*%
%ADD68C,0.05906*%
%ADD69R,0.04200X0.03800*%
%ADD70R,0.04737X0.10249*%
%ADD71R,0.13792X0.10249*%
%ADD72R,0.07493X0.10642*%
%ADD73O,0.01654X0.06280*%
%ADD74R,0.02769X0.03162*%
%ADD75R,0.05131X0.08280*%
%ADD76R,0.03189X0.01614*%
%ADD77R,0.03600X0.04200*%
%ADD78R,0.08280X0.06115*%
%ADD79R,0.03800X0.04200*%
%ADD80R,0.03200X0.04200*%
%ADD81R,0.06102X0.02165*%
G04:AMPARAMS|DCode=82|XSize=30.32mil|YSize=16.14mil|CornerRadius=3.64mil|HoleSize=0mil|Usage=FLASHONLY|Rotation=90.000|XOffset=0mil|YOffset=0mil|HoleType=Round|Shape=RoundedRectangle|*
%AMROUNDEDRECTD82*
21,1,0.03032,0.00886,0,0,90.0*
21,1,0.02303,0.01614,0,0,90.0*
1,1,0.00728,0.00443,0.01152*
1,1,0.00728,0.00443,-0.01152*
1,1,0.00728,-0.00443,-0.01152*
1,1,0.00728,-0.00443,0.01152*
%
%ADD82ROUNDEDRECTD82*%
%ADD83R,0.04200X0.03200*%
%ADD84R,0.03950X0.03950*%
%ADD85R,0.04700X0.05700*%
%ADD86R,0.04737X0.02965*%
G04:AMPARAMS|DCode=87|XSize=62.21mil|YSize=15.35mil|CornerRadius=3.54mil|HoleSize=0mil|Usage=FLASHONLY|Rotation=180.000|XOffset=0mil|YOffset=0mil|HoleType=Round|Shape=RoundedRectangle|*
%AMROUNDEDRECTD87*
21,1,0.06221,0.00827,0,0,180.0*
21,1,0.05512,0.01535,0,0,180.0*
1,1,0.00709,-0.02756,0.00413*
1,1,0.00709,0.02756,0.00413*
1,1,0.00709,0.02756,-0.00413*
1,1,0.00709,-0.02756,-0.00413*
%
%ADD87ROUNDEDRECTD87*%
%ADD88R,0.06706X0.04343*%
%ADD89R,0.04343X0.06706*%
%ADD90R,0.04343X0.04343*%
%ADD91R,0.11260X0.04370*%
%ADD92R,0.01614X0.02992*%
%ADD93R,0.04200X0.03600*%
%ADD94C,0.08674*%
%ADD95R,0.05700X0.04700*%
%ADD96R,0.03162X0.07099*%
%ADD97O,0.06280X0.01654*%
%ADD98R,0.07601X0.10101*%
%ADD99O,0.06181X0.01496*%
%ADD100R,0.05551X0.03189*%
%ADD101O,0.02047X0.10512*%
%ADD102R,0.03950X0.03950*%
%ADD103R,0.06115X0.08280*%
%ADD104R,0.08674X0.11824*%
%ADD105R,0.11824X0.07493*%
%ADD106R,0.09265X0.11233*%
%ADD107R,0.05918X0.06902*%
%ADD108R,0.08674X0.03556*%
%ADD109P,0.11136X4X360.0*%
%ADD110P,0.11136X4X270.0*%
%ADD111R,0.04816X0.03792*%
%ADD112R,0.07099X0.03162*%
%ADD113R,0.04973X0.02926*%
%ADD114R,0.07493X0.11824*%
%ADD115R,0.03792X0.04816*%
%ADD116C,0.03280*%
%ADD117R,0.07414X0.07414*%
%ADD118C,0.07414*%
%ADD119C,0.09461*%
%ADD120R,0.06706X0.06706*%
%ADD121C,0.06706*%
%ADD122C,0.06501*%
%ADD123R,0.06501X0.06501*%
%ADD124C,0.10367*%
%ADD125C,0.13792*%
%ADD126C,0.11036*%
%ADD127C,0.05524*%
%ADD128C,0.25210*%
%ADD129C,0.06312*%
%ADD130C,0.10642*%
%ADD131O,0.08800X0.17400*%
%ADD132O,0.17400X0.08800*%
%ADD133O,0.08800X0.18600*%
%ADD134C,0.01221*%
%ADD135C,0.01181*%
%ADD136C,0.02362*%
%ADD137C,0.02769*%
G36*
X616934Y165138D02*
X616939Y165138D01*
X617022Y165134D01*
X617105Y165130D01*
X617115Y165129D01*
X617125Y165128D01*
X617208Y165117D01*
X617214Y165115D01*
X617220Y165115D01*
X617299Y165099D01*
X617302Y165098D01*
X617306Y165097D01*
X617389Y165077D01*
X617395Y165076D01*
X617401Y165074D01*
X617480Y165051D01*
X617486Y165048D01*
X617492Y165046D01*
X617567Y165019D01*
X617570Y165017D01*
X617573Y165017D01*
X617652Y164985D01*
X617658Y164982D01*
X617664Y164980D01*
X617739Y164944D01*
X617745Y164941D01*
X617751Y164938D01*
X617822Y164899D01*
X617826Y164896D01*
X617830Y164894D01*
X617901Y164851D01*
X617903Y164849D01*
X617905Y164848D01*
X617972Y164804D01*
X617979Y164799D01*
X617986Y164795D01*
X618053Y164743D01*
X618058Y164739D01*
X618064Y164734D01*
X618127Y164679D01*
X618130Y164677D01*
X618132Y164674D01*
X618191Y164619D01*
X618197Y164614D01*
X618202Y164609D01*
X618257Y164550D01*
X618259Y164547D01*
X618262Y164545D01*
X618317Y164482D01*
X618321Y164476D01*
X618326Y164471D01*
X618377Y164404D01*
X618382Y164396D01*
X618387Y164390D01*
X618430Y164323D01*
X618432Y164320D01*
X618433Y164318D01*
X618477Y164247D01*
X618479Y164243D01*
X618481Y164239D01*
X618521Y164169D01*
X618524Y164162D01*
X618527Y164156D01*
X618562Y164081D01*
X618565Y164075D01*
X618568Y164069D01*
X618599Y163990D01*
X618600Y163987D01*
X618602Y163985D01*
X618629Y163910D01*
X618631Y163903D01*
X618633Y163897D01*
X618657Y163818D01*
X618658Y163812D01*
X618660Y163806D01*
X618680Y163724D01*
X618680Y163720D01*
X618681Y163716D01*
X618697Y163637D01*
X618698Y163631D01*
X618699Y163625D01*
X618711Y163542D01*
X618712Y163532D01*
X618713Y163522D01*
X618717Y163440D01*
X618721Y163357D01*
X618721Y163347D01*
X618721Y163336D01*
X618717Y163253D01*
X618713Y163171D01*
X618712Y163161D01*
X618711Y163150D01*
X618699Y163068D01*
X618698Y163062D01*
X618697Y163056D01*
X618681Y162977D01*
X618680Y162973D01*
X618680Y162969D01*
X618660Y162887D01*
X618658Y162881D01*
X618657Y162875D01*
X618633Y162796D01*
X618631Y162790D01*
X618629Y162783D01*
X618602Y162708D01*
X618600Y162706D01*
X618599Y162703D01*
X618568Y162624D01*
X618565Y162618D01*
X618562Y162612D01*
X618527Y162537D01*
X618524Y162531D01*
X618521Y162524D01*
X618481Y162454D01*
X618479Y162450D01*
X618477Y162446D01*
X618433Y162375D01*
X618432Y162373D01*
X618430Y162370D01*
X618387Y162303D01*
X618382Y162296D01*
X618377Y162289D01*
X618326Y162222D01*
X618321Y162217D01*
X618317Y162211D01*
X618262Y162148D01*
X618259Y162146D01*
X618257Y162143D01*
X618202Y162084D01*
X618197Y162079D01*
X618191Y162074D01*
X618132Y162018D01*
X618130Y162016D01*
X618127Y162014D01*
X618064Y161959D01*
X618059Y161954D01*
X618053Y161950D01*
X617986Y161898D01*
X617979Y161894D01*
X617972Y161889D01*
X617905Y161845D01*
X617903Y161844D01*
X617901Y161842D01*
X617830Y161799D01*
X617826Y161797D01*
X617822Y161794D01*
X617751Y161755D01*
X617745Y161752D01*
X617739Y161749D01*
X617664Y161713D01*
X617658Y161711D01*
X617652Y161708D01*
X617573Y161676D01*
X617570Y161675D01*
X617567Y161674D01*
X617492Y161647D01*
X617486Y161645D01*
X617480Y161642D01*
X617401Y161619D01*
X617395Y161617D01*
X617389Y161616D01*
X617306Y161596D01*
X617302Y161595D01*
X617299Y161594D01*
X617220Y161578D01*
X617214Y161578D01*
X617208Y161576D01*
X617125Y161565D01*
X617115Y161564D01*
X617105Y161563D01*
X617022Y161559D01*
X616939Y161555D01*
X616934Y161555D01*
X616929Y161554D01*
X616911D01*
X616895Y161552D01*
X616869Y161549D01*
X616867Y161549D01*
X616865Y161548D01*
X616847Y161546D01*
X616832Y161542D01*
X616816Y161538D01*
X616797Y161531D01*
X616775Y161521D01*
X616775Y161521D01*
X616758Y161514D01*
X616742Y161504D01*
X616742Y161504D01*
X616731Y161498D01*
X616722Y161491D01*
X616712Y161484D01*
X616703Y161477D01*
X616697Y161473D01*
X616689Y161465D01*
X616681Y161458D01*
X616675Y161451D01*
X616666Y161444D01*
X616659Y161436D01*
X616652Y161429D01*
X616646Y161421D01*
X616637Y161413D01*
X616634Y161407D01*
X616626Y161398D01*
X616620Y161389D01*
X616612Y161380D01*
X616606Y161369D01*
X616606Y161369D01*
X616596Y161352D01*
X616589Y161336D01*
X616580Y161313D01*
X616573Y161294D01*
X616568Y161278D01*
X616564Y161263D01*
X616562Y161245D01*
X616562Y161243D01*
X616562Y161241D01*
X616558Y161215D01*
X616556Y161199D01*
Y160689D01*
X616555Y160684D01*
X616556Y160679D01*
X616552Y160592D01*
D01*
Y160592D01*
X616548Y160506D01*
X616546Y160496D01*
X616546Y160486D01*
X616534Y160400D01*
X616533Y160395D01*
X616533Y160390D01*
X616517Y160304D01*
X616516Y160299D01*
X616515Y160294D01*
X616495Y160208D01*
X616492Y160198D01*
X616490Y160187D01*
X616462Y160105D01*
X616462Y160105D01*
X616434Y160022D01*
X616431Y160013D01*
X616428Y160005D01*
X616393Y159922D01*
X616392Y159921D01*
X616391Y159919D01*
X616356Y159840D01*
X616350Y159830D01*
X616345Y159820D01*
X616302Y159746D01*
X616300Y159742D01*
X616298Y159738D01*
X616251Y159663D01*
X616251Y159663D01*
X616203Y159589D01*
X616195Y159578D01*
X616187Y159567D01*
X616132Y159500D01*
X616132Y159500D01*
X616077Y159433D01*
X616075Y159430D01*
X616072Y159427D01*
X616013Y159360D01*
X616004Y159351D01*
X615994Y159341D01*
X615927Y159282D01*
X615924Y159280D01*
X615922Y159277D01*
X615855Y159222D01*
X615855Y159222D01*
X615788Y159167D01*
X615777Y159159D01*
X615766Y159151D01*
X615693Y159105D01*
X615624Y159059D01*
X615616Y159055D01*
X615609Y159050D01*
X615530Y159007D01*
X615522Y159003D01*
X615514Y158999D01*
X615436Y158963D01*
X615434Y158963D01*
X615432Y158962D01*
X615349Y158926D01*
X615341Y158923D01*
X615333Y158920D01*
X615250Y158892D01*
X615250Y158892D01*
X615167Y158865D01*
X615157Y158862D01*
X615147Y158859D01*
X615060Y158839D01*
X615055Y158839D01*
X615051Y158837D01*
X614964Y158822D01*
X614959Y158821D01*
X614955Y158820D01*
X614868Y158808D01*
X614858Y158808D01*
X614848Y158807D01*
X614762Y158803D01*
X614762D01*
X614762D01*
X614675Y158799D01*
X614665Y158799D01*
X614655Y158799D01*
X614569Y158803D01*
D01*
X614569D01*
X614482Y158807D01*
X614472Y158808D01*
X614463Y158808D01*
X614376Y158820D01*
X614371Y158821D01*
X614367Y158822D01*
X614280Y158837D01*
X614275Y158839D01*
X614271Y158839D01*
X614184Y158859D01*
X614174Y158862D01*
X614164Y158865D01*
X614081Y158892D01*
X613998Y158920D01*
X613990Y158923D01*
X613981Y158926D01*
X613899Y158962D01*
X613897Y158963D01*
X613895Y158963D01*
X613816Y158999D01*
X613807Y159004D01*
X613797Y159009D01*
X613722Y159052D01*
X613718Y159055D01*
X613715Y159056D01*
X613640Y159104D01*
X613640Y159104D01*
X613565Y159151D01*
X613554Y159159D01*
X613543Y159167D01*
X613476Y159222D01*
X613476Y159222D01*
X613409Y159277D01*
X613407Y159280D01*
X613404Y159282D01*
X613337Y159341D01*
X613327Y159351D01*
X613317Y159360D01*
X613258Y159427D01*
X613256Y159430D01*
X613254Y159433D01*
X613199Y159500D01*
X613143Y159567D01*
X613136Y159578D01*
X613127Y159589D01*
X613080Y159664D01*
X613080Y159664D01*
X613033Y159738D01*
X613031Y159742D01*
X613029Y159746D01*
X612985Y159820D01*
X612981Y159830D01*
X612975Y159840D01*
X612940Y159919D01*
X612939Y159921D01*
X612938Y159922D01*
X612903Y160005D01*
X612900Y160013D01*
X612896Y160022D01*
X612869Y160105D01*
X612869Y160105D01*
X612841Y160187D01*
X612839Y160198D01*
X612835Y160208D01*
X612816Y160294D01*
X612815Y160299D01*
X612814Y160304D01*
X612798Y160390D01*
X612798Y160395D01*
X612797Y160400D01*
X612785Y160486D01*
X612784Y160496D01*
X612783Y160506D01*
X612779Y160592D01*
Y160592D01*
Y160592D01*
X612775Y160679D01*
X612775Y160684D01*
X612775Y160689D01*
Y163347D01*
X612775Y163352D01*
X612775Y163357D01*
X612779Y163439D01*
X612779Y163440D01*
X612783Y163522D01*
X612784Y163532D01*
X612785Y163542D01*
X612797Y163625D01*
X612798Y163631D01*
X612799Y163637D01*
X612815Y163716D01*
X612816Y163720D01*
X612816Y163724D01*
X612836Y163806D01*
X612838Y163812D01*
X612839Y163818D01*
X612863Y163897D01*
X612865Y163903D01*
X612867Y163910D01*
X612895Y163985D01*
X612896Y163987D01*
X612897Y163990D01*
X612928Y164069D01*
X612931Y164075D01*
X612934Y164081D01*
X612969Y164156D01*
X612972Y164162D01*
X612976Y164169D01*
X613015Y164239D01*
X613017Y164243D01*
X613019Y164247D01*
X613063Y164318D01*
X613064Y164320D01*
X613066Y164323D01*
X613109Y164390D01*
X613114Y164397D01*
X613119Y164404D01*
X613170Y164471D01*
X613175Y164476D01*
X613179Y164482D01*
X613234Y164545D01*
X613237Y164547D01*
X613239Y164550D01*
X613294Y164609D01*
X613300Y164614D01*
X613305Y164619D01*
X613364Y164674D01*
X613366Y164677D01*
X613369Y164679D01*
X613432Y164734D01*
X613438Y164739D01*
X613443Y164743D01*
X613510Y164795D01*
X613517Y164799D01*
X613524Y164804D01*
X613591Y164848D01*
X613593Y164849D01*
X613595Y164851D01*
X613666Y164894D01*
X613670Y164896D01*
X613674Y164899D01*
X613745Y164938D01*
X613751Y164941D01*
X613757Y164944D01*
X613832Y164980D01*
X613838Y164982D01*
X613844Y164985D01*
X613923Y165017D01*
X613926Y165017D01*
X613929Y165019D01*
X614004Y165046D01*
X614010Y165048D01*
X614016Y165051D01*
X614095Y165074D01*
X614101Y165076D01*
X614107Y165077D01*
X614190Y165097D01*
X614194Y165098D01*
X614198Y165099D01*
X614276Y165115D01*
X614282Y165115D01*
X614288Y165117D01*
X614371Y165128D01*
X614381Y165129D01*
X614391Y165130D01*
X614474Y165134D01*
X614557Y165138D01*
X614562Y165138D01*
X614567Y165138D01*
X616929D01*
X616934Y165138D01*
D02*
G37*
G36*
X626480Y165311D02*
X626583Y165303D01*
X626685Y165291D01*
X626787Y165272D01*
X626886Y165248D01*
X626988Y165220D01*
X627083Y165185D01*
X627177Y165146D01*
X627272Y165102D01*
X627362Y165051D01*
X627449Y164996D01*
X627535Y164941D01*
X627618Y164878D01*
X627697Y164811D01*
X627772Y164740D01*
X627843Y164665D01*
X627910Y164587D01*
X627972Y164504D01*
X628028Y164417D01*
X628083Y164331D01*
X628134Y164240D01*
X628177Y164146D01*
X628217Y164051D01*
X628252Y163957D01*
X628279Y163854D01*
X628303Y163756D01*
X628323Y163654D01*
X628335Y163551D01*
X628342Y163449D01*
X628346Y163347D01*
X628342Y163244D01*
X628335Y163142D01*
X628323Y163039D01*
X628303Y162937D01*
X628279Y162839D01*
X628252Y162736D01*
X628217Y162642D01*
X628177Y162547D01*
X628134Y162453D01*
X628083Y162362D01*
X628028Y162276D01*
X627972Y162189D01*
X627910Y162106D01*
X627843Y162028D01*
X627772Y161953D01*
X627697Y161882D01*
X627618Y161815D01*
X627535Y161752D01*
X627449Y161697D01*
X627362Y161642D01*
X627272Y161591D01*
X627177Y161547D01*
X627083Y161508D01*
X626988Y161472D01*
X626886Y161445D01*
X626787Y161421D01*
X626685Y161402D01*
X626583Y161390D01*
X626480Y161382D01*
X626378Y161378D01*
X624016D01*
X623913Y161382D01*
X623811Y161390D01*
X623709Y161402D01*
X623606Y161421D01*
X623508Y161445D01*
X623406Y161472D01*
X623311Y161508D01*
X623216Y161547D01*
X623122Y161591D01*
X623032Y161642D01*
X622945Y161697D01*
X622858Y161752D01*
X622776Y161815D01*
X622697Y161882D01*
X622622Y161953D01*
X622551Y162028D01*
X622484Y162106D01*
X622421Y162189D01*
X622366Y162276D01*
X622311Y162362D01*
X622260Y162453D01*
X622217Y162547D01*
X622177Y162642D01*
X622142Y162736D01*
X622114Y162839D01*
X622090Y162937D01*
X622071Y163039D01*
X622059Y163142D01*
X622051Y163244D01*
X622047Y163347D01*
X622051Y163449D01*
X622059Y163551D01*
X622071Y163654D01*
X622090Y163756D01*
X622114Y163854D01*
X622142Y163957D01*
X622177Y164051D01*
X622217Y164146D01*
X622260Y164240D01*
X622311Y164331D01*
X622366Y164417D01*
X622421Y164504D01*
X622484Y164587D01*
X622551Y164665D01*
X622622Y164740D01*
X622697Y164811D01*
X622776Y164878D01*
X622858Y164941D01*
X622945Y164996D01*
X623032Y165051D01*
X623122Y165102D01*
X623216Y165146D01*
X623311Y165185D01*
X623406Y165220D01*
X623508Y165248D01*
X623606Y165272D01*
X623709Y165291D01*
X623811Y165303D01*
X623913Y165311D01*
X624016Y165315D01*
X626378D01*
X626480Y165311D01*
D02*
G37*
G36*
X609929Y162102D02*
X610012Y162098D01*
X610098Y162087D01*
X610181Y162071D01*
X610264Y162051D01*
X610347Y162028D01*
X610429Y161996D01*
X610508Y161965D01*
X610583Y161929D01*
X610658Y161886D01*
X610732Y161843D01*
X610803Y161795D01*
X610870Y161744D01*
X610937Y161685D01*
X610996Y161626D01*
X611055Y161567D01*
X611114Y161500D01*
X611165Y161433D01*
X611213Y161362D01*
X611256Y161287D01*
X611299Y161213D01*
X611335Y161138D01*
X611366Y161059D01*
X611398Y160976D01*
X611421Y160894D01*
X611441Y160811D01*
X611457Y160728D01*
X611469Y160642D01*
X611472Y160559D01*
X611476Y160472D01*
Y159213D01*
X611472Y159126D01*
X611469Y159043D01*
X611457Y158957D01*
X611441Y158874D01*
X611421Y158791D01*
X611398Y158709D01*
X611366Y158626D01*
X611335Y158547D01*
X611299Y158472D01*
X611256Y158394D01*
X611213Y158323D01*
X611165Y158252D01*
X611114Y158185D01*
X611055Y158118D01*
X610996Y158059D01*
X610937Y158000D01*
X610870Y157941D01*
X610803Y157890D01*
X610732Y157843D01*
X610658Y157799D01*
X610583Y157756D01*
X610508Y157720D01*
X610429Y157689D01*
X610347Y157658D01*
X610264Y157634D01*
X610181Y157614D01*
X610098Y157598D01*
X610012Y157587D01*
X609929Y157583D01*
X609842Y157579D01*
X609756Y157583D01*
X609673Y157587D01*
X609587Y157598D01*
X609504Y157614D01*
X609421Y157634D01*
X609339Y157658D01*
X609256Y157689D01*
X609177Y157720D01*
X609102Y157756D01*
X609028Y157799D01*
X608953Y157843D01*
X608882Y157890D01*
X608815Y157941D01*
X608748Y158000D01*
X608689Y158059D01*
X608630Y158118D01*
X608571Y158185D01*
X608520Y158252D01*
X608472Y158323D01*
X608429Y158394D01*
X608386Y158472D01*
X608350Y158547D01*
X608319Y158626D01*
X608287Y158709D01*
X608264Y158791D01*
X608244Y158874D01*
X608228Y158957D01*
X608216Y159043D01*
X608213Y159126D01*
X608209Y159213D01*
Y160472D01*
X608213Y160559D01*
X608216Y160642D01*
X608228Y160728D01*
X608244Y160811D01*
X608264Y160894D01*
X608287Y160976D01*
X608319Y161059D01*
X608350Y161138D01*
X608386Y161213D01*
X608429Y161287D01*
X608472Y161362D01*
X608520Y161433D01*
X608571Y161500D01*
X608630Y161567D01*
X608689Y161626D01*
X608748Y161685D01*
X608815Y161744D01*
X608882Y161795D01*
X608953Y161843D01*
X609028Y161886D01*
X609102Y161929D01*
X609177Y161965D01*
X609256Y161996D01*
X609339Y162028D01*
X609421Y162051D01*
X609504Y162071D01*
X609587Y162087D01*
X609673Y162098D01*
X609756Y162102D01*
X609842Y162106D01*
X609929Y162102D01*
D02*
G37*
G36*
X614762Y132536D02*
D01*
X614762D01*
X614848Y132532D01*
X614858Y132531D01*
X614868Y132530D01*
X614955Y132518D01*
X614959Y132517D01*
X614964Y132517D01*
X615051Y132501D01*
X615055Y132500D01*
X615060Y132499D01*
X615147Y132480D01*
X615157Y132476D01*
X615167Y132474D01*
X615250Y132446D01*
X615333Y132419D01*
X615341Y132415D01*
X615349Y132412D01*
X615432Y132377D01*
X615434Y132376D01*
X615436Y132375D01*
X615514Y132340D01*
X615522Y132336D01*
X615530Y132332D01*
X615609Y132289D01*
X615616Y132284D01*
X615624Y132279D01*
X615693Y132234D01*
X615766Y132188D01*
X615777Y132179D01*
X615788Y132172D01*
X615855Y132116D01*
X615855Y132116D01*
X615922Y132061D01*
X615924Y132059D01*
X615927Y132057D01*
X615994Y131998D01*
X616003Y131988D01*
X616013Y131978D01*
X616072Y131911D01*
X616075Y131909D01*
X616077Y131906D01*
X616132Y131839D01*
X616187Y131772D01*
X616195Y131761D01*
X616203Y131750D01*
X616251Y131675D01*
X616251Y131675D01*
X616298Y131600D01*
X616300Y131597D01*
X616302Y131593D01*
X616345Y131518D01*
X616350Y131508D01*
X616356Y131499D01*
X616391Y131420D01*
X616392Y131418D01*
X616393Y131416D01*
X616428Y131334D01*
X616431Y131325D01*
X616434Y131317D01*
X616462Y131234D01*
X616462Y131234D01*
X616490Y131151D01*
X616492Y131141D01*
X616495Y131131D01*
X616515Y131044D01*
X616516Y131040D01*
X616517Y131035D01*
X616533Y130948D01*
X616533Y130944D01*
X616534Y130939D01*
X616546Y130852D01*
X616546Y130842D01*
X616548Y130833D01*
X616552Y130746D01*
Y130746D01*
Y130746D01*
X616556Y130659D01*
X616555Y130655D01*
X616556Y130650D01*
Y130140D01*
X616558Y130123D01*
X616562Y130098D01*
X616562Y130096D01*
X616562Y130094D01*
X616564Y130075D01*
X616568Y130060D01*
X616573Y130044D01*
X616580Y130026D01*
X616589Y130003D01*
X616589Y130003D01*
X616596Y129987D01*
X616606Y129970D01*
X616606Y129970D01*
X616612Y129959D01*
X616620Y129950D01*
X616626Y129941D01*
X616634Y129931D01*
X616637Y129926D01*
X616646Y129917D01*
X616652Y129910D01*
X616659Y129903D01*
X616666Y129894D01*
X616675Y129887D01*
X616681Y129880D01*
X616689Y129874D01*
X616697Y129866D01*
X616703Y129862D01*
X616712Y129855D01*
X616722Y129848D01*
X616731Y129841D01*
X616742Y129834D01*
X616758Y129825D01*
X616775Y129818D01*
X616797Y129808D01*
X616816Y129801D01*
X616832Y129797D01*
X616847Y129793D01*
X616865Y129790D01*
X616867Y129790D01*
X616869Y129790D01*
X616895Y129786D01*
X616911Y129784D01*
X616929D01*
X616934Y129784D01*
X616939Y129784D01*
X617022Y129780D01*
X617105Y129776D01*
X617115Y129775D01*
X617125Y129774D01*
X617208Y129762D01*
X617214Y129761D01*
X617220Y129760D01*
X617299Y129745D01*
X617302Y129743D01*
X617306Y129743D01*
X617389Y129723D01*
X617395Y129721D01*
X617401Y129720D01*
X617480Y129696D01*
X617486Y129694D01*
X617492Y129692D01*
X617567Y129665D01*
X617570Y129663D01*
X617573Y129662D01*
X617652Y129631D01*
X617658Y129628D01*
X617664Y129625D01*
X617739Y129590D01*
X617745Y129587D01*
X617751Y129584D01*
X617822Y129544D01*
X617826Y129542D01*
X617830Y129540D01*
X617901Y129496D01*
X617903Y129495D01*
X617905Y129493D01*
X617972Y129450D01*
X617979Y129445D01*
X617986Y129440D01*
X618053Y129389D01*
X618058Y129384D01*
X618064Y129380D01*
X618127Y129325D01*
X618130Y129322D01*
X618132Y129320D01*
X618191Y129265D01*
X618197Y129260D01*
X618202Y129254D01*
X618257Y129195D01*
X618259Y129193D01*
X618262Y129190D01*
X618317Y129127D01*
X618321Y129121D01*
X618326Y129116D01*
X618377Y129049D01*
X618382Y129042D01*
X618387Y129035D01*
X618430Y128968D01*
X618432Y128966D01*
X618433Y128964D01*
X618477Y128893D01*
X618479Y128889D01*
X618481Y128885D01*
X618521Y128814D01*
X618524Y128808D01*
X618527Y128802D01*
X618562Y128727D01*
X618565Y128721D01*
X618568Y128715D01*
X618599Y128636D01*
X618600Y128633D01*
X618602Y128630D01*
X618629Y128555D01*
X618631Y128549D01*
X618633Y128543D01*
X618657Y128464D01*
X618658Y128458D01*
X618660Y128452D01*
X618680Y128369D01*
X618680Y128365D01*
X618681Y128361D01*
X618697Y128283D01*
X618698Y128277D01*
X618699Y128271D01*
X618711Y128188D01*
X618712Y128178D01*
X618713Y128168D01*
X618717Y128085D01*
X618721Y128003D01*
X618721Y127992D01*
X618721Y127982D01*
X618717Y127899D01*
X618713Y127816D01*
X618712Y127806D01*
X618711Y127796D01*
X618699Y127713D01*
X618698Y127707D01*
X618697Y127701D01*
X618681Y127623D01*
X618680Y127619D01*
X618680Y127615D01*
X618660Y127532D01*
X618658Y127526D01*
X618657Y127520D01*
X618633Y127442D01*
X618631Y127435D01*
X618629Y127429D01*
X618602Y127354D01*
X618600Y127351D01*
X618599Y127348D01*
X618568Y127270D01*
X618565Y127264D01*
X618562Y127257D01*
X618527Y127183D01*
X618524Y127176D01*
X618521Y127170D01*
X618481Y127099D01*
X618479Y127095D01*
X618477Y127091D01*
X618433Y127021D01*
X618432Y127018D01*
X618430Y127016D01*
X618387Y126949D01*
X618382Y126942D01*
X618377Y126935D01*
X618326Y126868D01*
X618321Y126863D01*
X618317Y126857D01*
X618262Y126794D01*
X618259Y126792D01*
X618257Y126789D01*
X618202Y126730D01*
X618197Y126725D01*
X618191Y126719D01*
X618132Y126664D01*
X618130Y126662D01*
X618127Y126659D01*
X618064Y126604D01*
X618059Y126600D01*
X618053Y126595D01*
X617986Y126544D01*
X617979Y126539D01*
X617972Y126534D01*
X617905Y126491D01*
X617903Y126489D01*
X617901Y126488D01*
X617830Y126445D01*
X617826Y126443D01*
X617822Y126440D01*
X617751Y126401D01*
X617745Y126398D01*
X617739Y126394D01*
X617664Y126359D01*
X617658Y126356D01*
X617652Y126353D01*
X617573Y126322D01*
X617570Y126321D01*
X617567Y126320D01*
X617492Y126292D01*
X617486Y126290D01*
X617480Y126288D01*
X617401Y126264D01*
X617395Y126263D01*
X617389Y126261D01*
X617306Y126242D01*
X617302Y126241D01*
X617299Y126240D01*
X617220Y126224D01*
X617214Y126223D01*
X617208Y126222D01*
X617125Y126210D01*
X617115Y126209D01*
X617105Y126208D01*
X617022Y126204D01*
X616939Y126200D01*
X616934Y126200D01*
X616929Y126200D01*
X614567D01*
X614562Y126200D01*
X614557Y126200D01*
X614474Y126204D01*
X614391Y126208D01*
X614381Y126209D01*
X614371Y126210D01*
X614288Y126222D01*
X614282Y126223D01*
X614276Y126224D01*
X614198Y126240D01*
X614194Y126241D01*
X614190Y126242D01*
X614107Y126261D01*
X614101Y126263D01*
X614095Y126264D01*
X614016Y126288D01*
X614010Y126290D01*
X614004Y126292D01*
X613929Y126320D01*
X613926Y126321D01*
X613923Y126322D01*
X613844Y126353D01*
X613838Y126356D01*
X613832Y126359D01*
X613757Y126394D01*
X613751Y126398D01*
X613745Y126401D01*
X613674Y126440D01*
X613670Y126443D01*
X613666Y126445D01*
X613595Y126488D01*
X613593Y126490D01*
X613591Y126491D01*
X613524Y126534D01*
X613517Y126539D01*
X613510Y126544D01*
X613443Y126595D01*
X613438Y126600D01*
X613432Y126604D01*
X613369Y126659D01*
X613366Y126662D01*
X613364Y126664D01*
X613305Y126719D01*
X613300Y126725D01*
X613294Y126730D01*
X613239Y126789D01*
X613237Y126792D01*
X613234Y126794D01*
X613179Y126857D01*
X613175Y126863D01*
X613170Y126868D01*
X613119Y126935D01*
X613114Y126942D01*
X613109Y126949D01*
X613066Y127016D01*
X613064Y127018D01*
X613063Y127021D01*
X613019Y127092D01*
X613017Y127095D01*
X613015Y127099D01*
X612976Y127170D01*
X612972Y127176D01*
X612969Y127183D01*
X612934Y127257D01*
X612931Y127264D01*
X612928Y127270D01*
X612897Y127348D01*
X612896Y127351D01*
X612895Y127354D01*
X612867Y127429D01*
X612865Y127435D01*
X612863Y127442D01*
X612839Y127520D01*
X612838Y127526D01*
X612836Y127532D01*
X612816Y127615D01*
X612816Y127619D01*
X612815Y127623D01*
X612799Y127701D01*
X612798Y127708D01*
X612797Y127713D01*
X612785Y127796D01*
X612784Y127806D01*
X612783Y127816D01*
X612779Y127899D01*
Y127899D01*
Y127899D01*
X612775Y127982D01*
X612775Y127987D01*
X612775Y127992D01*
Y130650D01*
X612775Y130655D01*
X612775Y130659D01*
X612779Y130746D01*
D01*
Y130746D01*
X612783Y130833D01*
X612784Y130842D01*
X612785Y130852D01*
X612797Y130939D01*
X612798Y130944D01*
X612798Y130948D01*
X612814Y131035D01*
X612815Y131040D01*
X612816Y131044D01*
X612835Y131131D01*
X612839Y131141D01*
X612841Y131151D01*
X612869Y131234D01*
X612896Y131317D01*
X612900Y131325D01*
X612903Y131334D01*
X612938Y131416D01*
X612939Y131418D01*
X612940Y131420D01*
X612975Y131499D01*
X612981Y131508D01*
X612985Y131518D01*
X613029Y131593D01*
X613031Y131597D01*
X613033Y131600D01*
X613080Y131675D01*
X613080Y131675D01*
X613127Y131750D01*
X613136Y131761D01*
X613143Y131772D01*
X613199Y131839D01*
X613199Y131839D01*
X613254Y131906D01*
X613256Y131909D01*
X613258Y131911D01*
X613317Y131978D01*
X613327Y131988D01*
X613337Y131998D01*
X613404Y132056D01*
X613407Y132059D01*
X613409Y132061D01*
X613476Y132116D01*
X613543Y132172D01*
X613554Y132179D01*
X613565Y132188D01*
X613640Y132235D01*
X613640Y132235D01*
X613715Y132282D01*
X613718Y132284D01*
X613722Y132286D01*
X613797Y132330D01*
X613807Y132334D01*
X613816Y132340D01*
X613895Y132375D01*
X613897Y132376D01*
X613899Y132377D01*
X613981Y132412D01*
X613990Y132415D01*
X613998Y132419D01*
X614081Y132446D01*
X614081Y132446D01*
X614164Y132474D01*
X614174Y132476D01*
X614184Y132480D01*
X614271Y132499D01*
X614275Y132500D01*
X614280Y132501D01*
X614367Y132517D01*
X614371Y132517D01*
X614376Y132518D01*
X614463Y132530D01*
X614472Y132531D01*
X614482Y132532D01*
X614569Y132536D01*
X614569D01*
D01*
X614655Y132540D01*
X614665Y132539D01*
X614675Y132540D01*
X614762Y132536D01*
D02*
G37*
G36*
X626480Y129957D02*
X626583Y129949D01*
X626685Y129937D01*
X626787Y129917D01*
X626886Y129894D01*
X626988Y129866D01*
X627083Y129831D01*
X627177Y129791D01*
X627272Y129748D01*
X627362Y129697D01*
X627449Y129642D01*
X627535Y129587D01*
X627618Y129524D01*
X627697Y129457D01*
X627772Y129386D01*
X627843Y129311D01*
X627910Y129232D01*
X627972Y129150D01*
X628028Y129063D01*
X628083Y128976D01*
X628134Y128886D01*
X628177Y128791D01*
X628217Y128697D01*
X628252Y128602D01*
X628279Y128500D01*
X628303Y128402D01*
X628323Y128299D01*
X628335Y128197D01*
X628342Y128094D01*
X628346Y127992D01*
X628342Y127890D01*
X628335Y127787D01*
X628323Y127685D01*
X628303Y127583D01*
X628279Y127484D01*
X628252Y127382D01*
X628217Y127287D01*
X628177Y127193D01*
X628134Y127098D01*
X628083Y127008D01*
X628028Y126921D01*
X627972Y126835D01*
X627910Y126752D01*
X627843Y126673D01*
X627772Y126598D01*
X627697Y126528D01*
X627618Y126461D01*
X627535Y126398D01*
X627449Y126342D01*
X627362Y126287D01*
X627272Y126236D01*
X627177Y126193D01*
X627083Y126154D01*
X626988Y126118D01*
X626886Y126091D01*
X626787Y126067D01*
X626685Y126047D01*
X626583Y126035D01*
X626480Y126028D01*
X626378Y126024D01*
X624016D01*
X623913Y126028D01*
X623811Y126035D01*
X623709Y126047D01*
X623606Y126067D01*
X623508Y126091D01*
X623406Y126118D01*
X623311Y126154D01*
X623216Y126193D01*
X623122Y126236D01*
X623032Y126287D01*
X622945Y126342D01*
X622858Y126398D01*
X622776Y126461D01*
X622697Y126528D01*
X622622Y126598D01*
X622551Y126673D01*
X622484Y126752D01*
X622421Y126835D01*
X622366Y126921D01*
X622311Y127008D01*
X622260Y127098D01*
X622217Y127193D01*
X622177Y127287D01*
X622142Y127382D01*
X622114Y127484D01*
X622090Y127583D01*
X622071Y127685D01*
X622059Y127787D01*
X622051Y127890D01*
X622047Y127992D01*
X622051Y128094D01*
X622059Y128197D01*
X622071Y128299D01*
X622090Y128402D01*
X622114Y128500D01*
X622142Y128602D01*
X622177Y128697D01*
X622217Y128791D01*
X622260Y128886D01*
X622311Y128976D01*
X622366Y129063D01*
X622421Y129150D01*
X622484Y129232D01*
X622551Y129311D01*
X622622Y129386D01*
X622697Y129457D01*
X622776Y129524D01*
X622858Y129587D01*
X622945Y129642D01*
X623032Y129697D01*
X623122Y129748D01*
X623216Y129791D01*
X623311Y129831D01*
X623406Y129866D01*
X623508Y129894D01*
X623606Y129917D01*
X623709Y129937D01*
X623811Y129949D01*
X623913Y129957D01*
X624016Y129961D01*
X626378D01*
X626480Y129957D01*
D02*
G37*
D25*
X448425Y285039D02*
D03*
X457087Y291339D02*
D03*
X448425D02*
D03*
X457087Y285039D02*
D03*
D36*
X356988Y368504D02*
D03*
Y370079D02*
D03*
Y371654D02*
D03*
Y373228D02*
D03*
Y374803D02*
D03*
Y376378D02*
D03*
Y377953D02*
D03*
X345374D02*
D03*
Y376378D02*
D03*
Y374803D02*
D03*
Y373228D02*
D03*
Y371654D02*
D03*
Y370079D02*
D03*
Y368504D02*
D03*
D37*
X351181Y373228D02*
D03*
D68*
X381890Y460630D02*
X381890Y349606D01*
X381890Y324803D02*
Y332677D01*
Y477362D02*
Y507874D01*
Y324803D02*
X507874D01*
Y383858D01*
Y399606D02*
Y464567D01*
Y486221D02*
Y507874D01*
X381890D02*
X507874D01*
D69*
X478346Y276622D02*
D03*
Y270622D02*
D03*
X335827Y368653D02*
D03*
Y374654D02*
D03*
X369291Y380953D02*
D03*
Y374953D02*
D03*
X364173Y380953D02*
D03*
Y374953D02*
D03*
X372047Y420228D02*
D03*
Y426228D02*
D03*
X92520Y300244D02*
D03*
Y217567D02*
D03*
X466535Y195819D02*
D03*
Y201819D02*
D03*
X460630Y195819D02*
D03*
Y201819D02*
D03*
X92520Y294244D02*
D03*
Y211567D02*
D03*
Y382921D02*
D03*
Y376921D02*
D03*
X435039Y355268D02*
D03*
Y361268D02*
D03*
X482283Y367173D02*
D03*
Y361173D02*
D03*
X155512Y359205D02*
D03*
Y365205D02*
D03*
X149606Y359205D02*
D03*
Y365205D02*
D03*
Y386858D02*
D03*
Y380858D02*
D03*
X421397Y269035D02*
D03*
Y263035D02*
D03*
X426897Y269035D02*
D03*
Y263035D02*
D03*
X149606Y304181D02*
D03*
Y298181D02*
D03*
Y221504D02*
D03*
Y215504D02*
D03*
X155512Y193850D02*
D03*
Y199850D02*
D03*
X149606Y193850D02*
D03*
Y199850D02*
D03*
X155512Y276528D02*
D03*
Y282528D02*
D03*
X149606Y276528D02*
D03*
Y282528D02*
D03*
X474409Y54181D02*
D03*
Y48181D02*
D03*
X480315Y54181D02*
D03*
Y48181D02*
D03*
Y59992D02*
D03*
Y65992D02*
D03*
Y461567D02*
D03*
Y467567D02*
D03*
X460630Y475347D02*
D03*
Y481347D02*
D03*
X474409Y447787D02*
D03*
Y453787D02*
D03*
X480315D02*
D03*
Y447787D02*
D03*
X484252Y475347D02*
D03*
Y481347D02*
D03*
X431148Y479284D02*
D03*
Y485284D02*
D03*
X468504Y435976D02*
D03*
Y441976D02*
D03*
X477095Y252370D02*
D03*
Y246370D02*
D03*
X413832Y211870D02*
D03*
Y217870D02*
D03*
X407283Y232331D02*
D03*
Y226331D02*
D03*
X581031Y147437D02*
D03*
Y153437D02*
D03*
Y142311D02*
D03*
Y136311D02*
D03*
D70*
X429921Y427453D02*
D03*
X438976D02*
D03*
X448032D02*
D03*
D71*
X438976Y450288D02*
D03*
D72*
X440945Y464491D02*
D03*
Y480391D02*
D03*
D73*
X450516Y255461D02*
D03*
X452484D02*
D03*
X456421D02*
D03*
X454453D02*
D03*
X460358D02*
D03*
X458390D02*
D03*
X448547D02*
D03*
X446579D02*
D03*
X444610D02*
D03*
X442642D02*
D03*
X440673D02*
D03*
X438705D02*
D03*
X436736D02*
D03*
X434768D02*
D03*
X432799D02*
D03*
X430831D02*
D03*
Y210279D02*
D03*
X432799D02*
D03*
X434768D02*
D03*
X436736D02*
D03*
X438705D02*
D03*
X440673D02*
D03*
X442642D02*
D03*
X444610D02*
D03*
X446579D02*
D03*
X448547D02*
D03*
X450516D02*
D03*
X452484D02*
D03*
X454453D02*
D03*
X456421D02*
D03*
X458390D02*
D03*
X460358D02*
D03*
D74*
X450000Y277165D02*
D03*
X459449D02*
D03*
X455512D02*
D03*
X446063D02*
D03*
X460630Y262598D02*
D03*
X456693D02*
D03*
X468504D02*
D03*
X464567D02*
D03*
D75*
X467913Y270075D02*
D03*
X458071D02*
D03*
D76*
X607244Y134843D02*
D03*
X613937Y155512D02*
D03*
X607244Y136811D02*
D03*
Y138779D02*
D03*
Y140748D02*
D03*
Y142717D02*
D03*
Y144685D02*
D03*
Y146653D02*
D03*
Y148622D02*
D03*
Y150591D02*
D03*
Y152559D02*
D03*
Y154528D02*
D03*
Y156496D02*
D03*
X613937Y153543D02*
D03*
Y151575D02*
D03*
Y149606D02*
D03*
Y147638D02*
D03*
Y145669D02*
D03*
Y143701D02*
D03*
Y141732D02*
D03*
Y139764D02*
D03*
Y137795D02*
D03*
Y135827D02*
D03*
Y133858D02*
D03*
D77*
X564961Y189224D02*
D03*
Y182824D02*
D03*
X383858Y286665D02*
D03*
Y280265D02*
D03*
X389764Y286665D02*
D03*
Y280265D02*
D03*
D78*
X565945Y157283D02*
D03*
Y169488D02*
D03*
D79*
X576819Y188976D02*
D03*
X570819D02*
D03*
Y183071D02*
D03*
X576819D02*
D03*
X123079Y133858D02*
D03*
X117079D02*
D03*
X345913Y348819D02*
D03*
X339913D02*
D03*
X345913Y355512D02*
D03*
X339913D02*
D03*
X345913Y361417D02*
D03*
X339913D02*
D03*
X356055D02*
D03*
X362055D02*
D03*
X356055Y355512D02*
D03*
X362055D02*
D03*
X357331Y411417D02*
D03*
X351331D02*
D03*
X357331Y405512D02*
D03*
X351331D02*
D03*
X152606Y133858D02*
D03*
X146606D02*
D03*
X294339Y145669D02*
D03*
Y151575D02*
D03*
X258906Y155512D02*
D03*
X288339Y151575D02*
D03*
X258906Y202756D02*
D03*
X252906D02*
D03*
X258906Y208661D02*
D03*
X252906D02*
D03*
X258906Y214567D02*
D03*
X252906D02*
D03*
X258906Y220472D02*
D03*
X252906D02*
D03*
X294339Y198819D02*
D03*
X288339D02*
D03*
X294339Y192913D02*
D03*
X288339D02*
D03*
X252906Y161417D02*
D03*
X258906D02*
D03*
X252906Y167323D02*
D03*
X258906D02*
D03*
X288339Y145669D02*
D03*
X298276Y328740D02*
D03*
X292276D02*
D03*
X298276Y334646D02*
D03*
X292276D02*
D03*
Y299213D02*
D03*
X298276D02*
D03*
X595031Y7811D02*
D03*
X589031D02*
D03*
X544339Y175197D02*
D03*
X538339D02*
D03*
X544339Y169291D02*
D03*
X538339D02*
D03*
X526528Y124016D02*
D03*
X532527D02*
D03*
X544339Y118110D02*
D03*
X538339D02*
D03*
X544339Y124016D02*
D03*
X538339D02*
D03*
X418260Y372047D02*
D03*
X424260D02*
D03*
Y377953D02*
D03*
X418260D02*
D03*
X408417Y340551D02*
D03*
X414417D02*
D03*
X135780Y396654D02*
D03*
X141779D02*
D03*
X135780Y390995D02*
D03*
X141779D02*
D03*
X203787Y68898D02*
D03*
X197787D02*
D03*
X125047D02*
D03*
X119047D02*
D03*
X298276Y358268D02*
D03*
X292276D02*
D03*
X298276Y240158D02*
D03*
X292276D02*
D03*
X135780Y231299D02*
D03*
X141779D02*
D03*
X252906Y173228D02*
D03*
X258906D02*
D03*
X383811Y267717D02*
D03*
X389811D02*
D03*
Y273622D02*
D03*
X383811D02*
D03*
X413433Y449803D02*
D03*
X407433D02*
D03*
X211661Y257874D02*
D03*
X205661D02*
D03*
X585677Y317913D02*
D03*
X579677D02*
D03*
X135780Y225640D02*
D03*
X141779D02*
D03*
X164417Y68898D02*
D03*
X158417D02*
D03*
X292276Y387795D02*
D03*
X298276D02*
D03*
X252906Y155512D02*
D03*
X292276Y393701D02*
D03*
X298276D02*
D03*
X135780Y313976D02*
D03*
X141779D02*
D03*
X135780Y308317D02*
D03*
X141779D02*
D03*
X389811Y261811D02*
D03*
X383811D02*
D03*
X585677Y268701D02*
D03*
X579677D02*
D03*
X585677Y215551D02*
D03*
X579677D02*
D03*
X292276Y269685D02*
D03*
X298276D02*
D03*
X292276Y275590D02*
D03*
X298276D02*
D03*
X389811Y292323D02*
D03*
X383811D02*
D03*
X581031Y171811D02*
D03*
X587031D02*
D03*
D80*
X586661Y126969D02*
D03*
X580661D02*
D03*
X369142Y326772D02*
D03*
X363142D02*
D03*
Y320866D02*
D03*
X369142D02*
D03*
X580661Y121063D02*
D03*
X586661D02*
D03*
X266685Y155512D02*
D03*
X99362Y309055D02*
D03*
X141779Y287402D02*
D03*
X85677Y299213D02*
D03*
X99362Y226378D02*
D03*
X141779Y204724D02*
D03*
X85677Y216535D02*
D03*
X79677Y299213D02*
D03*
X91488Y285433D02*
D03*
X67866D02*
D03*
X91488Y279528D02*
D03*
X73866Y285433D02*
D03*
X79677Y216535D02*
D03*
X91488Y202756D02*
D03*
Y196850D02*
D03*
X73866Y362205D02*
D03*
Y279528D02*
D03*
Y196850D02*
D03*
X272685Y173228D02*
D03*
Y167323D02*
D03*
Y161417D02*
D03*
Y155512D02*
D03*
X97488Y202756D02*
D03*
Y196850D02*
D03*
Y285433D02*
D03*
Y279528D02*
D03*
X91488Y368110D02*
D03*
X97488D02*
D03*
X91488Y362205D02*
D03*
X97488D02*
D03*
X313929Y155512D02*
D03*
X319929D02*
D03*
X313929Y161417D02*
D03*
X319929D02*
D03*
X272685Y220472D02*
D03*
X266685D02*
D03*
X272685Y202756D02*
D03*
X266685D02*
D03*
X272685Y208661D02*
D03*
X266685D02*
D03*
X272685Y214567D02*
D03*
X266685D02*
D03*
X319929D02*
D03*
X313929D02*
D03*
X319929Y220472D02*
D03*
X313929D02*
D03*
X105362Y309055D02*
D03*
X67866Y279528D02*
D03*
X211661Y269685D02*
D03*
X205661D02*
D03*
X73866Y368110D02*
D03*
X67866D02*
D03*
Y196850D02*
D03*
X105362Y226378D02*
D03*
X67866Y362205D02*
D03*
X313929Y167323D02*
D03*
X319929D02*
D03*
X313929Y173228D02*
D03*
X319929D02*
D03*
X199850Y257874D02*
D03*
X193850D02*
D03*
X199850Y263779D02*
D03*
X193850D02*
D03*
X266685Y173228D02*
D03*
Y167323D02*
D03*
Y161417D02*
D03*
X85677Y381890D02*
D03*
X79677D02*
D03*
X105362Y391732D02*
D03*
X99362D02*
D03*
X276528Y320866D02*
D03*
X282528D02*
D03*
X292276Y305118D02*
D03*
X298276D02*
D03*
X516685Y169291D02*
D03*
X522685D02*
D03*
X516685Y177165D02*
D03*
X522685D02*
D03*
X534496Y187008D02*
D03*
X528496D02*
D03*
X534496Y192913D02*
D03*
X528496D02*
D03*
X562055Y147638D02*
D03*
X556055D02*
D03*
X408417Y346457D02*
D03*
X414417D02*
D03*
X420228Y340551D02*
D03*
X426228D02*
D03*
X473472Y338583D02*
D03*
X467472D02*
D03*
X485284D02*
D03*
X479284D02*
D03*
X141779Y358268D02*
D03*
X135780D02*
D03*
X141779Y364173D02*
D03*
X135780D02*
D03*
X141779Y370079D02*
D03*
X135780D02*
D03*
X377016Y68898D02*
D03*
X371016D02*
D03*
X377016Y62992D02*
D03*
X371016D02*
D03*
X197787Y74803D02*
D03*
X203787D02*
D03*
Y80709D02*
D03*
X197787D02*
D03*
X119047Y74803D02*
D03*
X125047D02*
D03*
Y80709D02*
D03*
X119047D02*
D03*
X410480Y478346D02*
D03*
X404480D02*
D03*
X585677Y312008D02*
D03*
X579677D02*
D03*
X158417Y74803D02*
D03*
X164417D02*
D03*
Y80709D02*
D03*
X158417D02*
D03*
X282528Y379921D02*
D03*
X276528D02*
D03*
X298276Y364173D02*
D03*
X292276D02*
D03*
X141779Y198819D02*
D03*
X135780D02*
D03*
Y204724D02*
D03*
X199850Y269685D02*
D03*
X193850D02*
D03*
X313929Y208661D02*
D03*
X319929D02*
D03*
X313929Y202756D02*
D03*
X319929D02*
D03*
X135780Y287402D02*
D03*
X141779Y281496D02*
D03*
X135780D02*
D03*
X141779Y275590D02*
D03*
X135780D02*
D03*
X479378Y409449D02*
D03*
X473378D02*
D03*
X571898Y317913D02*
D03*
X565898D02*
D03*
Y323819D02*
D03*
X571898D02*
D03*
Y268701D02*
D03*
X565898D02*
D03*
X585677Y262795D02*
D03*
X579677D02*
D03*
X565898Y274606D02*
D03*
X571898D02*
D03*
X229283Y344488D02*
D03*
X235283D02*
D03*
X571898Y215551D02*
D03*
X565898D02*
D03*
X585677Y209646D02*
D03*
X579677D02*
D03*
X565898Y221457D02*
D03*
X571898D02*
D03*
X229283Y332677D02*
D03*
X235283D02*
D03*
X211661Y275590D02*
D03*
X205661D02*
D03*
X217567Y309055D02*
D03*
X211567D02*
D03*
X217567Y314961D02*
D03*
X211567D02*
D03*
X282528Y261811D02*
D03*
X276528D02*
D03*
X298276Y246063D02*
D03*
X292276D02*
D03*
X141779Y192913D02*
D03*
X135780D02*
D03*
X556055Y141732D02*
D03*
X562055D02*
D03*
X581031Y166311D02*
D03*
X587031D02*
D03*
D81*
X128543Y139862D02*
D03*
Y142421D02*
D03*
Y144980D02*
D03*
Y147539D02*
D03*
X111614D02*
D03*
Y144980D02*
D03*
Y142421D02*
D03*
Y139862D02*
D03*
X158465D02*
D03*
Y142421D02*
D03*
Y144980D02*
D03*
Y147539D02*
D03*
X141535D02*
D03*
Y144980D02*
D03*
Y142421D02*
D03*
Y139862D02*
D03*
D82*
X365158Y333720D02*
D03*
X363189D02*
D03*
X367126D02*
D03*
X369094D02*
D03*
Y339508D02*
D03*
X367126D02*
D03*
X365158D02*
D03*
X363189D02*
D03*
D83*
X364173Y395126D02*
D03*
Y389126D02*
D03*
X369291Y363142D02*
D03*
Y369142D02*
D03*
X330315Y395913D02*
D03*
Y389913D02*
D03*
X330315Y374654D02*
D03*
Y368654D02*
D03*
Y385283D02*
D03*
Y379283D02*
D03*
X366142Y420228D02*
D03*
Y426228D02*
D03*
Y438039D02*
D03*
Y432039D02*
D03*
X149606Y287354D02*
D03*
X98425Y300244D02*
D03*
X149606Y204677D02*
D03*
X98425Y217567D02*
D03*
X96457Y339520D02*
D03*
X102362D02*
D03*
Y256842D02*
D03*
X96457D02*
D03*
Y174165D02*
D03*
X102362D02*
D03*
X98425Y294244D02*
D03*
X96457Y262842D02*
D03*
X102362D02*
D03*
Y180165D02*
D03*
X96457D02*
D03*
X98425Y211567D02*
D03*
X102362Y345520D02*
D03*
X96457D02*
D03*
X98425Y382921D02*
D03*
Y376921D02*
D03*
X490158Y347488D02*
D03*
Y341488D02*
D03*
X161417Y370031D02*
D03*
Y376031D02*
D03*
X155512Y370031D02*
D03*
Y376031D02*
D03*
X149606Y370031D02*
D03*
Y376031D02*
D03*
X155512Y380858D02*
D03*
Y386858D02*
D03*
X161417Y204677D02*
D03*
Y210677D02*
D03*
X155512Y204677D02*
D03*
Y210677D02*
D03*
X149606D02*
D03*
X155512Y215504D02*
D03*
Y221504D02*
D03*
X468504Y461567D02*
D03*
Y467567D02*
D03*
X474409Y461567D02*
D03*
Y467567D02*
D03*
X155512Y298181D02*
D03*
Y304181D02*
D03*
X149606Y293354D02*
D03*
X161417Y287354D02*
D03*
Y293354D02*
D03*
X155512Y287354D02*
D03*
Y293354D02*
D03*
X401575Y168260D02*
D03*
Y174260D02*
D03*
Y160480D02*
D03*
Y154480D02*
D03*
X271654Y65992D02*
D03*
Y59992D02*
D03*
X255906Y65992D02*
D03*
Y59992D02*
D03*
X240158Y65992D02*
D03*
Y59992D02*
D03*
X500000Y89520D02*
D03*
Y95520D02*
D03*
X492126D02*
D03*
Y89520D02*
D03*
X474409Y59992D02*
D03*
Y65992D02*
D03*
X456693Y430165D02*
D03*
Y424165D02*
D03*
X462598D02*
D03*
Y430165D02*
D03*
X496063Y475347D02*
D03*
Y481347D02*
D03*
X466535Y475347D02*
D03*
Y481347D02*
D03*
X478346Y475347D02*
D03*
Y481347D02*
D03*
X490158D02*
D03*
Y475347D02*
D03*
X472441Y481347D02*
D03*
Y475347D02*
D03*
X468504Y447787D02*
D03*
Y453787D02*
D03*
X454724Y481347D02*
D03*
Y475347D02*
D03*
X456693Y453787D02*
D03*
Y447787D02*
D03*
X462598Y435976D02*
D03*
Y441976D02*
D03*
Y453787D02*
D03*
Y447787D02*
D03*
X456693Y435976D02*
D03*
Y441976D02*
D03*
D84*
X344094Y389567D02*
D03*
Y395472D02*
D03*
X355118Y389567D02*
D03*
Y395472D02*
D03*
X399606Y384842D02*
D03*
Y378937D02*
D03*
X271654Y46260D02*
D03*
Y40354D02*
D03*
X255906Y46260D02*
D03*
Y40354D02*
D03*
X240158Y46260D02*
D03*
Y40354D02*
D03*
D85*
X364630Y348819D02*
D03*
X356630D02*
D03*
X425260Y383904D02*
D03*
X417260D02*
D03*
X414433Y441929D02*
D03*
X406433D02*
D03*
X414433Y434055D02*
D03*
X406433D02*
D03*
D86*
X349803Y419488D02*
D03*
Y423228D02*
D03*
Y426968D02*
D03*
X358858D02*
D03*
Y423228D02*
D03*
Y419488D02*
D03*
X143307Y383661D02*
D03*
Y379921D02*
D03*
Y376181D02*
D03*
X134252D02*
D03*
Y379921D02*
D03*
Y383661D02*
D03*
X143307Y218307D02*
D03*
Y214567D02*
D03*
Y210827D02*
D03*
X134252D02*
D03*
Y214567D02*
D03*
Y218307D02*
D03*
X143307Y300984D02*
D03*
Y297244D02*
D03*
Y293504D02*
D03*
X134252D02*
D03*
Y297244D02*
D03*
Y300984D02*
D03*
D87*
X299803Y159449D02*
D03*
Y161417D02*
D03*
Y163386D02*
D03*
Y165354D02*
D03*
Y167323D02*
D03*
X282874D02*
D03*
Y165354D02*
D03*
Y163386D02*
D03*
Y161417D02*
D03*
Y159449D02*
D03*
X299803Y206693D02*
D03*
Y208661D02*
D03*
Y210630D02*
D03*
Y212598D02*
D03*
Y214567D02*
D03*
X282874D02*
D03*
Y212598D02*
D03*
Y210630D02*
D03*
Y208661D02*
D03*
Y206693D02*
D03*
D88*
X460630Y48150D02*
D03*
Y53150D02*
D03*
Y58150D02*
D03*
Y63150D02*
D03*
Y68150D02*
D03*
Y73150D02*
D03*
Y78150D02*
D03*
Y83150D02*
D03*
Y88150D02*
D03*
Y93150D02*
D03*
Y98150D02*
D03*
Y103150D02*
D03*
Y108150D02*
D03*
Y113150D02*
D03*
X391732D02*
D03*
Y108150D02*
D03*
Y103150D02*
D03*
Y98150D02*
D03*
Y93150D02*
D03*
Y88150D02*
D03*
Y83150D02*
D03*
Y78150D02*
D03*
Y73150D02*
D03*
Y68150D02*
D03*
Y63150D02*
D03*
Y58150D02*
D03*
Y53150D02*
D03*
Y48150D02*
D03*
D89*
X453681Y118071D02*
D03*
X448681D02*
D03*
X443681D02*
D03*
X438681D02*
D03*
X433681D02*
D03*
X428681D02*
D03*
X423681D02*
D03*
X418681D02*
D03*
X413681D02*
D03*
X408681D02*
D03*
X403681D02*
D03*
X398681D02*
D03*
D90*
X432087Y78543D02*
D03*
Y73032D02*
D03*
X437598D02*
D03*
Y78543D02*
D03*
Y84055D02*
D03*
X432087D02*
D03*
X426575D02*
D03*
Y78543D02*
D03*
Y73032D02*
D03*
D91*
X456693Y464567D02*
D03*
D92*
X451772Y468701D02*
D03*
X453740D02*
D03*
X455709D02*
D03*
X457677D02*
D03*
X459646D02*
D03*
X461614D02*
D03*
Y460433D02*
D03*
X459646D02*
D03*
X457677D02*
D03*
X455709D02*
D03*
X453740D02*
D03*
X451772D02*
D03*
D93*
X294539Y139764D02*
D03*
X288139Y187008D02*
D03*
X294539D02*
D03*
X205461Y263779D02*
D03*
X211861D02*
D03*
X288139Y139764D02*
D03*
D94*
X240158Y155512D02*
D03*
Y202756D02*
D03*
X279528Y246063D02*
D03*
Y364173D02*
D03*
Y305118D02*
D03*
X173228Y196850D02*
D03*
Y279528D02*
D03*
Y362205D02*
D03*
X169291Y303150D02*
D03*
Y220472D02*
D03*
X208661Y250000D02*
D03*
X169291Y385827D02*
D03*
D95*
X82677Y308992D02*
D03*
X90551D02*
D03*
X82677Y226315D02*
D03*
X90551D02*
D03*
Y316992D02*
D03*
X82677D02*
D03*
X90551Y234315D02*
D03*
X82677D02*
D03*
X90551Y399669D02*
D03*
Y391669D02*
D03*
X82677Y399669D02*
D03*
Y391669D02*
D03*
X490158Y360173D02*
D03*
Y368173D02*
D03*
X398622Y478284D02*
D03*
Y486283D02*
D03*
X391732Y478284D02*
D03*
Y486283D02*
D03*
X425197Y478284D02*
D03*
Y486283D02*
D03*
X417323Y478284D02*
D03*
Y486283D02*
D03*
X545276Y356236D02*
D03*
Y364236D02*
D03*
D96*
X70866Y268110D02*
D03*
Y185433D02*
D03*
X86614Y350787D02*
D03*
X67126Y342126D02*
D03*
X82874D02*
D03*
X67126Y259449D02*
D03*
X86614Y268110D02*
D03*
X82874Y259449D02*
D03*
X86614Y185433D02*
D03*
X67126Y176772D02*
D03*
X82874D02*
D03*
X90354Y259449D02*
D03*
X74606D02*
D03*
Y176772D02*
D03*
X90354D02*
D03*
X70866Y350787D02*
D03*
X74606Y342126D02*
D03*
X90354D02*
D03*
X496063Y72441D02*
D03*
X492323Y81102D02*
D03*
X499803D02*
D03*
X496063Y112598D02*
D03*
X499803Y103937D02*
D03*
X492323D02*
D03*
X476378Y427559D02*
D03*
X480118Y418898D02*
D03*
X472638D02*
D03*
X214567Y333071D02*
D03*
X218307Y324410D02*
D03*
X210827D02*
D03*
D97*
X423004Y247634D02*
D03*
Y245665D02*
D03*
Y243697D02*
D03*
Y241728D02*
D03*
Y239760D02*
D03*
Y237791D02*
D03*
Y235823D02*
D03*
Y233854D02*
D03*
Y231886D02*
D03*
Y229917D02*
D03*
Y227949D02*
D03*
Y225980D02*
D03*
Y224012D02*
D03*
Y222043D02*
D03*
Y220075D02*
D03*
Y218106D02*
D03*
X468185D02*
D03*
Y220075D02*
D03*
Y222043D02*
D03*
Y224012D02*
D03*
Y225980D02*
D03*
Y227949D02*
D03*
Y229917D02*
D03*
Y231886D02*
D03*
Y233854D02*
D03*
Y235823D02*
D03*
Y237791D02*
D03*
Y239760D02*
D03*
Y241728D02*
D03*
Y243697D02*
D03*
Y245665D02*
D03*
Y247634D02*
D03*
D98*
X417323Y360236D02*
D03*
D99*
X408858Y356299D02*
D03*
Y358268D02*
D03*
Y360236D02*
D03*
Y362205D02*
D03*
Y364173D02*
D03*
X425787D02*
D03*
Y362205D02*
D03*
Y360236D02*
D03*
Y358268D02*
D03*
Y356299D02*
D03*
D100*
X300000Y320669D02*
D03*
Y313189D02*
D03*
X290551D02*
D03*
Y316929D02*
D03*
Y320669D02*
D03*
Y379724D02*
D03*
Y375984D02*
D03*
Y372244D02*
D03*
X300000D02*
D03*
Y379724D02*
D03*
X290551Y261614D02*
D03*
Y257874D02*
D03*
Y254134D02*
D03*
X300000D02*
D03*
Y261614D02*
D03*
D101*
X548120Y155217D02*
D03*
X545620D02*
D03*
X543120D02*
D03*
X540620D02*
D03*
X538120D02*
D03*
X535620D02*
D03*
X533120D02*
D03*
X530620D02*
D03*
X548120Y136122D02*
D03*
X545620D02*
D03*
X543120D02*
D03*
X540620D02*
D03*
X538120D02*
D03*
X535620D02*
D03*
X533120D02*
D03*
X530620D02*
D03*
D102*
X502953Y169291D02*
D03*
X508858D02*
D03*
X502953Y177165D02*
D03*
X508858D02*
D03*
X459646Y338583D02*
D03*
X453740D02*
D03*
X483268Y498032D02*
D03*
X489173D02*
D03*
X235236Y324803D02*
D03*
X229331D02*
D03*
D103*
X414370Y394685D02*
D03*
X426575D02*
D03*
D104*
X472638Y360236D02*
D03*
X444685D02*
D03*
D105*
X452264Y385827D02*
D03*
X465059D02*
D03*
D106*
X427362Y463583D02*
D03*
X413189D02*
D03*
D107*
X191929Y27657D02*
D03*
X209646D02*
D03*
Y58957D02*
D03*
X191929D02*
D03*
X152559Y27657D02*
D03*
X170276D02*
D03*
Y58957D02*
D03*
X152559D02*
D03*
X113189Y27657D02*
D03*
X130905D02*
D03*
Y58957D02*
D03*
X113189D02*
D03*
D108*
X234252Y357087D02*
D03*
Y369685D02*
D03*
Y378346D02*
D03*
Y387008D02*
D03*
X210630D02*
D03*
Y378346D02*
D03*
Y369685D02*
D03*
Y357087D02*
D03*
D109*
X519685Y11811D02*
D03*
X15748Y15748D02*
D03*
D110*
X582677Y500000D02*
D03*
D111*
X367165Y96457D02*
D03*
X361181D02*
D03*
X367165Y106299D02*
D03*
X361181D02*
D03*
X323780Y96457D02*
D03*
X329764D02*
D03*
X323780Y106299D02*
D03*
X329764D02*
D03*
X586850Y177165D02*
D03*
X580866D02*
D03*
D112*
X571260Y306102D02*
D03*
X562598Y302362D02*
D03*
Y309842D02*
D03*
X571260Y256890D02*
D03*
X562598Y253150D02*
D03*
Y260630D02*
D03*
X571260Y203740D02*
D03*
X562598Y200000D02*
D03*
Y207480D02*
D03*
D113*
X210354Y344488D02*
D03*
X218779D02*
D03*
D114*
X559055Y366634D02*
D03*
Y353839D02*
D03*
D115*
X587031Y153920D02*
D03*
Y147935D02*
D03*
Y135819D02*
D03*
Y141803D02*
D03*
D116*
X609842Y131496D02*
D03*
Y159843D02*
D03*
D117*
X599114Y99843D02*
D03*
Y19842D02*
D03*
D118*
X589114Y99843D02*
D03*
X579114D02*
D03*
X569114D02*
D03*
X559114D02*
D03*
X549114D02*
D03*
X589114Y19842D02*
D03*
X579114D02*
D03*
X569114D02*
D03*
X559114D02*
D03*
X549114D02*
D03*
D119*
X611417Y411575D02*
D03*
Y391575D02*
D03*
D120*
X340551Y106457D02*
D03*
D121*
X350551D02*
D03*
X340551Y96457D02*
D03*
X350551D02*
D03*
X340551Y86457D02*
D03*
X350551D02*
D03*
D122*
X54291Y191161D02*
D03*
X44291Y196161D02*
D03*
X54291Y201161D02*
D03*
X44291Y206161D02*
D03*
X54291Y211161D02*
D03*
X44291Y216161D02*
D03*
X54291Y221161D02*
D03*
Y273839D02*
D03*
X44291Y278839D02*
D03*
X54291Y283839D02*
D03*
X44291Y288839D02*
D03*
X54291Y293839D02*
D03*
X44291Y298839D02*
D03*
X54291Y303839D02*
D03*
Y356516D02*
D03*
X44291Y361516D02*
D03*
X54291Y366516D02*
D03*
X44291Y371516D02*
D03*
X54291Y376516D02*
D03*
X44291Y381516D02*
D03*
X54291Y386516D02*
D03*
D123*
X44291Y226161D02*
D03*
Y308839D02*
D03*
Y391516D02*
D03*
D124*
X39803Y176654D02*
D03*
Y240669D02*
D03*
Y259331D02*
D03*
Y323346D02*
D03*
Y342008D02*
D03*
Y406024D02*
D03*
D125*
X11811Y183661D02*
D03*
Y233661D02*
D03*
Y266339D02*
D03*
Y316339D02*
D03*
Y349016D02*
D03*
Y399016D02*
D03*
D126*
X598268Y219646D02*
D03*
Y199646D02*
D03*
X618268D02*
D03*
Y219646D02*
D03*
X608268Y209646D02*
D03*
X598268Y272795D02*
D03*
Y252795D02*
D03*
X618268D02*
D03*
Y272795D02*
D03*
X608268Y262795D02*
D03*
X598268Y322008D02*
D03*
Y302008D02*
D03*
X618268D02*
D03*
Y322008D02*
D03*
X608268Y312008D02*
D03*
D127*
X236221Y249843D02*
D03*
Y259842D02*
D03*
Y269843D02*
D03*
D128*
X500000Y23622D02*
D03*
X62992Y27559D02*
D03*
X59055Y433071D02*
D03*
X606299Y492126D02*
D03*
D129*
X376142Y170354D02*
D03*
Y160354D02*
D03*
X366142Y170354D02*
D03*
Y160354D02*
D03*
X356142Y170354D02*
D03*
Y160354D02*
D03*
D130*
X545276Y486349D02*
D03*
X545275Y395540D02*
D03*
D131*
X601378Y452756D02*
D03*
D132*
X589370Y471654D02*
D03*
D133*
X577756Y452756D02*
D03*
D134*
X338583Y327756D02*
D03*
X333858Y415354D02*
D03*
X349213Y370472D02*
D03*
X353150D02*
D03*
X349213Y375984D02*
D03*
X353150D02*
D03*
X351181Y373228D02*
D03*
X362598Y423228D02*
D03*
X372047Y416929D02*
D03*
X366142Y417323D02*
D03*
X361024Y411417D02*
D03*
Y405512D02*
D03*
X334252Y385039D02*
D03*
X344094D02*
D03*
X364173Y384252D02*
D03*
X369291D02*
D03*
X351350Y353904D02*
D03*
Y359904D02*
D03*
Y347404D02*
D03*
Y362904D02*
D03*
Y356904D02*
D03*
Y350404D02*
D03*
X351461Y366764D02*
D03*
D135*
X468176Y254703D02*
D03*
X454724Y484252D02*
D03*
X413386Y455709D02*
D03*
X452756D02*
D03*
X450182Y456693D02*
D03*
X430118Y439961D02*
D03*
X422094Y421828D02*
D03*
X457874Y457087D02*
D03*
X452756Y436024D02*
D03*
X377165Y355118D02*
D03*
X470866Y276378D02*
D03*
X462992Y274803D02*
D03*
X610383Y147835D02*
D03*
X603893Y138233D02*
D03*
X610715Y143203D02*
D03*
X610394Y152362D02*
D03*
X597244Y108661D02*
D03*
X364173Y370866D02*
D03*
X360630Y388976D02*
D03*
X413779Y292126D02*
D03*
X412992Y298031D02*
D03*
X398819Y295669D02*
D03*
Y291732D02*
D03*
X377953Y298031D02*
D03*
X591031Y117311D02*
D03*
X591350Y177165D02*
D03*
X576378Y162598D02*
D03*
X610630Y138189D02*
D03*
X600787Y142520D02*
D03*
X603937Y146850D02*
D03*
X549213Y127953D02*
D03*
X141339Y151181D02*
D03*
X121653Y147638D02*
D03*
X121260Y141732D02*
D03*
X146850D02*
D03*
X120079Y151575D02*
D03*
X101969D02*
D03*
X514567Y322835D02*
D03*
X512205Y325197D02*
D03*
X516929D02*
D03*
X553150Y209055D02*
D03*
X528740Y322835D02*
D03*
X436221Y269291D02*
D03*
X444488D02*
D03*
X441732D02*
D03*
X438976D02*
D03*
X440551Y265354D02*
D03*
X462598Y293307D02*
D03*
X512205D02*
D03*
X516929Y295669D02*
D03*
X514567Y298031D02*
D03*
X519685Y383071D02*
D03*
X514567D02*
D03*
X497244Y283465D02*
D03*
X500000D02*
D03*
X502756D02*
D03*
X398819Y313779D02*
D03*
X314961Y142520D02*
D03*
X304331Y152362D02*
D03*
X318898Y149213D02*
D03*
X286614Y241339D02*
D03*
X303543Y221654D02*
D03*
X240945Y338189D02*
D03*
X270303Y379710D02*
D03*
X286221Y359449D02*
D03*
X309842Y360236D02*
D03*
X353543Y229528D02*
D03*
X393701Y217323D02*
D03*
X130905Y20669D02*
D03*
X170276D02*
D03*
X209646D02*
D03*
X492913Y277165D02*
D03*
X502756Y300394D02*
D03*
X482283Y265748D02*
D03*
X541339D02*
D03*
X450955Y241900D02*
D03*
X445521Y241880D02*
D03*
X481882Y252370D02*
D03*
X418110Y262992D02*
D03*
X438976Y302755D02*
D03*
X436220D02*
D03*
X444488Y307480D02*
D03*
X447637Y307480D02*
D03*
X320866Y190945D02*
D03*
X11811Y169291D02*
D03*
Y208661D02*
D03*
Y248031D02*
D03*
Y291339D02*
D03*
Y330709D02*
D03*
Y374016D02*
D03*
Y413386D02*
D03*
X302756Y179528D02*
D03*
X374409Y291732D02*
D03*
X408661Y200394D02*
D03*
X164567Y147638D02*
D03*
X155905Y133858D02*
D03*
X116260Y122953D02*
D03*
X121260Y128347D02*
D03*
X514567Y397638D02*
D03*
X512205Y395276D02*
D03*
X519685Y397638D02*
D03*
X516929Y395276D02*
D03*
Y366929D02*
D03*
X512205D02*
D03*
X497244Y309842D02*
D03*
X447244Y280315D02*
D03*
X500000Y305118D02*
D03*
X369685Y186221D02*
D03*
X484645Y471653D02*
D03*
X104331Y300197D02*
D03*
X144882Y287008D02*
D03*
X104331Y217520D02*
D03*
X144882Y204331D02*
D03*
X85630Y280512D02*
D03*
Y197835D02*
D03*
X312007Y148622D02*
D03*
X310630Y163386D02*
D03*
X461587Y285039D02*
D03*
X460433Y280878D02*
D03*
X23622Y205709D02*
D03*
Y272835D02*
D03*
X322987Y177761D02*
D03*
X325875Y205793D02*
D03*
X474409Y43681D02*
D03*
X480315D02*
D03*
X484815Y59992D02*
D03*
X216161Y257874D02*
D03*
X287776Y393701D02*
D03*
Y387795D02*
D03*
X286051Y375984D02*
D03*
Y257874D02*
D03*
X287776Y334646D02*
D03*
Y328740D02*
D03*
X286051Y316929D02*
D03*
X287776Y269685D02*
D03*
Y275590D02*
D03*
X248406Y202756D02*
D03*
X283839Y192913D02*
D03*
Y198819D02*
D03*
X282874Y202193D02*
D03*
Y154949D02*
D03*
X283839Y145669D02*
D03*
Y151575D02*
D03*
X248406Y155512D02*
D03*
Y161417D02*
D03*
Y167323D02*
D03*
Y173228D02*
D03*
Y208661D02*
D03*
Y214567D02*
D03*
Y220472D02*
D03*
X263779Y269685D02*
D03*
X383858Y240158D02*
D03*
Y254921D02*
D03*
X376969Y279528D02*
D03*
X263779Y338583D02*
D03*
X298228D02*
D03*
X263779Y279528D02*
D03*
X298228D02*
D03*
X289370Y226378D02*
D03*
X263779D02*
D03*
X320866Y236221D02*
D03*
X250000Y230315D02*
D03*
X245276Y232283D02*
D03*
X318898Y230315D02*
D03*
X257874Y372047D02*
D03*
Y397638D02*
D03*
X243110Y372047D02*
D03*
X246063D02*
D03*
X279528Y236221D02*
D03*
X255906Y358268D02*
D03*
X192913Y196850D02*
D03*
X183071Y263779D02*
D03*
X191142D02*
D03*
X177165Y358268D02*
D03*
X196850D02*
D03*
X188976Y220472D02*
D03*
X175197D02*
D03*
X179134Y196850D02*
D03*
X129134Y74803D02*
D03*
Y68898D02*
D03*
X168504Y74803D02*
D03*
Y68898D02*
D03*
X207874Y74803D02*
D03*
Y68898D02*
D03*
X240158Y70079D02*
D03*
X255906D02*
D03*
X271654D02*
D03*
X130905Y86614D02*
D03*
X23622Y372047D02*
D03*
X27559Y184055D02*
D03*
Y266732D02*
D03*
Y349410D02*
D03*
X30512Y366142D02*
D03*
Y283465D02*
D03*
Y200787D02*
D03*
X33465Y192913D02*
D03*
X33465Y275590D02*
D03*
X33465Y358268D02*
D03*
X243110Y400591D02*
D03*
X20669Y187008D02*
D03*
Y270669D02*
D03*
Y353346D02*
D03*
X74441Y355202D02*
D03*
Y272525D02*
D03*
Y189848D02*
D03*
X330118Y178740D02*
D03*
X329528Y238976D02*
D03*
X408661Y251575D02*
D03*
X413933Y251728D02*
D03*
X100787Y202756D02*
D03*
Y196850D02*
D03*
Y285433D02*
D03*
Y279528D02*
D03*
X102362Y185039D02*
D03*
Y267717D02*
D03*
Y350394D02*
D03*
X100787Y362205D02*
D03*
Y368110D02*
D03*
X175984Y303937D02*
D03*
X183465D02*
D03*
X320866Y179921D02*
D03*
X131565Y231299D02*
D03*
Y225640D02*
D03*
X130037Y214567D02*
D03*
X149606Y189635D02*
D03*
X155512D02*
D03*
X165632Y204677D02*
D03*
X146653Y221457D02*
D03*
X129527Y218110D02*
D03*
X131565Y313976D02*
D03*
Y308317D02*
D03*
X130037Y297244D02*
D03*
X149606Y272313D02*
D03*
X155512D02*
D03*
X165632Y287354D02*
D03*
X146653Y304134D02*
D03*
X129527Y300787D02*
D03*
X98425Y207677D02*
D03*
X80709Y240158D02*
D03*
X84646D02*
D03*
X88583D02*
D03*
X92520D02*
D03*
Y207677D02*
D03*
X98425Y290354D02*
D03*
X80709Y322835D02*
D03*
X84646D02*
D03*
X88583D02*
D03*
X92520D02*
D03*
Y290354D02*
D03*
X85630Y363189D02*
D03*
X314173Y177953D02*
D03*
X340551Y188976D02*
D03*
X336614Y185433D02*
D03*
X397638Y174409D02*
D03*
X310097Y166090D02*
D03*
X310236Y169291D02*
D03*
X476378Y141535D02*
D03*
X453543Y151378D02*
D03*
Y148622D02*
D03*
Y145866D02*
D03*
Y143110D02*
D03*
Y156890D02*
D03*
X420079Y187205D02*
D03*
X309842Y212598D02*
D03*
X325984Y208661D02*
D03*
X465551Y124961D02*
D03*
X466929Y116142D02*
D03*
X442913Y187205D02*
D03*
X420079Y176181D02*
D03*
Y178937D02*
D03*
Y181693D02*
D03*
X457874Y225984D02*
D03*
Y218898D02*
D03*
X421654Y212598D02*
D03*
X431102Y228346D02*
D03*
X319685Y177165D02*
D03*
X309340Y215833D02*
D03*
X319576Y224100D02*
D03*
X104331Y382874D02*
D03*
X92520Y405512D02*
D03*
Y373031D02*
D03*
X98425D02*
D03*
X84646Y405512D02*
D03*
X88583D02*
D03*
X80709D02*
D03*
X405512Y154528D02*
D03*
X417323Y362402D02*
D03*
Y358071D02*
D03*
X547276Y350736D02*
D03*
X543276D02*
D03*
X335630Y237205D02*
D03*
X339567D02*
D03*
X453543Y154134D02*
D03*
X458268Y215354D02*
D03*
X465748Y205512D02*
D03*
X442919Y176181D02*
D03*
X442886Y178937D02*
D03*
Y181693D02*
D03*
X442886Y184449D02*
D03*
X269685Y236221D02*
D03*
X555512Y253150D02*
D03*
Y302362D02*
D03*
X279528Y296850D02*
D03*
X259055D02*
D03*
X279528Y357480D02*
D03*
X420079Y184449D02*
D03*
X476378Y151378D02*
D03*
Y154134D02*
D03*
Y148622D02*
D03*
Y145866D02*
D03*
Y156890D02*
D03*
X382677Y112992D02*
D03*
X361417Y100787D02*
D03*
Y111024D02*
D03*
X499803Y98819D02*
D03*
X492323Y86221D02*
D03*
X485433Y112992D02*
D03*
X371016Y96528D02*
D03*
Y106370D02*
D03*
X319929Y96386D02*
D03*
Y106228D02*
D03*
X538339Y113469D02*
D03*
X544339Y180124D02*
D03*
X540495Y163919D02*
D03*
X538696Y187008D02*
D03*
X535995Y163419D02*
D03*
X533858Y169291D02*
D03*
Y175197D02*
D03*
X526985Y177165D02*
D03*
X548425Y118110D02*
D03*
Y124016D02*
D03*
X541339Y127953D02*
D03*
X526378Y120079D02*
D03*
X419291Y346457D02*
D03*
X429134Y340551D02*
D03*
X411811Y386024D02*
D03*
Y382874D02*
D03*
X414524Y377677D02*
D03*
Y372177D02*
D03*
X446850Y338583D02*
D03*
X481299Y342520D02*
D03*
X474409Y389764D02*
D03*
X492126Y374016D02*
D03*
X482283Y372047D02*
D03*
X474409Y385827D02*
D03*
Y381890D02*
D03*
X488189Y374016D02*
D03*
X405024Y369177D02*
D03*
X409524D02*
D03*
X146653Y386811D02*
D03*
X130037Y379921D02*
D03*
X129527Y383465D02*
D03*
X131565Y396654D02*
D03*
Y390995D02*
D03*
X155512Y354990D02*
D03*
X165632Y370031D02*
D03*
X144882Y369685D02*
D03*
X149606Y354990D02*
D03*
X432283Y262598D02*
D03*
X410236Y211811D02*
D03*
X475394Y485236D02*
D03*
X478386Y498032D02*
D03*
X484252Y486031D02*
D03*
X480315Y457677D02*
D03*
X474409D02*
D03*
X468504Y431291D02*
D03*
X462598Y419480D02*
D03*
X402748Y449803D02*
D03*
X423622Y491339D02*
D03*
X426772D02*
D03*
X415748D02*
D03*
X418898D02*
D03*
X396063D02*
D03*
X399213D02*
D03*
X388189D02*
D03*
X391339D02*
D03*
X401378Y440354D02*
D03*
Y443504D02*
D03*
Y432480D02*
D03*
Y435630D02*
D03*
X464567Y460630D02*
D03*
X490158Y472047D02*
D03*
X480709Y428346D02*
D03*
X450394Y475197D02*
D03*
X450000Y472047D02*
D03*
X450394Y478346D02*
D03*
X462598Y244094D02*
D03*
X410630Y207480D02*
D03*
X461795Y224909D02*
D03*
Y232409D02*
D03*
X418110Y217323D02*
D03*
X394094Y292642D02*
D03*
X394189Y286282D02*
D03*
X601031Y175602D02*
D03*
X606031D02*
D03*
X611031D02*
D03*
X616031D02*
D03*
X621031D02*
D03*
Y117311D02*
D03*
X616031D02*
D03*
X611031D02*
D03*
X606031D02*
D03*
X601031D02*
D03*
X590551Y153937D02*
D03*
X587031Y131311D02*
D03*
X591531Y166311D02*
D03*
Y171811D02*
D03*
X577165Y153543D02*
D03*
X581031Y131811D02*
D03*
X576531Y171811D02*
D03*
Y166311D02*
D03*
X600031Y7811D02*
D03*
X426897Y273535D02*
D03*
X421397D02*
D03*
X477165Y242520D02*
D03*
X466535Y191929D02*
D03*
X460630D02*
D03*
X564055Y344488D02*
D03*
X554055D02*
D03*
X559055D02*
D03*
X415139Y230283D02*
D03*
X406639Y236709D02*
D03*
X394685Y273622D02*
D03*
Y267717D02*
D03*
Y261811D02*
D03*
D136*
X368707Y343563D02*
D03*
X374410Y334075D02*
D03*
X528740Y53937D02*
D03*
X533465Y288189D02*
D03*
X528543D02*
D03*
X533465Y318898D02*
D03*
Y293307D02*
D03*
Y313779D02*
D03*
X528740D02*
D03*
X523622D02*
D03*
X528543Y293307D02*
D03*
X554134Y179134D02*
D03*
D137*
X426575Y81299D02*
D03*
X432087D02*
D03*
X437598D02*
D03*
X426575Y75787D02*
D03*
X432087D02*
D03*
X437598D02*
D03*
X429331Y84213D02*
D03*
X434842D02*
D03*
X429331Y78701D02*
D03*
X434842D02*
D03*
X429331Y73189D02*
D03*
X434842D02*
D03*
X460693Y464567D02*
D03*
X452693D02*
D03*
X456693D02*
D03*
M02*
