G04*
G04 #@! TF.GenerationSoftware,Altium Limited,Altium Designer,24.5.1 (21)*
G04*
G04 Layer_Physical_Order=2*
G04 Layer_Color=16711680*
%FSLAX25Y25*%
%MOIN*%
G70*
G04*
G04 #@! TF.SameCoordinates,BF01A39B-E5BE-45C2-AD7E-2E88940229C6*
G04*
G04*
G04 #@! TF.FilePolarity,Positive*
G04*
G01*
G75*
%ADD12C,0.00787*%
%ADD13C,0.01968*%
%ADD15C,0.01181*%
%ADD141C,0.03937*%
%ADD143C,0.01575*%
%ADD146C,0.02480*%
%ADD147O,0.05118X0.02559*%
%ADD148C,0.02441*%
%ADD149R,0.06614X0.06614*%
%ADD150C,0.06614*%
%ADD151C,0.08661*%
%ADD152R,0.05906X0.05906*%
%ADD153C,0.05906*%
%ADD154C,0.05701*%
%ADD155R,0.05701X0.05701*%
%ADD156C,0.09567*%
%ADD157C,0.12992*%
%ADD158C,0.10236*%
%ADD159C,0.04724*%
%ADD160C,0.24410*%
%ADD161C,0.05512*%
%ADD162C,0.09843*%
%ADD163O,0.08000X0.16600*%
%ADD164O,0.16600X0.08000*%
%ADD165O,0.08000X0.17800*%
%ADD166C,0.01968*%
%ADD167C,0.03937*%
G36*
X322835Y405512D02*
Y330709D01*
X370079Y283465D01*
X397638D01*
X416833Y264269D01*
X416441Y263683D01*
X416304Y262992D01*
X416441Y262301D01*
X416501Y262212D01*
Y223780D01*
X408959Y216238D01*
X408571Y215658D01*
X385827Y192913D01*
X341755D01*
Y236153D01*
X341755Y236153D01*
X341664Y236614D01*
X341403Y237004D01*
X341345Y237062D01*
X341373Y237205D01*
X341236Y237896D01*
X340844Y238482D01*
X340258Y238874D01*
X339567Y239011D01*
X338876Y238874D01*
X338290Y238482D01*
X337898Y237896D01*
X337853Y237671D01*
X337344D01*
X337299Y237896D01*
X336907Y238482D01*
X336321Y238874D01*
X335630Y239011D01*
X334939Y238874D01*
X334353Y238482D01*
X333961Y237896D01*
X333823Y237205D01*
X333852Y237062D01*
X333391Y236816D01*
X331317Y238890D01*
X331334Y238976D01*
X331196Y239668D01*
X330805Y240254D01*
X330219Y240645D01*
X329528Y240783D01*
X328836Y240645D01*
X328250Y240254D01*
X327859Y239668D01*
X327721Y238976D01*
X327859Y238285D01*
X328250Y237699D01*
X328836Y237308D01*
X329528Y237170D01*
X329614Y237187D01*
X331473Y235328D01*
Y211807D01*
X330973Y211656D01*
X330805Y211907D01*
X321382Y221330D01*
Y224100D01*
X321245Y224792D01*
X320853Y225378D01*
X320267Y225769D01*
X319576Y225907D01*
X318885Y225769D01*
X318299Y225378D01*
X317907Y224792D01*
X317770Y224100D01*
Y220582D01*
X317907Y219890D01*
X318299Y219304D01*
X326801Y210802D01*
X326538Y210358D01*
X325984Y210468D01*
X325898Y210451D01*
X320733Y215615D01*
X320343Y215876D01*
X319882Y215968D01*
X319882Y215968D01*
X311119D01*
X311009Y216524D01*
X310617Y217110D01*
X310031Y217501D01*
X309340Y217639D01*
X308648Y217501D01*
X308062Y217110D01*
X307671Y216524D01*
X307533Y215833D01*
X307671Y215141D01*
X308062Y214555D01*
X308372Y214348D01*
X308547Y213920D01*
X308467Y213729D01*
X308174Y213290D01*
X308036Y212598D01*
X308174Y211907D01*
X308565Y211321D01*
X309151Y210930D01*
X309842Y210792D01*
X310534Y210930D01*
X311120Y211321D01*
X311169Y211394D01*
X318486D01*
X324072Y205809D01*
X324069Y205793D01*
X324206Y205102D01*
X324598Y204516D01*
X325184Y204124D01*
X325875Y203987D01*
X326566Y204124D01*
X327152Y204516D01*
X327221Y204619D01*
X327721Y204467D01*
Y196024D01*
X326085Y194387D01*
X325693Y193801D01*
X325556Y193110D01*
Y174247D01*
X322008D01*
X321491Y174764D01*
Y176028D01*
X321991Y176295D01*
X322295Y176092D01*
X322987Y175955D01*
X323678Y176092D01*
X324264Y176484D01*
X324655Y177070D01*
X324793Y177761D01*
X324655Y178453D01*
X324264Y179039D01*
X324236Y179057D01*
Y180818D01*
X324236Y180818D01*
X324144Y181279D01*
X323883Y181670D01*
X323883Y181670D01*
X322615Y182938D01*
X322224Y183199D01*
X321763Y183291D01*
X321763Y183291D01*
X313018D01*
X312557Y183199D01*
X312166Y182938D01*
X312166Y182938D01*
X309581Y180353D01*
X309320Y179963D01*
X309229Y179502D01*
X309229Y179502D01*
Y170749D01*
X308959Y170569D01*
X308567Y169983D01*
X308430Y169291D01*
X308567Y168600D01*
X308937Y168047D01*
X308999Y167900D01*
Y167487D01*
X308820Y167367D01*
X308428Y166781D01*
X308290Y166090D01*
X308428Y165398D01*
X308820Y164812D01*
X309257Y164520D01*
X308961Y164077D01*
X308823Y163386D01*
X308961Y162695D01*
X309353Y162109D01*
X309426Y162060D01*
Y155241D01*
X309426Y155241D01*
X309517Y154780D01*
X309778Y154389D01*
X310803Y153365D01*
Y149948D01*
X310730Y149899D01*
X310338Y149313D01*
X310201Y148622D01*
X310338Y147931D01*
X310730Y147345D01*
X311316Y146953D01*
X312007Y146815D01*
X312699Y146953D01*
X313285Y147345D01*
X313676Y147931D01*
X313814Y148622D01*
X313676Y149313D01*
X313285Y149899D01*
X313211Y149948D01*
Y153864D01*
X313120Y154324D01*
X312859Y154715D01*
X312859Y154715D01*
X311834Y155740D01*
Y162060D01*
X311907Y162109D01*
X312299Y162695D01*
X312436Y163386D01*
X312419Y163472D01*
X316993Y168046D01*
X316993Y168046D01*
X317254Y168437D01*
X317346Y168898D01*
X317346Y168898D01*
Y176378D01*
X317254Y176839D01*
X316993Y177229D01*
X316993Y177229D01*
X315965Y178257D01*
X315912Y178293D01*
X315888Y178414D01*
X316217Y178914D01*
X318213D01*
X318355Y178570D01*
X318389Y178414D01*
X318016Y177857D01*
X317879Y177165D01*
Y174016D01*
X318016Y173325D01*
X318408Y172738D01*
X319983Y171164D01*
X320569Y170772D01*
X321260Y170635D01*
X325556D01*
Y163772D01*
X325497Y163683D01*
X325359Y162992D01*
X325497Y162301D01*
X325888Y161715D01*
X326474Y161323D01*
X326586Y161301D01*
X326772Y161115D01*
Y149606D01*
X322835Y145669D01*
X185039D01*
X169291Y161417D01*
X3937D01*
Y417323D01*
X244658D01*
Y402288D01*
X244158Y402021D01*
X243801Y402259D01*
X243110Y402397D01*
X242419Y402259D01*
X241833Y401868D01*
X241441Y401282D01*
X241304Y400591D01*
X241441Y399899D01*
X241705Y399504D01*
Y373133D01*
X241441Y372739D01*
X241304Y372047D01*
X241441Y371356D01*
X241833Y370770D01*
X242419Y370378D01*
X243110Y370241D01*
X243801Y370378D01*
X244247Y370676D01*
X244587Y370735D01*
X244926Y370676D01*
X245372Y370378D01*
X246063Y370241D01*
X246754Y370378D01*
X247340Y370770D01*
X247732Y371356D01*
X247869Y372047D01*
X247732Y372739D01*
X247468Y373133D01*
Y417323D01*
X311024D01*
X322835Y405512D01*
D02*
G37*
G36*
X408430Y213728D02*
Y211811D01*
X408567Y211120D01*
X408959Y210534D01*
X410731Y208762D01*
X411172Y208467D01*
X412081Y207558D01*
X412376Y207116D01*
X415517Y203976D01*
Y186513D01*
X405018Y176015D01*
X398424D01*
X398329Y176078D01*
X397638Y176216D01*
X396947Y176078D01*
X396360Y175687D01*
X395969Y175101D01*
X395831Y174409D01*
X395969Y173718D01*
X396360Y173132D01*
X396947Y172741D01*
X397638Y172603D01*
X398329Y172741D01*
X398424Y172804D01*
X403906D01*
Y156133D01*
X376685D01*
X376652Y156633D01*
X377122Y156695D01*
X378036Y157074D01*
X378820Y157676D01*
X379422Y158460D01*
X379801Y159374D01*
X379864Y159854D01*
X376142D01*
X372419D01*
X372482Y159374D01*
X372861Y158460D01*
X373463Y157676D01*
X374248Y157074D01*
X375161Y156695D01*
X375631Y156633D01*
X375599Y156133D01*
X362634D01*
X359519Y159248D01*
X359594Y159429D01*
X359716Y160354D01*
X359594Y161279D01*
X359237Y162141D01*
X358669Y162881D01*
X357929Y163449D01*
X357067Y163806D01*
X356142Y163928D01*
X355217Y163806D01*
X354355Y163449D01*
X353615Y162881D01*
X353047Y162141D01*
X352972Y161960D01*
X330468D01*
X329169Y163260D01*
Y172441D01*
Y176688D01*
X329669Y177023D01*
X330118Y176934D01*
X330809Y177071D01*
X331395Y177463D01*
X331787Y178049D01*
X331819Y178210D01*
X332009Y178337D01*
X333529Y179857D01*
X333529Y179857D01*
X333790Y180248D01*
X333881Y180709D01*
X333881Y180709D01*
Y184275D01*
X334473Y184867D01*
X334989Y184676D01*
X335337Y184156D01*
X335923Y183764D01*
X336614Y183627D01*
X337305Y183764D01*
X337891Y184156D01*
X338283Y184742D01*
X338421Y185433D01*
X338283Y186124D01*
X337891Y186710D01*
X337818Y186759D01*
Y188212D01*
X338293Y188686D01*
X338835Y188522D01*
X338882Y188285D01*
X339274Y187699D01*
X339860Y187308D01*
X340551Y187170D01*
X341242Y187308D01*
X341828Y187699D01*
X342220Y188285D01*
X342357Y188976D01*
X342220Y189668D01*
X341828Y190254D01*
X341755Y190303D01*
Y192111D01*
X385827D01*
X385827Y192111D01*
X386134Y192172D01*
X386395Y192346D01*
X407968Y213919D01*
X408430Y213728D01*
D02*
G37*
G36*
X627914Y179114D02*
X584531D01*
X584224Y179053D01*
X583964Y178879D01*
X583790Y178618D01*
X583729Y178311D01*
X583729Y111311D01*
X583790Y111004D01*
X583964Y110743D01*
X584224Y110569D01*
X584531Y110508D01*
X627914Y110508D01*
X627914Y110008D01*
X627914Y2007D01*
X2007D01*
X2007Y161417D01*
X3134D01*
X3195Y161110D01*
X3369Y160850D01*
X3630Y160676D01*
X3937Y160615D01*
X168959D01*
X184472Y145102D01*
X184732Y144928D01*
X185039Y144867D01*
X282244D01*
X282561Y144392D01*
X283147Y144000D01*
X283839Y143863D01*
X284530Y144000D01*
X285116Y144392D01*
X285433Y144867D01*
X322835D01*
X323142Y144928D01*
X323402Y145102D01*
X323402Y145102D01*
X327339Y149039D01*
X327513Y149299D01*
X327574Y149606D01*
Y159659D01*
X328036Y159850D01*
X328668Y159219D01*
X328668Y159219D01*
X329189Y158871D01*
X329803Y158749D01*
X352972D01*
X353047Y158567D01*
X353615Y157827D01*
X354355Y157259D01*
X355217Y156902D01*
X356142Y156781D01*
X357067Y156902D01*
X357248Y156977D01*
X360833Y153392D01*
X360833Y153392D01*
X361354Y153044D01*
X361968Y152922D01*
X361968Y152922D01*
X404726D01*
X404820Y152859D01*
X405512Y152721D01*
X406203Y152859D01*
X406789Y153250D01*
X407181Y153836D01*
X407318Y154528D01*
X407181Y155219D01*
X407118Y155313D01*
Y173005D01*
X417927Y183815D01*
X418477Y183657D01*
X418801Y183171D01*
Y182970D01*
X418410Y182384D01*
X418272Y181693D01*
X418410Y181002D01*
X418801Y180416D01*
Y180214D01*
X418410Y179628D01*
X418272Y178937D01*
X418410Y178246D01*
X418801Y177660D01*
Y177458D01*
X418410Y176872D01*
X418272Y176181D01*
X418410Y175490D01*
X418801Y174904D01*
X419387Y174512D01*
X420079Y174375D01*
X420770Y174512D01*
X421356Y174904D01*
X421405Y174977D01*
X441593D01*
X441642Y174904D01*
X442228Y174512D01*
X442919Y174375D01*
X443610Y174512D01*
X444196Y174904D01*
X444588Y175490D01*
X444725Y176181D01*
X444588Y176872D01*
X444196Y177458D01*
X444164Y177480D01*
Y177660D01*
X444555Y178246D01*
X444693Y178937D01*
X444555Y179628D01*
X444164Y180214D01*
Y180416D01*
X444555Y181002D01*
X444693Y181693D01*
X444555Y182384D01*
X444323Y182732D01*
X444164Y183171D01*
X444555Y183758D01*
X444693Y184449D01*
X444555Y185140D01*
X444333Y185472D01*
X444191Y185927D01*
X444582Y186513D01*
X444720Y187205D01*
X444582Y187896D01*
X444191Y188482D01*
X443605Y188874D01*
X442913Y189011D01*
X442222Y188874D01*
X441636Y188482D01*
X441456Y188212D01*
X421536D01*
X421356Y188482D01*
X420770Y188874D01*
X420079Y189011D01*
X419629Y188922D01*
X419129Y189257D01*
Y200816D01*
X419291Y200950D01*
X462992D01*
X463683Y201087D01*
X464269Y201479D01*
X467025Y204235D01*
X467417Y204820D01*
X467554Y205512D01*
X467417Y206203D01*
X467025Y206789D01*
X466373Y207441D01*
Y223661D01*
X483159Y240447D01*
X483551Y241033D01*
X483688Y241724D01*
Y252370D01*
X483551Y253061D01*
X483159Y253647D01*
X482573Y254039D01*
X481882Y254176D01*
X481191Y254039D01*
X480605Y253647D01*
X480213Y253061D01*
X480076Y252370D01*
Y242473D01*
X463290Y225687D01*
X462898Y225101D01*
X462761Y224410D01*
Y206693D01*
X462898Y206002D01*
X463213Y205531D01*
X462244Y204562D01*
X420040D01*
X418600Y206002D01*
X415226Y209376D01*
X414931Y209818D01*
X413432Y211317D01*
X412990Y211612D01*
X412043Y212559D01*
Y214212D01*
X419584Y221754D01*
X419976Y222340D01*
X420113Y223031D01*
Y262795D01*
X419976Y263487D01*
X419584Y264073D01*
X419387Y264269D01*
X418801Y264661D01*
X418110Y264798D01*
X417515Y264680D01*
X417500Y264716D01*
X417445Y264771D01*
X417401Y264837D01*
X398205Y284032D01*
X397945Y284206D01*
X397638Y284267D01*
X370411D01*
X323638Y331041D01*
Y405512D01*
X323576Y405819D01*
X323402Y406079D01*
X323402Y406079D01*
X311591Y417891D01*
X311331Y418064D01*
X311024Y418126D01*
X247468D01*
X247161Y418064D01*
X246900Y417891D01*
X246726Y417630D01*
X246665Y417323D01*
X245461D01*
X245400Y417630D01*
X245226Y417891D01*
X244965Y418064D01*
X244658Y418126D01*
X3937D01*
X3630Y418064D01*
X3369Y417891D01*
X3195Y417630D01*
X3134Y417323D01*
X2007D01*
Y450749D01*
X318898D01*
X319666Y450902D01*
X320317Y451337D01*
X382721Y513741D01*
X627914D01*
X627914Y179114D01*
D02*
G37*
G36*
Y165778D02*
X627782Y165624D01*
X627773Y165619D01*
X627543Y165501D01*
X627438Y165474D01*
X627363Y165509D01*
X627339Y165515D01*
X627318Y165529D01*
X627239Y165560D01*
X627228Y165562D01*
X627218Y165568D01*
X627144Y165596D01*
X627119Y165600D01*
X627097Y165612D01*
X627018Y165635D01*
X626995Y165637D01*
X626973Y165647D01*
X626891Y165667D01*
X626876Y165667D01*
X626862Y165673D01*
X626783Y165689D01*
X626761Y165689D01*
X626740Y165696D01*
X626657Y165708D01*
X626619Y165706D01*
X626581Y165715D01*
X626416Y165723D01*
X626397Y165720D01*
X626378Y165724D01*
X624016D01*
X623997Y165720D01*
X623978Y165723D01*
X623812Y165715D01*
X623775Y165706D01*
X623737Y165708D01*
X623654Y165696D01*
X623633Y165689D01*
X623610Y165689D01*
X623532Y165673D01*
X623518Y165667D01*
X623503Y165667D01*
X623420Y165647D01*
X623399Y165637D01*
X623376Y165635D01*
X623297Y165612D01*
X623275Y165600D01*
X623250Y165596D01*
X623175Y165568D01*
X623166Y165562D01*
X623155Y165560D01*
X623076Y165529D01*
X623055Y165515D01*
X623030Y165509D01*
X622956Y165474D01*
X622934Y165458D01*
X622909Y165450D01*
X622838Y165410D01*
X622826Y165400D01*
X622810Y165394D01*
X622739Y165350D01*
X622731Y165343D01*
X622721Y165339D01*
X622654Y165296D01*
X622632Y165274D01*
X622603Y165260D01*
X622536Y165209D01*
X622518Y165188D01*
X622495Y165175D01*
X622432Y165120D01*
X622424Y165110D01*
X622413Y165103D01*
X622354Y165048D01*
X622348Y165039D01*
X622274Y164990D01*
X622207Y164890D01*
X622187Y164867D01*
X622174Y164844D01*
X622154Y164826D01*
X622102Y164759D01*
X622088Y164731D01*
X622066Y164708D01*
X622023Y164641D01*
X622019Y164631D01*
X622012Y164623D01*
X621969Y164552D01*
X621963Y164537D01*
X621952Y164524D01*
X621912Y164453D01*
X621910Y164445D01*
X621770Y164236D01*
X621693Y163846D01*
X622524D01*
X622547Y163909D01*
X622579Y163988D01*
X622614Y164063D01*
X622653Y164134D01*
X622697Y164205D01*
X622740Y164272D01*
X622791Y164339D01*
X622847Y164402D01*
X622902Y164461D01*
X622961Y164516D01*
X623024Y164571D01*
X623091Y164622D01*
X623158Y164665D01*
X623228Y164709D01*
X623299Y164748D01*
X623374Y164784D01*
X623453Y164815D01*
X623528Y164842D01*
X623606Y164866D01*
X623689Y164886D01*
X623768Y164902D01*
X623850Y164913D01*
X623933Y164917D01*
X624016Y164921D01*
X626378D01*
X626461Y164917D01*
X626543Y164913D01*
X626626Y164902D01*
X626705Y164886D01*
X626787Y164866D01*
X626866Y164842D01*
X626941Y164815D01*
X627020Y164784D01*
X627095Y164748D01*
X627165Y164709D01*
X627236Y164665D01*
X627303Y164622D01*
X627370Y164571D01*
X627433Y164516D01*
X627492Y164461D01*
X627547Y164402D01*
X627602Y164339D01*
X627654Y164272D01*
X627697Y164205D01*
X627740Y164134D01*
X627779Y164063D01*
X627815Y163988D01*
X627846Y163909D01*
X627874Y163835D01*
X627898Y163756D01*
X627917Y163673D01*
X627933Y163594D01*
X627945Y163512D01*
X627949Y163429D01*
X627953Y163347D01*
X627949Y163264D01*
X627945Y163181D01*
X627933Y163098D01*
X627917Y163020D01*
X627898Y162937D01*
X627874Y162858D01*
X627846Y162784D01*
X627815Y162705D01*
X627779Y162630D01*
X627740Y162559D01*
X627697Y162488D01*
X627654Y162421D01*
X627602Y162354D01*
X627547Y162291D01*
X627492Y162232D01*
X627433Y162177D01*
X627370Y162122D01*
X627303Y162071D01*
X627236Y162028D01*
X627165Y161984D01*
X627095Y161945D01*
X627020Y161909D01*
X626941Y161878D01*
X626866Y161850D01*
X626787Y161827D01*
X626705Y161807D01*
X626626Y161791D01*
X626543Y161779D01*
X626461Y161776D01*
X626378Y161772D01*
X624016D01*
X623933Y161776D01*
X623850Y161779D01*
X623768Y161791D01*
X623689Y161807D01*
X623606Y161827D01*
X623528Y161850D01*
X623453Y161878D01*
X623374Y161909D01*
X623299Y161945D01*
X623228Y161984D01*
X623158Y162028D01*
X623091Y162071D01*
X623024Y162122D01*
X622961Y162177D01*
X622902Y162232D01*
X622847Y162291D01*
X622791Y162354D01*
X622740Y162421D01*
X622697Y162488D01*
X622653Y162559D01*
X622614Y162630D01*
X622579Y162705D01*
X622547Y162784D01*
X622524Y162846D01*
X621693D01*
X621770Y162457D01*
X621910Y162248D01*
X621912Y162240D01*
X621952Y162169D01*
X621963Y162156D01*
X621969Y162140D01*
X622012Y162069D01*
X622019Y162062D01*
X622023Y162052D01*
X622066Y161985D01*
X622088Y161962D01*
X622102Y161934D01*
X622154Y161867D01*
X622174Y161849D01*
X622187Y161826D01*
X622207Y161803D01*
X622274Y161703D01*
X622151Y161252D01*
X622103Y161196D01*
X618842D01*
X618794Y161252D01*
X618671Y161703D01*
X618738Y161803D01*
X618758Y161826D01*
X618771Y161849D01*
X618791Y161867D01*
X618843Y161934D01*
X618856Y161962D01*
X618879Y161985D01*
X618922Y162052D01*
X618926Y162062D01*
X618933Y162069D01*
X618976Y162140D01*
X618982Y162156D01*
X618993Y162169D01*
X619032Y162240D01*
X619035Y162248D01*
X619175Y162457D01*
X619252Y162846D01*
X618421D01*
X618398Y162784D01*
X618366Y162705D01*
X618331Y162630D01*
X618291Y162559D01*
X618248Y162488D01*
X618205Y162421D01*
X618153Y162354D01*
X618098Y162291D01*
X618043Y162232D01*
X617984Y162177D01*
X617921Y162122D01*
X617854Y162071D01*
X617787Y162028D01*
X617717Y161984D01*
X617646Y161945D01*
X617571Y161909D01*
X617492Y161878D01*
X617417Y161850D01*
X617339Y161827D01*
X617256Y161807D01*
X617177Y161791D01*
X617095Y161779D01*
X617012Y161776D01*
X616929Y161772D01*
X616898D01*
X616866Y161768D01*
X616839Y161764D01*
X616807Y161760D01*
X616776Y161752D01*
X616748Y161744D01*
X616716Y161732D01*
X616689Y161721D01*
X616661Y161709D01*
X616634Y161693D01*
X616606Y161677D01*
X616583Y161658D01*
X616559Y161642D01*
X616535Y161618D01*
X616512Y161598D01*
X616492Y161575D01*
X616468Y161551D01*
X616453Y161528D01*
X616433Y161504D01*
X616417Y161476D01*
X616402Y161449D01*
X616390Y161421D01*
X616378Y161394D01*
X616366Y161362D01*
X616358Y161335D01*
X616350Y161303D01*
X616347Y161272D01*
X616342Y161244D01*
X616339Y161213D01*
Y160689D01*
X616335Y160602D01*
X616331Y160516D01*
X616319Y160429D01*
X616303Y160343D01*
X616284Y160256D01*
X616256Y160173D01*
X616228Y160091D01*
X616193Y160008D01*
X616157Y159929D01*
X616114Y159854D01*
X616067Y159780D01*
X616020Y159705D01*
X615965Y159638D01*
X615909Y159571D01*
X615850Y159504D01*
X615784Y159445D01*
X615717Y159390D01*
X615650Y159335D01*
X615575Y159287D01*
X615504Y159240D01*
X615425Y159197D01*
X615346Y159161D01*
X615264Y159126D01*
X615181Y159098D01*
X615098Y159071D01*
X615012Y159051D01*
X614925Y159035D01*
X614839Y159024D01*
X614752Y159020D01*
X614665Y159016D01*
X614579Y159020D01*
X614492Y159024D01*
X614405Y159035D01*
X614319Y159051D01*
X614232Y159071D01*
X614150Y159098D01*
X614067Y159126D01*
X613984Y159161D01*
X613905Y159197D01*
X613831Y159240D01*
X613756Y159287D01*
X613681Y159335D01*
X613614Y159390D01*
X613547Y159445D01*
X613480Y159504D01*
X613421Y159571D01*
X613366Y159638D01*
X613311Y159705D01*
X613264Y159780D01*
X613216Y159854D01*
X613173Y159929D01*
X613138Y160008D01*
X613102Y160091D01*
X613075Y160173D01*
X613047Y160256D01*
X613028Y160343D01*
X613012Y160429D01*
X613000Y160516D01*
X612996Y160602D01*
X612992Y160689D01*
Y162846D01*
X612189D01*
Y160811D01*
X612165Y160801D01*
X611689Y160728D01*
X611304Y161304D01*
X610634Y161752D01*
X609842Y161910D01*
X609051Y161752D01*
X608381Y161304D01*
X607933Y160634D01*
X607775Y159843D01*
X607933Y159051D01*
X608381Y158381D01*
X609051Y157933D01*
X609842Y157775D01*
X610634Y157933D01*
X611304Y158381D01*
X611752Y159051D01*
X611875Y159668D01*
X611888Y159673D01*
X612216Y159743D01*
X612393Y159708D01*
X612400Y159692D01*
X612404Y159686D01*
X612406Y159678D01*
X612441Y159600D01*
X612465Y159566D01*
X612478Y159527D01*
X612522Y159452D01*
X612532Y159440D01*
X612538Y159426D01*
X612632Y159276D01*
X612667Y159239D01*
X612691Y159194D01*
X612746Y159127D01*
X612746Y159127D01*
X612802Y159061D01*
X612812Y159052D01*
X612819Y159040D01*
X612878Y158973D01*
X612919Y158942D01*
X612949Y158902D01*
X613016Y158843D01*
X613028Y158836D01*
X613037Y158825D01*
X613171Y158715D01*
X613215Y158691D01*
X613252Y158656D01*
X613402Y158561D01*
X613417Y158556D01*
X613428Y158545D01*
X613503Y158502D01*
X613542Y158489D01*
X613576Y158465D01*
X613655Y158429D01*
X613662Y158428D01*
X613668Y158423D01*
X613751Y158388D01*
X613784Y158381D01*
X613813Y158364D01*
X613978Y158309D01*
X614018Y158304D01*
X614054Y158288D01*
X614141Y158268D01*
X614159Y158268D01*
X614175Y158261D01*
X614262Y158246D01*
X614280Y158246D01*
X614297Y158240D01*
X614384Y158228D01*
X614420Y158230D01*
X614456Y158222D01*
X614542Y158218D01*
X614542Y158218D01*
X614542Y158218D01*
X614629Y158214D01*
X614665Y158219D01*
X614702Y158214D01*
X614788Y158218D01*
X614788Y158218D01*
X614788Y158218D01*
X614875Y158222D01*
X614911Y158230D01*
X614947Y158228D01*
X615034Y158240D01*
X615051Y158246D01*
X615069Y158246D01*
X615156Y158261D01*
X615172Y158268D01*
X615190Y158268D01*
X615276Y158288D01*
X615313Y158304D01*
X615352Y158309D01*
X615390Y158322D01*
X615498Y158301D01*
X615774Y158143D01*
X615869Y158022D01*
X615890Y157977D01*
Y149742D01*
X615428Y149551D01*
X612097Y152882D01*
X612063Y153053D01*
X611671Y153639D01*
X611085Y154031D01*
X610394Y154169D01*
X609702Y154031D01*
X609116Y153639D01*
X608725Y153053D01*
X608587Y152362D01*
X608725Y151671D01*
X609116Y151085D01*
X609702Y150693D01*
X610394Y150556D01*
X610440Y150565D01*
X610972Y150034D01*
X610725Y149573D01*
X610383Y149641D01*
X609691Y149504D01*
X609105Y149112D01*
X608714Y148526D01*
X608599Y147950D01*
X608271Y147783D01*
X608089Y147753D01*
X606464Y149378D01*
X605724Y149945D01*
X604862Y150303D01*
X603937Y150424D01*
X603012Y150303D01*
X602150Y149945D01*
X601410Y149378D01*
X601184Y149152D01*
X600616Y148411D01*
X600259Y147549D01*
X600242Y147422D01*
X598486Y145667D01*
X597918Y144926D01*
X597561Y144064D01*
X597547Y143956D01*
X597335Y143445D01*
X597214Y142520D01*
X597335Y141595D01*
X597692Y140733D01*
X598260Y139993D01*
X599001Y139425D01*
X599862Y139068D01*
X600787Y138946D01*
X601712Y139068D01*
X601785Y139098D01*
X602184Y138722D01*
X602087Y138233D01*
X602224Y137541D01*
X602616Y136955D01*
X603202Y136564D01*
X603893Y136426D01*
X604585Y136564D01*
X605171Y136955D01*
X605562Y137541D01*
X605700Y138233D01*
X605609Y138687D01*
X605626Y138711D01*
X605688Y139024D01*
X606404Y139741D01*
X607424D01*
X607480Y139733D01*
X608930D01*
X609197Y139233D01*
X608961Y138880D01*
X608824Y138189D01*
X608961Y137498D01*
X609353Y136912D01*
X609939Y136520D01*
X610630Y136383D01*
X611321Y136520D01*
X611716Y136784D01*
X613189D01*
X613727Y136891D01*
X614182Y137196D01*
X615428Y138441D01*
X615890Y138250D01*
Y133361D01*
X615869Y133317D01*
X615774Y133196D01*
X615498Y133038D01*
X615390Y133017D01*
X615352Y133029D01*
X615313Y133034D01*
X615276Y133051D01*
X615190Y133070D01*
X615172Y133071D01*
X615156Y133077D01*
X615069Y133093D01*
X615051Y133093D01*
X615034Y133099D01*
X614947Y133110D01*
X614911Y133108D01*
X614875Y133117D01*
X614788Y133121D01*
X614788Y133121D01*
X614788Y133121D01*
X614702Y133125D01*
X614665Y133119D01*
X614629Y133125D01*
X614542Y133121D01*
X614542Y133121D01*
X614542Y133121D01*
X614456Y133117D01*
X614420Y133108D01*
X614384Y133110D01*
X614297Y133099D01*
X614280Y133093D01*
X614262Y133093D01*
X614175Y133077D01*
X614159Y133071D01*
X614141Y133070D01*
X614054Y133051D01*
X614018Y133034D01*
X613978Y133029D01*
X613813Y132974D01*
X613784Y132957D01*
X613751Y132950D01*
X613668Y132915D01*
X613662Y132911D01*
X613655Y132909D01*
X613576Y132874D01*
X613542Y132850D01*
X613503Y132836D01*
X613428Y132793D01*
X613417Y132783D01*
X613402Y132777D01*
X613252Y132683D01*
X613216Y132648D01*
X613171Y132624D01*
X613104Y132569D01*
X613104Y132569D01*
X613037Y132513D01*
X613028Y132503D01*
X613016Y132496D01*
X612949Y132437D01*
X612919Y132396D01*
X612878Y132366D01*
X612819Y132299D01*
X612812Y132287D01*
X612802Y132278D01*
X612691Y132144D01*
X612667Y132099D01*
X612632Y132062D01*
X612538Y131913D01*
X612532Y131898D01*
X612522Y131886D01*
X612478Y131812D01*
X612465Y131773D01*
X612441Y131739D01*
X612406Y131660D01*
X612404Y131653D01*
X612400Y131647D01*
X612393Y131631D01*
X612216Y131596D01*
X611888Y131666D01*
X611875Y131670D01*
X611752Y132287D01*
X611304Y132958D01*
X610634Y133406D01*
X609842Y133563D01*
X609051Y133406D01*
X608381Y132958D01*
X607933Y132287D01*
X607775Y131496D01*
X607933Y130705D01*
X608381Y130034D01*
X609051Y129586D01*
X609842Y129429D01*
X610634Y129586D01*
X611304Y130034D01*
X611689Y130611D01*
X612165Y130537D01*
X612189Y130527D01*
Y128492D01*
X612992D01*
Y130650D01*
X612996Y130736D01*
X613000Y130823D01*
X613012Y130909D01*
X613028Y130996D01*
X613047Y131083D01*
X613075Y131165D01*
X613102Y131248D01*
X613138Y131331D01*
X613173Y131409D01*
X613216Y131484D01*
X613264Y131559D01*
X613311Y131634D01*
X613366Y131701D01*
X613421Y131768D01*
X613480Y131835D01*
X613547Y131894D01*
X613614Y131949D01*
X613681Y132004D01*
X613756Y132051D01*
X613831Y132098D01*
X613905Y132142D01*
X613984Y132177D01*
X614067Y132213D01*
X614150Y132240D01*
X614232Y132268D01*
X614319Y132287D01*
X614405Y132303D01*
X614492Y132315D01*
X614579Y132319D01*
X614665Y132323D01*
X614752Y132319D01*
X614839Y132315D01*
X614925Y132303D01*
X615012Y132287D01*
X615098Y132268D01*
X615181Y132240D01*
X615264Y132213D01*
X615346Y132177D01*
X615425Y132142D01*
X615504Y132098D01*
X615575Y132051D01*
X615650Y132004D01*
X615717Y131949D01*
X615784Y131894D01*
X615850Y131835D01*
X615909Y131768D01*
X615965Y131701D01*
X616020Y131634D01*
X616067Y131559D01*
X616114Y131484D01*
X616157Y131409D01*
X616193Y131331D01*
X616228Y131248D01*
X616256Y131165D01*
X616284Y131083D01*
X616303Y130996D01*
X616319Y130909D01*
X616331Y130823D01*
X616335Y130736D01*
X616339Y130650D01*
Y130126D01*
X616342Y130095D01*
X616347Y130067D01*
X616350Y130035D01*
X616358Y130004D01*
X616366Y129976D01*
X616378Y129945D01*
X616390Y129917D01*
X616402Y129890D01*
X616417Y129862D01*
X616433Y129835D01*
X616453Y129811D01*
X616468Y129787D01*
X616492Y129764D01*
X616512Y129740D01*
X616535Y129720D01*
X616559Y129697D01*
X616583Y129681D01*
X616606Y129661D01*
X616634Y129646D01*
X616661Y129630D01*
X616689Y129618D01*
X616716Y129606D01*
X616748Y129595D01*
X616776Y129587D01*
X616807Y129579D01*
X616839Y129575D01*
X616866Y129571D01*
X616898Y129567D01*
X616929D01*
X617012Y129563D01*
X617095Y129559D01*
X617177Y129547D01*
X617256Y129532D01*
X617339Y129512D01*
X617417Y129488D01*
X617492Y129461D01*
X617571Y129429D01*
X617646Y129394D01*
X617717Y129354D01*
X617787Y129311D01*
X617854Y129268D01*
X617921Y129217D01*
X617984Y129161D01*
X618043Y129106D01*
X618098Y129047D01*
X618153Y128984D01*
X618205Y128917D01*
X618248Y128850D01*
X618291Y128779D01*
X618331Y128709D01*
X618366Y128634D01*
X618398Y128555D01*
X618421Y128492D01*
X619252D01*
X619175Y128882D01*
X619035Y129091D01*
X619032Y129098D01*
X618993Y129169D01*
X618982Y129182D01*
X618976Y129198D01*
X618933Y129269D01*
X618926Y129277D01*
X618922Y129287D01*
X618879Y129353D01*
X618856Y129376D01*
X618843Y129405D01*
X618791Y129472D01*
X618771Y129490D01*
X618758Y129513D01*
X618738Y129536D01*
X618671Y129636D01*
X618794Y130087D01*
X618842Y130142D01*
X622103D01*
X622151Y130087D01*
X622274Y129636D01*
X622207Y129536D01*
X622187Y129513D01*
X622174Y129490D01*
X622154Y129472D01*
X622102Y129405D01*
X622088Y129376D01*
X622066Y129353D01*
X622023Y129287D01*
X622019Y129277D01*
X622012Y129269D01*
X621969Y129198D01*
X621963Y129182D01*
X621952Y129169D01*
X621912Y129098D01*
X621910Y129091D01*
X621770Y128882D01*
X621693Y128492D01*
X622524D01*
X622547Y128555D01*
X622579Y128634D01*
X622614Y128709D01*
X622653Y128779D01*
X622697Y128850D01*
X622740Y128917D01*
X622791Y128984D01*
X622847Y129047D01*
X622902Y129106D01*
X622961Y129161D01*
X623024Y129217D01*
X623091Y129268D01*
X623158Y129311D01*
X623228Y129354D01*
X623299Y129394D01*
X623374Y129429D01*
X623453Y129461D01*
X623528Y129488D01*
X623606Y129512D01*
X623689Y129532D01*
X623768Y129547D01*
X623850Y129559D01*
X623933Y129563D01*
X624016Y129567D01*
X626378D01*
X626461Y129563D01*
X626543Y129559D01*
X626626Y129547D01*
X626705Y129532D01*
X626787Y129512D01*
X626866Y129488D01*
X626941Y129461D01*
X627020Y129429D01*
X627095Y129394D01*
X627165Y129354D01*
X627236Y129311D01*
X627303Y129268D01*
X627370Y129217D01*
X627433Y129161D01*
X627492Y129106D01*
X627547Y129047D01*
X627602Y128984D01*
X627654Y128917D01*
X627697Y128850D01*
X627740Y128779D01*
X627779Y128709D01*
X627815Y128634D01*
X627846Y128555D01*
X627874Y128480D01*
X627898Y128402D01*
X627917Y128319D01*
X627933Y128240D01*
X627945Y128157D01*
X627949Y128075D01*
X627953Y127992D01*
X627949Y127909D01*
X627945Y127827D01*
X627933Y127744D01*
X627917Y127665D01*
X627898Y127583D01*
X627874Y127504D01*
X627846Y127429D01*
X627815Y127350D01*
X627779Y127276D01*
X627740Y127205D01*
X627697Y127134D01*
X627654Y127067D01*
X627602Y127000D01*
X627547Y126937D01*
X627492Y126878D01*
X627433Y126823D01*
X627370Y126768D01*
X627303Y126716D01*
X627236Y126673D01*
X627165Y126630D01*
X627095Y126591D01*
X627020Y126555D01*
X626941Y126524D01*
X626866Y126496D01*
X626787Y126472D01*
X626705Y126453D01*
X626626Y126437D01*
X626543Y126425D01*
X626461Y126421D01*
X626378Y126417D01*
X624016D01*
X623933Y126421D01*
X623850Y126425D01*
X623768Y126437D01*
X623689Y126453D01*
X623606Y126472D01*
X623528Y126496D01*
X623453Y126524D01*
X623374Y126555D01*
X623299Y126591D01*
X623228Y126630D01*
X623158Y126673D01*
X623091Y126716D01*
X623024Y126768D01*
X622961Y126823D01*
X622902Y126878D01*
X622847Y126937D01*
X622791Y127000D01*
X622740Y127067D01*
X622697Y127134D01*
X622653Y127205D01*
X622614Y127276D01*
X622579Y127350D01*
X622547Y127429D01*
X622524Y127492D01*
X621693D01*
X621770Y127103D01*
X621910Y126893D01*
X621912Y126886D01*
X621952Y126815D01*
X621963Y126802D01*
X621969Y126786D01*
X622012Y126715D01*
X622019Y126707D01*
X622023Y126698D01*
X622066Y126631D01*
X622088Y126608D01*
X622102Y126579D01*
X622154Y126512D01*
X622174Y126495D01*
X622187Y126471D01*
X622207Y126448D01*
X622274Y126349D01*
X622348Y126299D01*
X622354Y126291D01*
X622413Y126236D01*
X622424Y126229D01*
X622432Y126219D01*
X622495Y126163D01*
X622518Y126150D01*
X622536Y126130D01*
X622603Y126079D01*
X622632Y126065D01*
X622654Y126042D01*
X622721Y125999D01*
X622731Y125995D01*
X622739Y125988D01*
X622810Y125945D01*
X622826Y125939D01*
X622838Y125928D01*
X622909Y125889D01*
X622934Y125881D01*
X622956Y125865D01*
X623030Y125830D01*
X623055Y125823D01*
X623076Y125810D01*
X623155Y125778D01*
X623166Y125776D01*
X623175Y125770D01*
X623250Y125743D01*
X623275Y125739D01*
X623297Y125727D01*
X623376Y125704D01*
X623399Y125701D01*
X623420Y125691D01*
X623503Y125672D01*
X623518Y125671D01*
X623532Y125665D01*
X623610Y125650D01*
X623633Y125650D01*
X623654Y125642D01*
X623737Y125630D01*
X623775Y125633D01*
X623812Y125623D01*
X623978Y125615D01*
X623997Y125618D01*
X624016Y125615D01*
X626378D01*
X626397Y125618D01*
X626416Y125615D01*
X626581Y125623D01*
X626619Y125633D01*
X626657Y125630D01*
X626740Y125642D01*
X626761Y125650D01*
X626783Y125650D01*
X626862Y125665D01*
X626876Y125671D01*
X626891Y125672D01*
X626973Y125691D01*
X626995Y125701D01*
X627018Y125704D01*
X627097Y125727D01*
X627119Y125739D01*
X627144Y125743D01*
X627218Y125770D01*
X627228Y125776D01*
X627239Y125778D01*
X627318Y125810D01*
X627339Y125823D01*
X627363Y125830D01*
X627438Y125865D01*
X627543Y125838D01*
X627773Y125720D01*
X627782Y125715D01*
X627914Y125561D01*
Y111311D01*
X584531Y111311D01*
X584531Y178311D01*
X627914D01*
Y165778D01*
D02*
G37*
%LPC*%
G36*
X40303Y411791D02*
Y406524D01*
X45571D01*
X45438Y407533D01*
X44855Y408940D01*
X43928Y410148D01*
X42720Y411075D01*
X41313Y411658D01*
X40303Y411791D01*
D02*
G37*
G36*
X39303Y411791D02*
X38293Y411658D01*
X36887Y411075D01*
X35678Y410148D01*
X34751Y408940D01*
X34168Y407533D01*
X34036Y406524D01*
X39303D01*
Y411791D01*
D02*
G37*
G36*
Y405524D02*
X34036D01*
X34168Y404514D01*
X34751Y403107D01*
X35678Y401899D01*
X36887Y400972D01*
X38293Y400389D01*
X39303Y400256D01*
Y405524D01*
D02*
G37*
G36*
X45571D02*
X40303D01*
Y400256D01*
X41313Y400389D01*
X42720Y400972D01*
X43928Y401899D01*
X44855Y403107D01*
X45438Y404514D01*
X45571Y405524D01*
D02*
G37*
G36*
X11811Y406334D02*
X10383Y406194D01*
X9010Y405777D01*
X7745Y405101D01*
X6636Y404191D01*
X5726Y403082D01*
X5049Y401817D01*
X4633Y400444D01*
X4492Y399016D01*
X4633Y397588D01*
X5049Y396215D01*
X5726Y394950D01*
X6636Y393841D01*
X7745Y392931D01*
X9010Y392254D01*
X10383Y391838D01*
X11811Y391697D01*
X13239Y391838D01*
X14612Y392254D01*
X15877Y392931D01*
X16986Y393841D01*
X17896Y394950D01*
X18573Y396215D01*
X18989Y397588D01*
X19130Y399016D01*
X18989Y400444D01*
X18573Y401817D01*
X17896Y403082D01*
X16986Y404191D01*
X15877Y405101D01*
X14612Y405777D01*
X13239Y406194D01*
X11811Y406334D01*
D02*
G37*
G36*
X146653Y388617D02*
X145962Y388480D01*
X145562Y388212D01*
X131496D01*
X131496Y388212D01*
X131035Y388120D01*
X130645Y387859D01*
X128676Y385891D01*
X128415Y385500D01*
X128323Y385039D01*
X128323Y385039D01*
Y384791D01*
X128250Y384742D01*
X127859Y384156D01*
X127721Y383465D01*
X127859Y382773D01*
X128250Y382187D01*
X128836Y381796D01*
X129527Y381658D01*
X130219Y381796D01*
X130805Y382187D01*
X131196Y382773D01*
X131334Y383465D01*
X131196Y384156D01*
X130856Y384665D01*
X131995Y385804D01*
X145196D01*
X145376Y385534D01*
X145962Y385142D01*
X146653Y385005D01*
X147345Y385142D01*
X147931Y385534D01*
X148322Y386120D01*
X148460Y386811D01*
X148322Y387502D01*
X147931Y388088D01*
X147345Y388480D01*
X146653Y388617D01*
D02*
G37*
G36*
X51079Y398303D02*
X37504D01*
Y384728D01*
X41681D01*
X41851Y384228D01*
X41697Y384110D01*
X41114Y383350D01*
X40747Y382465D01*
X40622Y381516D01*
X40747Y380566D01*
X41114Y379681D01*
X41697Y378921D01*
X42457Y378338D01*
X43342Y377972D01*
X44291Y377847D01*
X45241Y377972D01*
X46126Y378338D01*
X46886Y378921D01*
X47469Y379681D01*
X47835Y380566D01*
X47960Y381516D01*
X47835Y382465D01*
X47469Y383350D01*
X46886Y384110D01*
X46732Y384228D01*
X46902Y384728D01*
X51079D01*
X51113Y384684D01*
X51114Y384681D01*
X51697Y383921D01*
X52457Y383338D01*
X53342Y382972D01*
X54291Y382847D01*
X55241Y382972D01*
X56126Y383338D01*
X56886Y383921D01*
X57469Y384681D01*
X57836Y385566D01*
X57960Y386516D01*
X57836Y387465D01*
X57469Y388350D01*
X56886Y389110D01*
X56126Y389693D01*
X55241Y390060D01*
X54291Y390185D01*
X53342Y390060D01*
X52457Y389693D01*
X51697Y389110D01*
X51579Y388956D01*
X51079Y389126D01*
Y398303D01*
D02*
G37*
G36*
X54291Y380185D02*
X53342Y380060D01*
X52457Y379693D01*
X51697Y379110D01*
X51114Y378350D01*
X50747Y377465D01*
X50622Y376516D01*
X50747Y375566D01*
X51114Y374681D01*
X51697Y373921D01*
X52457Y373338D01*
X53342Y372972D01*
X54291Y372847D01*
X55241Y372972D01*
X56126Y373338D01*
X56886Y373921D01*
X57469Y374681D01*
X57836Y375566D01*
X57960Y376516D01*
X57836Y377465D01*
X57469Y378350D01*
X56886Y379110D01*
X56126Y379693D01*
X55241Y380060D01*
X54291Y380185D01*
D02*
G37*
G36*
X55961Y371751D02*
X55961Y371751D01*
X52622D01*
X52621Y371751D01*
X52161Y371660D01*
X51770Y371399D01*
X51770Y371399D01*
X47717Y367346D01*
X31838D01*
X31789Y367419D01*
X31203Y367811D01*
X30512Y367948D01*
X29820Y367811D01*
X29234Y367419D01*
X28843Y366833D01*
X28705Y366142D01*
X28843Y365451D01*
X29234Y364864D01*
X29820Y364473D01*
X30512Y364335D01*
X31203Y364473D01*
X31789Y364864D01*
X31838Y364937D01*
X41954D01*
X42123Y364438D01*
X41697Y364110D01*
X41114Y363350D01*
X40747Y362465D01*
X40622Y361516D01*
X40747Y360566D01*
X40993Y359972D01*
X40670Y359472D01*
X34791D01*
X34742Y359545D01*
X34156Y359937D01*
X33465Y360074D01*
X32773Y359937D01*
X32187Y359545D01*
X31796Y358959D01*
X31658Y358268D01*
X31796Y357576D01*
X32187Y356990D01*
X32773Y356599D01*
X33465Y356461D01*
X34156Y356599D01*
X34742Y356990D01*
X34791Y357064D01*
X41339D01*
X41770Y356633D01*
X41770Y356633D01*
X42161Y356372D01*
X42621Y356280D01*
X46154D01*
X46155Y356280D01*
X46615Y356372D01*
X47006Y356633D01*
X51653Y361280D01*
X54189D01*
X54854Y360615D01*
X54620Y360142D01*
X54291Y360185D01*
X53342Y360060D01*
X52457Y359693D01*
X51697Y359110D01*
X51114Y358350D01*
X50747Y357465D01*
X50622Y356516D01*
X50747Y355566D01*
X51114Y354681D01*
X51492Y354188D01*
X51245Y353689D01*
X25967D01*
X25458Y354198D01*
X25067Y354459D01*
X24606Y354551D01*
X24606Y354551D01*
X21995D01*
X21947Y354624D01*
X21361Y355015D01*
X20669Y355153D01*
X19978Y355015D01*
X19392Y354624D01*
X19000Y354038D01*
X18863Y353346D01*
X19000Y352655D01*
X19392Y352069D01*
X19978Y351678D01*
X20669Y351540D01*
X21361Y351678D01*
X21947Y352069D01*
X21995Y352142D01*
X24107D01*
X24617Y351633D01*
X25008Y351372D01*
X25469Y351280D01*
X25469Y351280D01*
X26270D01*
X26421Y350780D01*
X26282Y350687D01*
X25890Y350101D01*
X25753Y349410D01*
X25890Y348718D01*
X26282Y348132D01*
X26868Y347741D01*
X27559Y347603D01*
X28250Y347741D01*
X28836Y348132D01*
X28885Y348205D01*
X38737D01*
X38770Y347705D01*
X38293Y347642D01*
X36887Y347060D01*
X35678Y346133D01*
X34751Y344925D01*
X34168Y343518D01*
X34036Y342508D01*
X39803D01*
X45571D01*
X45438Y343518D01*
X44855Y344925D01*
X43928Y346133D01*
X42720Y347060D01*
X41313Y347642D01*
X40837Y347705D01*
X40869Y348205D01*
X101378D01*
X101378Y348205D01*
X101839Y348297D01*
X102229Y348558D01*
X102276Y348604D01*
X102362Y348587D01*
X103053Y348725D01*
X103639Y349116D01*
X104031Y349702D01*
X104169Y350394D01*
X104031Y351085D01*
X103639Y351671D01*
X103053Y352063D01*
X102362Y352200D01*
X101671Y352063D01*
X101085Y351671D01*
X100693Y351085D01*
X100600Y350614D01*
X29158D01*
X29023Y350780D01*
X29261Y351280D01*
X71818D01*
X71818Y351280D01*
X72279Y351372D01*
X72670Y351633D01*
X72899Y351862D01*
X72899Y351862D01*
X73090Y352149D01*
X74354Y353413D01*
X74441Y353396D01*
X75132Y353533D01*
X75718Y353925D01*
X76110Y354511D01*
X76247Y355202D01*
X76110Y355893D01*
X75718Y356479D01*
X75132Y356871D01*
X74441Y357009D01*
X73749Y356871D01*
X73163Y356479D01*
X72772Y355893D01*
X72634Y355202D01*
X72651Y355116D01*
X71224Y353689D01*
X57337D01*
X57091Y354188D01*
X57469Y354681D01*
X57836Y355566D01*
X57960Y356516D01*
X57836Y357465D01*
X57469Y358350D01*
X57290Y358583D01*
X57511Y359032D01*
X88583D01*
X88583Y359032D01*
X89043Y359124D01*
X89434Y359385D01*
X91050Y361000D01*
X99461D01*
X99510Y360927D01*
X100096Y360536D01*
X100787Y360398D01*
X101479Y360536D01*
X102065Y360927D01*
X102456Y361513D01*
X102594Y362205D01*
X102456Y362896D01*
X102065Y363482D01*
X101479Y363874D01*
X100787Y364011D01*
X100096Y363874D01*
X99510Y363482D01*
X99461Y363409D01*
X90551D01*
X90551Y363409D01*
X90090Y363317D01*
X89700Y363056D01*
X88084Y361440D01*
X87102D01*
X86960Y361784D01*
X86926Y361941D01*
X87299Y362498D01*
X87436Y363189D01*
X87299Y363880D01*
X86907Y364466D01*
X86321Y364858D01*
X85630Y364995D01*
X85544Y364978D01*
X84078Y366444D01*
X84269Y366906D01*
X99461D01*
X99510Y366833D01*
X100096Y366441D01*
X100787Y366304D01*
X101479Y366441D01*
X102065Y366833D01*
X102456Y367419D01*
X102594Y368110D01*
X102456Y368801D01*
X102065Y369388D01*
X101479Y369779D01*
X100787Y369917D01*
X100096Y369779D01*
X99510Y369388D01*
X99461Y369315D01*
X58897D01*
X56813Y371399D01*
X56422Y371660D01*
X55961Y371751D01*
D02*
G37*
G36*
X257874Y399444D02*
X257183Y399307D01*
X256597Y398915D01*
X256205Y398329D01*
X256068Y397638D01*
Y372047D01*
X256205Y371356D01*
X256597Y370770D01*
X257183Y370378D01*
X257874Y370241D01*
X258565Y370378D01*
X259151Y370770D01*
X259543Y371356D01*
X259680Y372047D01*
Y397638D01*
X259543Y398329D01*
X259151Y398915D01*
X258565Y399307D01*
X257874Y399444D01*
D02*
G37*
G36*
X104331Y384680D02*
X103639Y384543D01*
X103053Y384151D01*
X102662Y383565D01*
X102524Y382874D01*
X102662Y382183D01*
X103053Y381597D01*
X103639Y381205D01*
X104331Y381068D01*
X104417Y381085D01*
X116274Y369227D01*
X116665Y368966D01*
X117126Y368875D01*
X117126Y368875D01*
X143293D01*
X143605Y368408D01*
X144191Y368016D01*
X144882Y367879D01*
X145573Y368016D01*
X146159Y368408D01*
X146551Y368994D01*
X146688Y369685D01*
X146551Y370376D01*
X146159Y370962D01*
X145573Y371354D01*
X144882Y371491D01*
X144191Y371354D01*
X144026Y371244D01*
X143830Y371283D01*
X143830Y371283D01*
X117625D01*
X106120Y382788D01*
X106137Y382874D01*
X106000Y383565D01*
X105608Y384151D01*
X105022Y384543D01*
X104331Y384680D01*
D02*
G37*
G36*
X44291Y375185D02*
X43342Y375060D01*
X42457Y374693D01*
X41697Y374110D01*
X41500Y373854D01*
X23622D01*
X22931Y373716D01*
X22345Y373324D01*
X21953Y372739D01*
X21816Y372047D01*
X21953Y371356D01*
X22345Y370770D01*
X22931Y370378D01*
X23622Y370241D01*
X40882D01*
X41114Y369681D01*
X41697Y368921D01*
X42457Y368338D01*
X43342Y367972D01*
X44291Y367847D01*
X45241Y367972D01*
X46126Y368338D01*
X46886Y368921D01*
X47469Y369681D01*
X47835Y370566D01*
X47960Y371516D01*
X47835Y372465D01*
X47469Y373350D01*
X46886Y374110D01*
X46126Y374693D01*
X45241Y375060D01*
X44291Y375185D01*
D02*
G37*
G36*
X196850Y360074D02*
X196159Y359937D01*
X195573Y359545D01*
X195524Y359472D01*
X178491D01*
X178443Y359545D01*
X177857Y359937D01*
X177165Y360074D01*
X176474Y359937D01*
X175888Y359545D01*
X175496Y358959D01*
X175359Y358268D01*
X175496Y357576D01*
X175888Y356990D01*
X176474Y356599D01*
X177165Y356461D01*
X177857Y356599D01*
X178443Y356990D01*
X178491Y357064D01*
X195524D01*
X195573Y356990D01*
X196159Y356599D01*
X196850Y356461D01*
X197542Y356599D01*
X198128Y356990D01*
X198519Y357576D01*
X198657Y358268D01*
X198519Y358959D01*
X198128Y359545D01*
X197542Y359937D01*
X196850Y360074D01*
D02*
G37*
G36*
X255906D02*
X255214Y359937D01*
X254628Y359545D01*
X254237Y358959D01*
X254099Y358268D01*
X254237Y357576D01*
X254628Y356990D01*
X255214Y356599D01*
X255906Y356461D01*
X256597Y356599D01*
X257183Y356990D01*
X257232Y357064D01*
X277804D01*
X277859Y356789D01*
X278250Y356203D01*
X278836Y355812D01*
X279528Y355674D01*
X280219Y355812D01*
X280805Y356203D01*
X281196Y356789D01*
X281334Y357480D01*
X281196Y358172D01*
X280805Y358758D01*
X280219Y359149D01*
X279528Y359287D01*
X279180Y359218D01*
X278937Y359380D01*
X278476Y359472D01*
X278476Y359472D01*
X257232D01*
X257183Y359545D01*
X256597Y359937D01*
X255906Y360074D01*
D02*
G37*
G36*
X11811Y356334D02*
X10383Y356194D01*
X9010Y355777D01*
X7745Y355101D01*
X6636Y354191D01*
X5726Y353082D01*
X5049Y351817D01*
X4633Y350444D01*
X4492Y349016D01*
X4633Y347588D01*
X5049Y346215D01*
X5726Y344950D01*
X6636Y343841D01*
X7745Y342931D01*
X9010Y342254D01*
X10383Y341838D01*
X11811Y341697D01*
X13239Y341838D01*
X14612Y342254D01*
X15877Y342931D01*
X16986Y343841D01*
X17896Y344950D01*
X18573Y346215D01*
X18989Y347588D01*
X19130Y349016D01*
X18989Y350444D01*
X18573Y351817D01*
X17896Y353082D01*
X16986Y354191D01*
X15877Y355101D01*
X14612Y355777D01*
X13239Y356194D01*
X11811Y356334D01*
D02*
G37*
G36*
X298228Y340389D02*
X263779D01*
X263088Y340251D01*
X262502Y339860D01*
X262111Y339274D01*
X261973Y338583D01*
X262111Y337891D01*
X262502Y337305D01*
X263088Y336914D01*
X263779Y336776D01*
X298228D01*
X298920Y336914D01*
X299506Y337305D01*
X299897Y337891D01*
X300035Y338583D01*
X299897Y339274D01*
X299506Y339860D01*
X298920Y340251D01*
X298228Y340389D01*
D02*
G37*
G36*
X39303Y341508D02*
X34036D01*
X34168Y340498D01*
X34751Y339091D01*
X35678Y337883D01*
X36887Y336956D01*
X38293Y336373D01*
X39303Y336240D01*
Y341508D01*
D02*
G37*
G36*
X45571D02*
X40303D01*
Y336240D01*
X41313Y336373D01*
X42720Y336956D01*
X43928Y337883D01*
X44855Y339091D01*
X45438Y340498D01*
X45571Y341508D01*
D02*
G37*
G36*
X40303Y329114D02*
Y323847D01*
X45571D01*
X45438Y324856D01*
X44855Y326263D01*
X43928Y327471D01*
X42720Y328398D01*
X41313Y328981D01*
X40303Y329114D01*
D02*
G37*
G36*
X39303D02*
X38293Y328981D01*
X36887Y328398D01*
X35678Y327471D01*
X34751Y326263D01*
X34168Y324856D01*
X34036Y323847D01*
X39303D01*
Y329114D01*
D02*
G37*
G36*
X45571Y322847D02*
X40303D01*
Y317579D01*
X41313Y317712D01*
X42720Y318295D01*
X43928Y319222D01*
X44855Y320430D01*
X45438Y321837D01*
X45571Y322847D01*
D02*
G37*
G36*
X39303D02*
X34036D01*
X34168Y321837D01*
X34751Y320430D01*
X35678Y319222D01*
X36887Y318295D01*
X38293Y317712D01*
X39303Y317579D01*
Y322847D01*
D02*
G37*
G36*
X11811Y323657D02*
X10383Y323517D01*
X9010Y323100D01*
X7745Y322424D01*
X6636Y321514D01*
X5726Y320405D01*
X5049Y319139D01*
X4633Y317766D01*
X4492Y316339D01*
X4633Y314911D01*
X5049Y313538D01*
X5726Y312273D01*
X6636Y311163D01*
X7745Y310253D01*
X9010Y309577D01*
X10383Y309160D01*
X11811Y309020D01*
X13239Y309160D01*
X14612Y309577D01*
X15877Y310253D01*
X16986Y311163D01*
X17896Y312273D01*
X18573Y313538D01*
X18989Y314911D01*
X19130Y316339D01*
X18989Y317766D01*
X18573Y319139D01*
X17896Y320405D01*
X16986Y321514D01*
X15877Y322424D01*
X14612Y323100D01*
X13239Y323517D01*
X11811Y323657D01*
D02*
G37*
G36*
X146653Y305940D02*
X145962Y305803D01*
X145562Y305535D01*
X131496D01*
X131496Y305535D01*
X131035Y305443D01*
X130645Y305182D01*
X128676Y303214D01*
X128415Y302823D01*
X128323Y302362D01*
X128323Y302362D01*
Y302114D01*
X128250Y302065D01*
X127859Y301479D01*
X127721Y300787D01*
X127859Y300096D01*
X128250Y299510D01*
X128836Y299118D01*
X129527Y298981D01*
X130219Y299118D01*
X130805Y299510D01*
X131196Y300096D01*
X131334Y300787D01*
X131196Y301479D01*
X130856Y301988D01*
X131995Y303127D01*
X145196D01*
X145376Y302857D01*
X145962Y302465D01*
X146653Y302327D01*
X147345Y302465D01*
X147931Y302857D01*
X148322Y303443D01*
X148460Y304134D01*
X148322Y304825D01*
X147931Y305411D01*
X147345Y305803D01*
X146653Y305940D01*
D02*
G37*
G36*
X183465Y305743D02*
X182773Y305606D01*
X182187Y305214D01*
X182138Y305141D01*
X177310D01*
X177261Y305214D01*
X176675Y305606D01*
X175984Y305743D01*
X175293Y305606D01*
X174707Y305214D01*
X174315Y304628D01*
X174178Y303937D01*
X174315Y303246D01*
X174707Y302660D01*
X175293Y302268D01*
X175984Y302131D01*
X176675Y302268D01*
X177261Y302660D01*
X177310Y302733D01*
X182138D01*
X182187Y302660D01*
X182773Y302268D01*
X183465Y302131D01*
X184156Y302268D01*
X184742Y302660D01*
X185133Y303246D01*
X185271Y303937D01*
X185133Y304628D01*
X184742Y305214D01*
X184156Y305606D01*
X183465Y305743D01*
D02*
G37*
G36*
X51079Y315626D02*
X37504D01*
Y302051D01*
X41681D01*
X41851Y301551D01*
X41697Y301433D01*
X41114Y300673D01*
X40747Y299788D01*
X40622Y298839D01*
X40747Y297889D01*
X41114Y297004D01*
X41697Y296244D01*
X42457Y295661D01*
X43342Y295294D01*
X44291Y295169D01*
X45241Y295294D01*
X46126Y295661D01*
X46886Y296244D01*
X47469Y297004D01*
X47835Y297889D01*
X47960Y298839D01*
X47835Y299788D01*
X47469Y300673D01*
X46886Y301433D01*
X46732Y301551D01*
X46902Y302051D01*
X51079D01*
X51113Y302007D01*
X51114Y302004D01*
X51697Y301244D01*
X52457Y300661D01*
X53342Y300294D01*
X54291Y300169D01*
X55241Y300294D01*
X56126Y300661D01*
X56886Y301244D01*
X57469Y302004D01*
X57836Y302889D01*
X57960Y303839D01*
X57836Y304788D01*
X57469Y305673D01*
X56886Y306433D01*
X56126Y307016D01*
X55241Y307383D01*
X54291Y307508D01*
X53342Y307383D01*
X52457Y307016D01*
X51697Y306433D01*
X51579Y306279D01*
X51079Y306449D01*
Y315626D01*
D02*
G37*
G36*
X279528Y298657D02*
X278836Y298519D01*
X278250Y298128D01*
X278202Y298055D01*
X260381D01*
X260332Y298128D01*
X259746Y298519D01*
X259055Y298657D01*
X258364Y298519D01*
X257778Y298128D01*
X257386Y297542D01*
X257249Y296850D01*
X257386Y296159D01*
X257778Y295573D01*
X258364Y295181D01*
X259055Y295044D01*
X259746Y295181D01*
X260332Y295573D01*
X260381Y295646D01*
X278202D01*
X278250Y295573D01*
X278836Y295181D01*
X279528Y295044D01*
X280219Y295181D01*
X280805Y295573D01*
X281196Y296159D01*
X281334Y296850D01*
X281196Y297542D01*
X280805Y298128D01*
X280219Y298519D01*
X279528Y298657D01*
D02*
G37*
G36*
X54291Y297508D02*
X53342Y297383D01*
X52457Y297016D01*
X51697Y296433D01*
X51114Y295673D01*
X50747Y294788D01*
X50622Y293839D01*
X50747Y292889D01*
X51114Y292004D01*
X51697Y291244D01*
X52457Y290661D01*
X53342Y290294D01*
X54291Y290169D01*
X55241Y290294D01*
X56126Y290661D01*
X56886Y291244D01*
X57469Y292004D01*
X57836Y292889D01*
X57960Y293839D01*
X57836Y294788D01*
X57469Y295673D01*
X56886Y296433D01*
X56126Y297016D01*
X55241Y297383D01*
X54291Y297508D01*
D02*
G37*
G36*
X104331Y302003D02*
X103639Y301866D01*
X103053Y301474D01*
X102662Y300888D01*
X102524Y300197D01*
X102662Y299506D01*
X103053Y298920D01*
X103639Y298528D01*
X104331Y298391D01*
X104417Y298408D01*
X116668Y286156D01*
X116668Y286156D01*
X117059Y285895D01*
X117520Y285804D01*
X143556D01*
X143605Y285731D01*
X144191Y285339D01*
X144882Y285202D01*
X145573Y285339D01*
X146159Y285731D01*
X146551Y286317D01*
X146688Y287008D01*
X146551Y287699D01*
X146159Y288285D01*
X145573Y288677D01*
X144882Y288814D01*
X144191Y288677D01*
X143605Y288285D01*
X143556Y288212D01*
X118018D01*
X106120Y300111D01*
X106137Y300197D01*
X106000Y300888D01*
X105608Y301474D01*
X105022Y301866D01*
X104331Y302003D01*
D02*
G37*
G36*
X44291Y292508D02*
X43342Y292383D01*
X42457Y292016D01*
X41697Y291433D01*
X41114Y290673D01*
X40747Y289788D01*
X40622Y288839D01*
X40747Y287889D01*
X41114Y287004D01*
X41697Y286244D01*
X42457Y285661D01*
X43342Y285294D01*
X44291Y285169D01*
X45241Y285294D01*
X46126Y285661D01*
X46886Y286244D01*
X47469Y287004D01*
X47835Y287889D01*
X47960Y288839D01*
X47835Y289788D01*
X47469Y290673D01*
X46886Y291433D01*
X46126Y292016D01*
X45241Y292383D01*
X44291Y292508D01*
D02*
G37*
G36*
X55961Y289074D02*
X55961Y289074D01*
X52621D01*
X52161Y288983D01*
X51770Y288722D01*
X51770Y288722D01*
X47717Y284669D01*
X31838D01*
X31789Y284742D01*
X31203Y285133D01*
X30512Y285271D01*
X29820Y285133D01*
X29234Y284742D01*
X28843Y284156D01*
X28705Y283465D01*
X28843Y282773D01*
X29234Y282187D01*
X29820Y281796D01*
X30512Y281658D01*
X31203Y281796D01*
X31789Y282187D01*
X31838Y282260D01*
X41954D01*
X42123Y281760D01*
X41697Y281433D01*
X41114Y280673D01*
X40747Y279788D01*
X40622Y278839D01*
X40747Y277889D01*
X40993Y277295D01*
X40670Y276795D01*
X34791D01*
X34742Y276868D01*
X34156Y277259D01*
X33465Y277397D01*
X32773Y277259D01*
X32187Y276868D01*
X31796Y276282D01*
X31658Y275590D01*
X31786Y274948D01*
X31762Y274813D01*
X31567Y274448D01*
X24396D01*
X24313Y274503D01*
X23622Y274641D01*
X22931Y274503D01*
X22345Y274112D01*
X21953Y273526D01*
X21816Y272835D01*
X21861Y272605D01*
X21411Y272304D01*
X21361Y272338D01*
X20669Y272476D01*
X19978Y272338D01*
X19392Y271947D01*
X19000Y271361D01*
X18863Y270669D01*
X19000Y269978D01*
X19392Y269392D01*
X19978Y269000D01*
X20669Y268863D01*
X21361Y269000D01*
X21767Y269272D01*
X45459D01*
X45776Y268956D01*
X45776Y268955D01*
X46166Y268694D01*
X46627Y268603D01*
X71723D01*
X71723Y268603D01*
X72184Y268694D01*
X72574Y268955D01*
X74354Y270736D01*
X74441Y270719D01*
X75132Y270856D01*
X75718Y271248D01*
X76110Y271834D01*
X76247Y272525D01*
X76110Y273216D01*
X75718Y273802D01*
X75132Y274194D01*
X74441Y274331D01*
X73749Y274194D01*
X73163Y273802D01*
X72772Y273216D01*
X72634Y272525D01*
X72651Y272439D01*
X71224Y271011D01*
X57337D01*
X57091Y271511D01*
X57469Y272004D01*
X57836Y272889D01*
X57960Y273839D01*
X57836Y274788D01*
X57469Y275673D01*
X57290Y275906D01*
X57511Y276355D01*
X88583D01*
X88583Y276355D01*
X89043Y276447D01*
X89434Y276708D01*
X91050Y278323D01*
X99461D01*
X99510Y278250D01*
X100096Y277859D01*
X100787Y277721D01*
X101479Y277859D01*
X102065Y278250D01*
X102456Y278836D01*
X102594Y279528D01*
X102456Y280219D01*
X102065Y280805D01*
X101479Y281196D01*
X100787Y281334D01*
X100096Y281196D01*
X99510Y280805D01*
X99461Y280732D01*
X90551D01*
X90551Y280732D01*
X90090Y280640D01*
X89700Y280379D01*
X88084Y278763D01*
X87102D01*
X86960Y279107D01*
X86926Y279263D01*
X87299Y279821D01*
X87436Y280512D01*
X87299Y281203D01*
X86907Y281789D01*
X86321Y282181D01*
X85630Y282318D01*
X85544Y282301D01*
X84078Y283767D01*
X84269Y284229D01*
X99461D01*
X99510Y284156D01*
X100096Y283764D01*
X100787Y283627D01*
X101479Y283764D01*
X102065Y284156D01*
X102456Y284742D01*
X102594Y285433D01*
X102456Y286124D01*
X102065Y286710D01*
X101479Y287102D01*
X100787Y287239D01*
X100096Y287102D01*
X99510Y286710D01*
X99461Y286637D01*
X58897D01*
X56813Y288722D01*
X56422Y288983D01*
X55961Y289074D01*
D02*
G37*
G36*
X376969Y281334D02*
X263779D01*
X263088Y281196D01*
X262502Y280805D01*
X262111Y280219D01*
X261973Y279528D01*
X262111Y278836D01*
X262502Y278250D01*
X263088Y277859D01*
X263779Y277721D01*
X376969D01*
X377660Y277859D01*
X378246Y278250D01*
X378637Y278836D01*
X378775Y279528D01*
X378637Y280219D01*
X378246Y280805D01*
X377660Y281196D01*
X376969Y281334D01*
D02*
G37*
G36*
X102362Y269523D02*
X101671Y269385D01*
X101085Y268994D01*
X100693Y268408D01*
X100600Y267936D01*
X28885D01*
X28836Y268010D01*
X28250Y268401D01*
X27559Y268539D01*
X26868Y268401D01*
X26282Y268010D01*
X25890Y267424D01*
X25753Y266732D01*
X25890Y266041D01*
X26282Y265455D01*
X26868Y265063D01*
X27559Y264926D01*
X28250Y265063D01*
X28836Y265455D01*
X28885Y265528D01*
X38737D01*
X38770Y265028D01*
X38293Y264965D01*
X36887Y264383D01*
X35678Y263456D01*
X34751Y262247D01*
X34168Y260841D01*
X34036Y259831D01*
X39803D01*
X45571D01*
X45438Y260841D01*
X44855Y262247D01*
X43928Y263456D01*
X42720Y264383D01*
X41313Y264965D01*
X40837Y265028D01*
X40869Y265528D01*
X101378D01*
X101378Y265528D01*
X101839Y265620D01*
X102229Y265881D01*
X102276Y265927D01*
X102362Y265910D01*
X103053Y266048D01*
X103639Y266439D01*
X104031Y267025D01*
X104169Y267717D01*
X104031Y268408D01*
X103639Y268994D01*
X103053Y269385D01*
X102362Y269523D01*
D02*
G37*
G36*
X236221Y273019D02*
X235398Y272911D01*
X234632Y272594D01*
X233974Y272089D01*
X233469Y271431D01*
X233152Y270665D01*
X233044Y269843D01*
X233152Y269020D01*
X233469Y268254D01*
X233974Y267596D01*
X234632Y267091D01*
X235398Y266774D01*
X236221Y266666D01*
X237043Y266774D01*
X237809Y267091D01*
X238467Y267596D01*
X238684Y267879D01*
X263779D01*
X264471Y268016D01*
X265057Y268408D01*
X265448Y268994D01*
X265586Y269685D01*
X265448Y270376D01*
X265057Y270962D01*
X264471Y271354D01*
X263779Y271491D01*
X238925D01*
X238467Y272089D01*
X237809Y272594D01*
X237043Y272911D01*
X236221Y273019D01*
D02*
G37*
G36*
X191142Y265586D02*
X190451Y265448D01*
X189864Y265057D01*
X189816Y264984D01*
X184397D01*
X184348Y265057D01*
X183762Y265448D01*
X183071Y265586D01*
X182380Y265448D01*
X181794Y265057D01*
X181402Y264471D01*
X181264Y263779D01*
X181402Y263088D01*
X181794Y262502D01*
X182380Y262111D01*
X183071Y261973D01*
X183762Y262111D01*
X184348Y262502D01*
X184397Y262575D01*
X189816D01*
X189864Y262502D01*
X190451Y262111D01*
X191142Y261973D01*
X191833Y262111D01*
X192419Y262502D01*
X192811Y263088D01*
X192948Y263779D01*
X192811Y264471D01*
X192419Y265057D01*
X191833Y265448D01*
X191142Y265586D01*
D02*
G37*
G36*
X11811Y273657D02*
X10383Y273517D01*
X9010Y273100D01*
X7745Y272424D01*
X6636Y271514D01*
X5726Y270405D01*
X5049Y269139D01*
X4633Y267766D01*
X4492Y266339D01*
X4633Y264911D01*
X5049Y263538D01*
X5726Y262273D01*
X6636Y261163D01*
X7745Y260253D01*
X9010Y259577D01*
X10383Y259160D01*
X11811Y259020D01*
X13239Y259160D01*
X14612Y259577D01*
X15877Y260253D01*
X16986Y261163D01*
X17896Y262273D01*
X18573Y263538D01*
X18989Y264911D01*
X19130Y266339D01*
X18989Y267766D01*
X18573Y269139D01*
X17896Y270405D01*
X16986Y271514D01*
X15877Y272424D01*
X14612Y273100D01*
X13239Y273517D01*
X11811Y273657D01*
D02*
G37*
G36*
X236221Y263019D02*
X235398Y262911D01*
X234632Y262594D01*
X233974Y262089D01*
X233469Y261431D01*
X233152Y260665D01*
X233044Y259842D01*
X233152Y259020D01*
X233469Y258254D01*
X233974Y257596D01*
X234632Y257091D01*
X235398Y256774D01*
X236221Y256666D01*
X237043Y256774D01*
X237809Y257091D01*
X238467Y257596D01*
X238972Y258254D01*
X239289Y259020D01*
X239397Y259842D01*
X239289Y260665D01*
X238972Y261431D01*
X238467Y262089D01*
X237809Y262594D01*
X237043Y262911D01*
X236221Y263019D01*
D02*
G37*
G36*
X45571Y258831D02*
X40303D01*
Y253563D01*
X41313Y253696D01*
X42720Y254279D01*
X43928Y255206D01*
X44855Y256414D01*
X45438Y257821D01*
X45571Y258831D01*
D02*
G37*
G36*
X39303D02*
X34036D01*
X34168Y257821D01*
X34751Y256414D01*
X35678Y255206D01*
X36887Y254279D01*
X38293Y253696D01*
X39303Y253563D01*
Y258831D01*
D02*
G37*
G36*
X413933Y253534D02*
X413241Y253397D01*
X412655Y253005D01*
X412607Y252932D01*
X409819D01*
X409353Y253244D01*
X408661Y253381D01*
X407970Y253244D01*
X407384Y252852D01*
X406992Y252266D01*
X406855Y251575D01*
X406992Y250884D01*
X407384Y250297D01*
X407970Y249906D01*
X408661Y249768D01*
X409353Y249906D01*
X409939Y250297D01*
X410090Y250524D01*
X412607D01*
X412655Y250451D01*
X413241Y250059D01*
X413933Y249922D01*
X414624Y250059D01*
X415210Y250451D01*
X415602Y251037D01*
X415739Y251728D01*
X415602Y252419D01*
X415210Y253005D01*
X414624Y253397D01*
X413933Y253534D01*
D02*
G37*
G36*
X236720Y253168D02*
Y250342D01*
X239546D01*
X239496Y250720D01*
X239157Y251538D01*
X238618Y252240D01*
X237916Y252779D01*
X237098Y253118D01*
X236720Y253168D01*
D02*
G37*
G36*
X235720D02*
X235343Y253118D01*
X234525Y252779D01*
X233822Y252240D01*
X233284Y251538D01*
X232945Y250720D01*
X232895Y250342D01*
X235720D01*
Y253168D01*
D02*
G37*
G36*
X239546Y249342D02*
X236720D01*
Y246517D01*
X237098Y246567D01*
X237916Y246906D01*
X238618Y247445D01*
X239157Y248147D01*
X239496Y248965D01*
X239546Y249342D01*
D02*
G37*
G36*
X235720D02*
X232895D01*
X232945Y248965D01*
X233284Y248147D01*
X233822Y247445D01*
X234525Y246906D01*
X235343Y246567D01*
X235720Y246517D01*
Y249342D01*
D02*
G37*
G36*
X40303Y246437D02*
Y241169D01*
X45571D01*
X45438Y242179D01*
X44855Y243586D01*
X43928Y244794D01*
X42720Y245721D01*
X41313Y246304D01*
X40303Y246437D01*
D02*
G37*
G36*
X39303Y246437D02*
X38293Y246304D01*
X36887Y245721D01*
X35678Y244794D01*
X34751Y243586D01*
X34168Y242179D01*
X34036Y241169D01*
X39303D01*
Y246437D01*
D02*
G37*
G36*
X383858Y256728D02*
X383167Y256590D01*
X382581Y256199D01*
X382189Y255612D01*
X382052Y254921D01*
Y240158D01*
X382189Y239466D01*
X382581Y238880D01*
X383167Y238489D01*
X383858Y238351D01*
X384549Y238489D01*
X385136Y238880D01*
X385527Y239466D01*
X385665Y240158D01*
Y254921D01*
X385527Y255612D01*
X385136Y256199D01*
X384549Y256590D01*
X383858Y256728D01*
D02*
G37*
G36*
X279528Y238027D02*
X278836Y237889D01*
X278250Y237498D01*
X278202Y237425D01*
X271011D01*
X270962Y237498D01*
X270376Y237889D01*
X269685Y238027D01*
X268994Y237889D01*
X268408Y237498D01*
X268016Y236912D01*
X267879Y236221D01*
X268016Y235529D01*
X268408Y234943D01*
X268994Y234552D01*
X269685Y234414D01*
X270376Y234552D01*
X270962Y234943D01*
X271011Y235016D01*
X278202D01*
X278250Y234943D01*
X278836Y234552D01*
X279528Y234414D01*
X280219Y234552D01*
X280805Y234943D01*
X281196Y235529D01*
X281334Y236221D01*
X281196Y236912D01*
X280805Y237498D01*
X280219Y237889D01*
X279528Y238027D01*
D02*
G37*
G36*
X45571Y240169D02*
X40303D01*
Y234902D01*
X41313Y235035D01*
X42720Y235617D01*
X43928Y236544D01*
X44855Y237753D01*
X45438Y239159D01*
X45571Y240169D01*
D02*
G37*
G36*
X39303D02*
X34036D01*
X34168Y239159D01*
X34751Y237753D01*
X35678Y236544D01*
X36887Y235617D01*
X38293Y235035D01*
X39303Y234902D01*
Y240169D01*
D02*
G37*
G36*
X320866Y238027D02*
X320175Y237889D01*
X319589Y237498D01*
X319518Y237391D01*
X319224Y237333D01*
X318833Y237072D01*
X318833Y237072D01*
X315446Y233684D01*
X246368D01*
X245967Y233952D01*
X245276Y234090D01*
X244584Y233952D01*
X243998Y233561D01*
X243607Y232975D01*
X243469Y232283D01*
X243607Y231592D01*
X243998Y231006D01*
X244584Y230615D01*
X245276Y230477D01*
X245967Y230615D01*
X246553Y231006D01*
X246733Y231276D01*
X247956D01*
X248285Y230776D01*
X248194Y230315D01*
X248331Y229624D01*
X248723Y229038D01*
X249309Y228646D01*
X250000Y228509D01*
X250691Y228646D01*
X251277Y229038D01*
X251326Y229111D01*
X317571D01*
X317620Y229038D01*
X318206Y228646D01*
X318898Y228509D01*
X319589Y228646D01*
X320175Y229038D01*
X320567Y229624D01*
X320704Y230315D01*
X320567Y231006D01*
X320175Y231592D01*
X319589Y231984D01*
X318898Y232121D01*
X318206Y231984D01*
X317843Y231741D01*
X317656Y231781D01*
X317495Y232327D01*
X319902Y234734D01*
X320175Y234552D01*
X320866Y234414D01*
X321557Y234552D01*
X322143Y234943D01*
X322535Y235529D01*
X322673Y236221D01*
X322535Y236912D01*
X322143Y237498D01*
X321557Y237889D01*
X320866Y238027D01*
D02*
G37*
G36*
X11811Y240980D02*
X10383Y240840D01*
X9010Y240423D01*
X7745Y239747D01*
X6636Y238837D01*
X5726Y237727D01*
X5049Y236462D01*
X4633Y235089D01*
X4492Y233661D01*
X4633Y232234D01*
X5049Y230861D01*
X5726Y229595D01*
X6636Y228486D01*
X7745Y227576D01*
X9010Y226900D01*
X10383Y226483D01*
X11811Y226343D01*
X13239Y226483D01*
X14612Y226900D01*
X15877Y227576D01*
X16986Y228486D01*
X17896Y229595D01*
X18573Y230861D01*
X18989Y232234D01*
X19130Y233661D01*
X18989Y235089D01*
X18573Y236462D01*
X17896Y237727D01*
X16986Y238837D01*
X15877Y239747D01*
X14612Y240423D01*
X13239Y240840D01*
X11811Y240980D01*
D02*
G37*
G36*
X289370Y228184D02*
X263779D01*
X263088Y228047D01*
X262502Y227655D01*
X262111Y227069D01*
X261973Y226378D01*
X262111Y225687D01*
X262502Y225101D01*
X263088Y224709D01*
X263779Y224572D01*
X289370D01*
X290061Y224709D01*
X290647Y225101D01*
X291039Y225687D01*
X291176Y226378D01*
X291039Y227069D01*
X290647Y227655D01*
X290061Y228047D01*
X289370Y228184D01*
D02*
G37*
G36*
X146653Y223263D02*
X145962Y223126D01*
X145562Y222858D01*
X131496D01*
X131496Y222858D01*
X131035Y222766D01*
X130645Y222505D01*
X128676Y220537D01*
X128415Y220146D01*
X128323Y219685D01*
X128323Y219685D01*
Y219436D01*
X128250Y219388D01*
X127859Y218801D01*
X127721Y218110D01*
X127859Y217419D01*
X128250Y216833D01*
X128836Y216441D01*
X129527Y216304D01*
X130219Y216441D01*
X130805Y216833D01*
X131196Y217419D01*
X131334Y218110D01*
X131196Y218801D01*
X130856Y219311D01*
X131995Y220449D01*
X145196D01*
X145376Y220179D01*
X145962Y219788D01*
X146653Y219650D01*
X147345Y219788D01*
X147931Y220179D01*
X148322Y220765D01*
X148460Y221457D01*
X148322Y222148D01*
X147931Y222734D01*
X147345Y223126D01*
X146653Y223263D01*
D02*
G37*
G36*
X188976Y222279D02*
X188285Y222141D01*
X187699Y221750D01*
X187650Y221677D01*
X176523D01*
X176474Y221750D01*
X175888Y222141D01*
X175197Y222279D01*
X174506Y222141D01*
X173920Y221750D01*
X173528Y221164D01*
X173390Y220472D01*
X173528Y219781D01*
X173920Y219195D01*
X174506Y218804D01*
X175197Y218666D01*
X175888Y218804D01*
X176474Y219195D01*
X176523Y219268D01*
X187650D01*
X187699Y219195D01*
X188285Y218804D01*
X188976Y218666D01*
X189668Y218804D01*
X190254Y219195D01*
X190645Y219781D01*
X190783Y220472D01*
X190645Y221164D01*
X190254Y221750D01*
X189668Y222141D01*
X188976Y222279D01*
D02*
G37*
G36*
X51079Y232949D02*
X37504D01*
Y219374D01*
X41681D01*
X41851Y218874D01*
X41697Y218756D01*
X41114Y217996D01*
X40747Y217111D01*
X40622Y216161D01*
X40747Y215212D01*
X41114Y214327D01*
X41697Y213567D01*
X42457Y212984D01*
X43342Y212617D01*
X44291Y212492D01*
X45241Y212617D01*
X46126Y212984D01*
X46886Y213567D01*
X47469Y214327D01*
X47835Y215212D01*
X47960Y216161D01*
X47835Y217111D01*
X47469Y217996D01*
X46886Y218756D01*
X46732Y218874D01*
X46902Y219374D01*
X51079D01*
X51113Y219330D01*
X51114Y219327D01*
X51697Y218567D01*
X52457Y217984D01*
X53342Y217617D01*
X54291Y217492D01*
X55241Y217617D01*
X56126Y217984D01*
X56886Y218567D01*
X57469Y219327D01*
X57836Y220212D01*
X57960Y221161D01*
X57836Y222111D01*
X57469Y222996D01*
X56886Y223756D01*
X56126Y224339D01*
X55241Y224706D01*
X54291Y224831D01*
X53342Y224706D01*
X52457Y224339D01*
X51697Y223756D01*
X51579Y223602D01*
X51079Y223772D01*
Y232949D01*
D02*
G37*
G36*
X54291Y214831D02*
X53342Y214706D01*
X52457Y214339D01*
X51697Y213756D01*
X51114Y212996D01*
X50747Y212111D01*
X50622Y211161D01*
X50747Y210212D01*
X51114Y209327D01*
X51697Y208567D01*
X52457Y207984D01*
X53342Y207617D01*
X54291Y207492D01*
X55241Y207617D01*
X56126Y207984D01*
X56886Y208567D01*
X57469Y209327D01*
X57836Y210212D01*
X57960Y211161D01*
X57836Y212111D01*
X57469Y212996D01*
X56886Y213756D01*
X56126Y214339D01*
X55241Y214706D01*
X54291Y214831D01*
D02*
G37*
G36*
X55961Y206397D02*
X55961Y206397D01*
X52622D01*
X52621Y206397D01*
X52161Y206306D01*
X51770Y206045D01*
X51770Y206044D01*
X47717Y201992D01*
X31838D01*
X31789Y202065D01*
X31203Y202456D01*
X30512Y202594D01*
X29820Y202456D01*
X29234Y202065D01*
X28843Y201479D01*
X28705Y200787D01*
X28843Y200096D01*
X29234Y199510D01*
X29820Y199118D01*
X30512Y198981D01*
X31203Y199118D01*
X31789Y199510D01*
X31838Y199583D01*
X41954D01*
X42123Y199083D01*
X41697Y198756D01*
X41114Y197996D01*
X40747Y197111D01*
X40622Y196161D01*
X40747Y195212D01*
X40993Y194618D01*
X40670Y194118D01*
X34791D01*
X34742Y194191D01*
X34156Y194582D01*
X33465Y194720D01*
X32773Y194582D01*
X32187Y194191D01*
X31796Y193605D01*
X31658Y192913D01*
X31796Y192222D01*
X32187Y191636D01*
X32773Y191244D01*
X33465Y191107D01*
X34156Y191244D01*
X34742Y191636D01*
X34791Y191709D01*
X41339D01*
X41770Y191278D01*
X41770Y191278D01*
X42161Y191017D01*
X42621Y190926D01*
X46154D01*
X46155Y190926D01*
X46615Y191017D01*
X47006Y191278D01*
X51653Y195926D01*
X54189D01*
X54854Y195261D01*
X54620Y194787D01*
X54291Y194831D01*
X53342Y194706D01*
X52457Y194339D01*
X51697Y193756D01*
X51114Y192996D01*
X50747Y192111D01*
X50622Y191161D01*
X50747Y190212D01*
X51114Y189327D01*
X51492Y188834D01*
X51245Y188334D01*
X41952D01*
X41576Y188409D01*
X41576Y188409D01*
X21761D01*
X21361Y188677D01*
X20669Y188814D01*
X19978Y188677D01*
X19392Y188285D01*
X19000Y187699D01*
X18863Y187008D01*
X18872Y186963D01*
X18396Y186793D01*
X17896Y187727D01*
X16986Y188837D01*
X15877Y189747D01*
X14612Y190423D01*
X13239Y190840D01*
X11811Y190980D01*
X10383Y190840D01*
X9010Y190423D01*
X7745Y189747D01*
X6636Y188837D01*
X5726Y187727D01*
X5049Y186462D01*
X4633Y185089D01*
X4492Y183661D01*
X4633Y182234D01*
X5049Y180861D01*
X5726Y179595D01*
X6636Y178486D01*
X7745Y177576D01*
X9010Y176900D01*
X10383Y176483D01*
X11811Y176343D01*
X13239Y176483D01*
X14612Y176900D01*
X15877Y177576D01*
X16986Y178486D01*
X17896Y179595D01*
X18573Y180861D01*
X18989Y182234D01*
X19130Y183661D01*
X18989Y185089D01*
X18798Y185720D01*
X19255Y185936D01*
X19392Y185731D01*
X19978Y185339D01*
X20669Y185202D01*
X21361Y185339D01*
X21947Y185731D01*
X22127Y186001D01*
X26382D01*
X26533Y185501D01*
X26282Y185332D01*
X25890Y184746D01*
X25753Y184055D01*
X25890Y183364D01*
X26282Y182778D01*
X26868Y182386D01*
X27559Y182249D01*
X28250Y182386D01*
X28836Y182778D01*
X28885Y182851D01*
X38737D01*
X38770Y182351D01*
X38293Y182288D01*
X36887Y181705D01*
X35678Y180778D01*
X34751Y179570D01*
X34168Y178163D01*
X34036Y177154D01*
X39803D01*
X45571D01*
X45438Y178163D01*
X44855Y179570D01*
X43928Y180778D01*
X42720Y181705D01*
X41313Y182288D01*
X40837Y182351D01*
X40869Y182851D01*
X101378D01*
X101378Y182851D01*
X101839Y182943D01*
X102229Y183204D01*
X102276Y183250D01*
X102362Y183233D01*
X103053Y183370D01*
X103639Y183762D01*
X104031Y184348D01*
X104169Y185039D01*
X104031Y185731D01*
X103639Y186317D01*
X103053Y186708D01*
X102362Y186846D01*
X101671Y186708D01*
X101085Y186317D01*
X100693Y185731D01*
X100600Y185259D01*
X28984D01*
X28769Y185501D01*
X28977Y186001D01*
X41275D01*
X41651Y185926D01*
X41651Y185926D01*
X71427D01*
X71427Y185926D01*
X71888Y186017D01*
X72278Y186278D01*
X74108Y188108D01*
X74441Y188041D01*
X75132Y188179D01*
X75718Y188570D01*
X76110Y189156D01*
X76247Y189848D01*
X76110Y190539D01*
X75718Y191125D01*
X75132Y191517D01*
X74441Y191654D01*
X73749Y191517D01*
X73163Y191125D01*
X72772Y190539D01*
X72682Y190088D01*
X70928Y188334D01*
X57337D01*
X57091Y188834D01*
X57469Y189327D01*
X57836Y190212D01*
X57960Y191161D01*
X57836Y192111D01*
X57469Y192996D01*
X57290Y193229D01*
X57511Y193678D01*
X88583D01*
X88583Y193678D01*
X89043Y193769D01*
X89434Y194030D01*
X91050Y195646D01*
X99461D01*
X99510Y195573D01*
X100096Y195182D01*
X100787Y195044D01*
X101479Y195182D01*
X102065Y195573D01*
X102456Y196159D01*
X102594Y196850D01*
X102456Y197542D01*
X102065Y198128D01*
X101479Y198519D01*
X100787Y198657D01*
X100096Y198519D01*
X99510Y198128D01*
X99461Y198055D01*
X90551D01*
X90551Y198055D01*
X90090Y197963D01*
X89700Y197702D01*
X88084Y196086D01*
X87102D01*
X86960Y196430D01*
X86926Y196586D01*
X87299Y197143D01*
X87436Y197835D01*
X87299Y198526D01*
X86907Y199112D01*
X86321Y199504D01*
X85630Y199641D01*
X85544Y199624D01*
X84078Y201090D01*
X84269Y201552D01*
X99461D01*
X99510Y201479D01*
X100096Y201087D01*
X100787Y200950D01*
X101479Y201087D01*
X102065Y201479D01*
X102456Y202065D01*
X102594Y202756D01*
X102456Y203447D01*
X102065Y204033D01*
X101479Y204425D01*
X100787Y204562D01*
X100096Y204425D01*
X99510Y204033D01*
X99461Y203960D01*
X58897D01*
X56813Y206045D01*
X56422Y206306D01*
X55961Y206397D01*
D02*
G37*
G36*
X104331Y219326D02*
X103639Y219188D01*
X103053Y218797D01*
X102662Y218211D01*
X102524Y217520D01*
X102662Y216828D01*
X103053Y216242D01*
X103639Y215851D01*
X104331Y215713D01*
X104417Y215731D01*
X116668Y203479D01*
X116668Y203479D01*
X117059Y203218D01*
X117520Y203127D01*
X143556D01*
X143605Y203053D01*
X144191Y202662D01*
X144882Y202524D01*
X145573Y202662D01*
X146159Y203053D01*
X146551Y203640D01*
X146688Y204331D01*
X146551Y205022D01*
X146159Y205608D01*
X145573Y206000D01*
X144882Y206137D01*
X144191Y206000D01*
X143605Y205608D01*
X143556Y205535D01*
X118018D01*
X106120Y217434D01*
X106137Y217520D01*
X106000Y218211D01*
X105608Y218797D01*
X105022Y219188D01*
X104331Y219326D01*
D02*
G37*
G36*
X44291Y209831D02*
X43342Y209706D01*
X42457Y209339D01*
X41697Y208756D01*
X41114Y207996D01*
X40914Y207515D01*
X23622D01*
X22931Y207378D01*
X22345Y206986D01*
X21953Y206400D01*
X21816Y205709D01*
X21953Y205017D01*
X22345Y204431D01*
X22931Y204040D01*
X23622Y203902D01*
X41440D01*
X41697Y203567D01*
X42457Y202984D01*
X43342Y202617D01*
X44291Y202492D01*
X45241Y202617D01*
X46126Y202984D01*
X46886Y203567D01*
X47469Y204327D01*
X47835Y205212D01*
X47960Y206161D01*
X47835Y207111D01*
X47469Y207996D01*
X46886Y208756D01*
X46126Y209339D01*
X45241Y209706D01*
X44291Y209831D01*
D02*
G37*
G36*
X192913Y198657D02*
X192222Y198519D01*
X191636Y198128D01*
X191587Y198055D01*
X180460D01*
X180411Y198128D01*
X179825Y198519D01*
X179134Y198657D01*
X178443Y198519D01*
X177857Y198128D01*
X177465Y197542D01*
X177328Y196850D01*
X177465Y196159D01*
X177857Y195573D01*
X178443Y195182D01*
X179134Y195044D01*
X179825Y195182D01*
X180411Y195573D01*
X180460Y195646D01*
X191587D01*
X191636Y195573D01*
X192222Y195182D01*
X192913Y195044D01*
X193605Y195182D01*
X194191Y195573D01*
X194582Y196159D01*
X194720Y196850D01*
X194582Y197542D01*
X194191Y198128D01*
X193605Y198519D01*
X192913Y198657D01*
D02*
G37*
G36*
X39303Y176154D02*
X34036D01*
X34168Y175144D01*
X34751Y173737D01*
X35678Y172529D01*
X36887Y171602D01*
X38293Y171019D01*
X39303Y170886D01*
Y176154D01*
D02*
G37*
G36*
X45571D02*
X40303D01*
Y170886D01*
X41313Y171019D01*
X42720Y171602D01*
X43928Y172529D01*
X44855Y173737D01*
X45438Y175144D01*
X45571Y176154D01*
D02*
G37*
G36*
X376642Y174077D02*
Y170854D01*
X379864D01*
X379801Y171335D01*
X379422Y172248D01*
X378820Y173033D01*
X378036Y173635D01*
X377122Y174014D01*
X376642Y174077D01*
D02*
G37*
G36*
X375642D02*
X375161Y174014D01*
X374248Y173635D01*
X373463Y173033D01*
X372861Y172248D01*
X372482Y171335D01*
X372419Y170854D01*
X375642D01*
Y174077D01*
D02*
G37*
G36*
X366142Y173928D02*
X365217Y173806D01*
X364355Y173449D01*
X363615Y172881D01*
X363047Y172141D01*
X362690Y171279D01*
X362568Y170354D01*
X362690Y169429D01*
X363047Y168567D01*
X363615Y167827D01*
X364355Y167259D01*
X365217Y166902D01*
X366142Y166780D01*
X367067Y166902D01*
X367929Y167259D01*
X368669Y167827D01*
X369237Y168567D01*
X369594Y169429D01*
X369716Y170354D01*
X369594Y171279D01*
X369237Y172141D01*
X368669Y172881D01*
X367929Y173449D01*
X367067Y173806D01*
X366142Y173928D01*
D02*
G37*
G36*
X356142D02*
X355217Y173806D01*
X354355Y173449D01*
X353615Y172881D01*
X353047Y172141D01*
X352690Y171279D01*
X352568Y170354D01*
X352690Y169429D01*
X353047Y168567D01*
X353615Y167827D01*
X354355Y167259D01*
X355217Y166902D01*
X356142Y166780D01*
X357067Y166902D01*
X357929Y167259D01*
X358669Y167827D01*
X359237Y168567D01*
X359594Y169429D01*
X359716Y170354D01*
X359594Y171279D01*
X359237Y172141D01*
X358669Y172881D01*
X357929Y173449D01*
X357067Y173806D01*
X356142Y173928D01*
D02*
G37*
G36*
X379864Y169854D02*
X376642D01*
Y166632D01*
X377122Y166695D01*
X378036Y167074D01*
X378820Y167676D01*
X379422Y168460D01*
X379801Y169374D01*
X379864Y169854D01*
D02*
G37*
G36*
X375642D02*
X372419D01*
X372482Y169374D01*
X372861Y168460D01*
X373463Y167676D01*
X374248Y167074D01*
X375161Y166695D01*
X375642Y166632D01*
Y169854D01*
D02*
G37*
G36*
X376642Y164077D02*
Y160854D01*
X379864D01*
X379801Y161335D01*
X379422Y162249D01*
X378820Y163033D01*
X378036Y163635D01*
X377122Y164014D01*
X376642Y164077D01*
D02*
G37*
G36*
X375642D02*
X375161Y164014D01*
X374248Y163635D01*
X373463Y163033D01*
X372861Y162249D01*
X372482Y161335D01*
X372419Y160854D01*
X375642D01*
Y164077D01*
D02*
G37*
G36*
X366142Y163928D02*
X365217Y163806D01*
X364355Y163449D01*
X363615Y162881D01*
X363047Y162141D01*
X362690Y161279D01*
X362568Y160354D01*
X362690Y159429D01*
X363047Y158567D01*
X363615Y157827D01*
X364355Y157259D01*
X365217Y156902D01*
X366142Y156781D01*
X367067Y156902D01*
X367929Y157259D01*
X368669Y157827D01*
X369237Y158567D01*
X369594Y159429D01*
X369716Y160354D01*
X369594Y161279D01*
X369237Y162141D01*
X368669Y162881D01*
X367929Y163449D01*
X367067Y163806D01*
X366142Y163928D01*
D02*
G37*
G36*
X606799Y505332D02*
Y492626D01*
X619505D01*
X619382Y494198D01*
X618896Y496219D01*
X618101Y498139D01*
X617015Y499911D01*
X615665Y501492D01*
X614085Y502842D01*
X612313Y503928D01*
X610392Y504723D01*
X608371Y505208D01*
X606799Y505332D01*
D02*
G37*
G36*
X605799D02*
X604227Y505208D01*
X602206Y504723D01*
X600286Y503928D01*
X598514Y502842D01*
X596933Y501492D01*
X595583Y499911D01*
X594497Y498139D01*
X593702Y496219D01*
X593217Y494198D01*
X593093Y492626D01*
X605799D01*
Y505332D01*
D02*
G37*
G36*
X545276Y492107D02*
X543786Y491911D01*
X542397Y491336D01*
X541204Y490421D01*
X540289Y489228D01*
X539714Y487840D01*
X539518Y486349D01*
X539714Y484859D01*
X540289Y483470D01*
X541204Y482278D01*
X542397Y481363D01*
X543786Y480788D01*
X545276Y480591D01*
X546766Y480788D01*
X548155Y481363D01*
X549347Y482278D01*
X550262Y483470D01*
X550838Y484859D01*
X551034Y486349D01*
X550838Y487840D01*
X550262Y489228D01*
X549347Y490421D01*
X548155Y491336D01*
X546766Y491911D01*
X545276Y492107D01*
D02*
G37*
G36*
X619505Y491626D02*
X606799D01*
Y478920D01*
X608371Y479043D01*
X610392Y479529D01*
X612313Y480324D01*
X614085Y481410D01*
X615665Y482760D01*
X617015Y484340D01*
X618101Y486113D01*
X618896Y488033D01*
X619382Y490054D01*
X619505Y491626D01*
D02*
G37*
G36*
X605799D02*
X593093D01*
X593217Y490054D01*
X593702Y488033D01*
X594497Y486113D01*
X595583Y484340D01*
X596933Y482760D01*
X598514Y481410D01*
X600286Y480324D01*
X602206Y479529D01*
X604227Y479043D01*
X605799Y478920D01*
Y491626D01*
D02*
G37*
G36*
X450394Y480153D02*
X449702Y480015D01*
X449116Y479624D01*
X448725Y479038D01*
X448587Y478346D01*
X448725Y477655D01*
X449116Y477069D01*
X449188Y477022D01*
Y476522D01*
X449116Y476474D01*
X448725Y475888D01*
X448587Y475197D01*
X448725Y474506D01*
X449116Y473920D01*
X448915Y473453D01*
X448723Y473324D01*
X448331Y472739D01*
X448194Y472047D01*
X448331Y471356D01*
X448723Y470770D01*
X449309Y470378D01*
X450000Y470241D01*
X450691Y470378D01*
X451277Y470770D01*
X451326Y470843D01*
X473693D01*
X482063Y462473D01*
Y431404D01*
X480795Y430136D01*
X480709Y430153D01*
X480017Y430015D01*
X479431Y429624D01*
X479040Y429038D01*
X478902Y428346D01*
X479040Y427655D01*
X479431Y427069D01*
X480017Y426678D01*
X480709Y426540D01*
X481400Y426678D01*
X481986Y427069D01*
X482377Y427655D01*
X482515Y428346D01*
X482498Y428433D01*
X484119Y430054D01*
X484119Y430054D01*
X484380Y430445D01*
X484472Y430905D01*
Y462971D01*
X484472Y462972D01*
X484380Y463432D01*
X484119Y463823D01*
X480138Y467804D01*
X480239Y468113D01*
X480366Y468283D01*
X487597D01*
X487598Y468283D01*
X488058Y468375D01*
X488449Y468636D01*
X490071Y470258D01*
X490158Y470241D01*
X490849Y470378D01*
X491435Y470770D01*
X491826Y471356D01*
X491964Y472047D01*
X491826Y472739D01*
X491435Y473324D01*
X490849Y473716D01*
X490158Y473854D01*
X489466Y473716D01*
X488880Y473324D01*
X488489Y472739D01*
X488351Y472047D01*
X488368Y471961D01*
X487149Y470742D01*
X486633Y470776D01*
X486359Y471192D01*
X486451Y471653D01*
X486314Y472344D01*
X485922Y472930D01*
X485336Y473321D01*
X484645Y473459D01*
X484068Y473344D01*
X478214Y479198D01*
X477823Y479459D01*
X477362Y479551D01*
X477362Y479551D01*
X451720D01*
X451671Y479624D01*
X451085Y480015D01*
X450394Y480153D01*
D02*
G37*
G36*
X593670Y476482D02*
X585070D01*
X583820Y476318D01*
X582656Y475835D01*
X581656Y475068D01*
X580888Y474068D01*
X580406Y472903D01*
X580241Y471654D01*
X580406Y470404D01*
X580888Y469239D01*
X581656Y468239D01*
X582656Y467472D01*
X583820Y466989D01*
X585070Y466825D01*
X593670D01*
X594920Y466989D01*
X596084Y467472D01*
X597085Y468239D01*
X597852Y469239D01*
X598334Y470404D01*
X598499Y471654D01*
X598334Y472903D01*
X597852Y474068D01*
X597085Y475068D01*
X596084Y475835D01*
X594920Y476318D01*
X593670Y476482D01*
D02*
G37*
G36*
X464567Y462436D02*
X463876Y462299D01*
X463290Y461907D01*
X463241Y461834D01*
X457087D01*
X456626Y461742D01*
X456235Y461482D01*
X452299Y457545D01*
X452280Y457538D01*
X451723Y457576D01*
X451459Y457970D01*
X450873Y458362D01*
X450182Y458499D01*
X449490Y458362D01*
X448905Y457970D01*
X448513Y457384D01*
X448473Y457184D01*
X448403Y457114D01*
X414472D01*
X414077Y457377D01*
X413386Y457515D01*
X412695Y457377D01*
X412109Y456986D01*
X411717Y456400D01*
X411580Y455709D01*
X411717Y455017D01*
X412109Y454431D01*
X412695Y454040D01*
X413386Y453902D01*
X414077Y454040D01*
X414472Y454304D01*
X448984D01*
X449522Y454411D01*
X449978Y454715D01*
X450155Y454892D01*
X450182Y454886D01*
X450873Y455024D01*
X451296Y454705D01*
X451479Y454431D01*
X452065Y454040D01*
X452756Y453902D01*
X453447Y454040D01*
X454033Y454431D01*
X454425Y455017D01*
X454562Y455709D01*
X454447Y456287D01*
X457585Y459426D01*
X463241D01*
X463290Y459353D01*
X463876Y458961D01*
X464567Y458824D01*
X465258Y458961D01*
X465844Y459353D01*
X466236Y459939D01*
X466373Y460630D01*
X466236Y461321D01*
X465844Y461907D01*
X465258Y462299D01*
X464567Y462436D01*
D02*
G37*
G36*
X601878Y462033D02*
Y453256D01*
X606421D01*
Y457056D01*
X606249Y458361D01*
X605745Y459578D01*
X604944Y460622D01*
X603899Y461423D01*
X602683Y461927D01*
X601878Y462033D01*
D02*
G37*
G36*
X600878Y462033D02*
X600073Y461927D01*
X598856Y461423D01*
X597812Y460622D01*
X597011Y459578D01*
X596507Y458361D01*
X596335Y457056D01*
Y453256D01*
X600878D01*
Y462033D01*
D02*
G37*
G36*
Y452256D02*
X596335D01*
Y448456D01*
X596507Y447151D01*
X597011Y445934D01*
X597812Y444890D01*
X598856Y444088D01*
X600073Y443585D01*
X600878Y443479D01*
Y452256D01*
D02*
G37*
G36*
X606421D02*
X601878D01*
Y443479D01*
X602683Y443585D01*
X603899Y444088D01*
X604944Y444890D01*
X605745Y445934D01*
X606249Y447151D01*
X606421Y448456D01*
Y452256D01*
D02*
G37*
G36*
X577756Y462485D02*
X576506Y462320D01*
X575342Y461838D01*
X574341Y461070D01*
X573574Y460070D01*
X573092Y458906D01*
X572927Y457656D01*
Y447856D01*
X573092Y446606D01*
X573574Y445442D01*
X574341Y444442D01*
X575342Y443674D01*
X576506Y443192D01*
X577756Y443027D01*
X579006Y443192D01*
X580170Y443674D01*
X581170Y444442D01*
X581938Y445442D01*
X582420Y446606D01*
X582585Y447856D01*
Y457656D01*
X582420Y458906D01*
X581938Y460070D01*
X581170Y461070D01*
X580170Y461838D01*
X579006Y462320D01*
X577756Y462485D01*
D02*
G37*
G36*
X59555Y446277D02*
Y433571D01*
X72261D01*
X72138Y435143D01*
X71652Y437164D01*
X70857Y439084D01*
X69771Y440856D01*
X68421Y442437D01*
X66841Y443787D01*
X65069Y444873D01*
X63148Y445668D01*
X61127Y446153D01*
X59555Y446277D01*
D02*
G37*
G36*
X58555D02*
X56983Y446153D01*
X54962Y445668D01*
X53042Y444873D01*
X51270Y443787D01*
X49689Y442437D01*
X48339Y440856D01*
X47253Y439084D01*
X46458Y437164D01*
X45973Y435143D01*
X45849Y433571D01*
X58555D01*
Y446277D01*
D02*
G37*
G36*
X72261Y432571D02*
X59555D01*
Y419865D01*
X61127Y419988D01*
X63148Y420474D01*
X65069Y421269D01*
X66841Y422355D01*
X68421Y423705D01*
X69771Y425285D01*
X70857Y427058D01*
X71652Y428978D01*
X72138Y430999D01*
X72261Y432571D01*
D02*
G37*
G36*
X58555D02*
X45849D01*
X45973Y430999D01*
X46458Y428978D01*
X47253Y427058D01*
X48339Y425285D01*
X49689Y423705D01*
X51270Y422355D01*
X53042Y421269D01*
X54962Y420474D01*
X56983Y419988D01*
X58555Y419865D01*
Y432571D01*
D02*
G37*
G36*
X611417Y416737D02*
X610081Y416561D01*
X608836Y416046D01*
X607767Y415225D01*
X606947Y414156D01*
X606431Y412911D01*
X606255Y411575D01*
X606431Y410239D01*
X606947Y408994D01*
X607767Y407925D01*
X608836Y407104D01*
X610081Y406588D01*
X611417Y406413D01*
X612753Y406588D01*
X613998Y407104D01*
X615068Y407925D01*
X615888Y408994D01*
X616404Y410239D01*
X616580Y411575D01*
X616404Y412911D01*
X615888Y414156D01*
X615068Y415225D01*
X613998Y416046D01*
X612753Y416561D01*
X611417Y416737D01*
D02*
G37*
G36*
X519685Y399444D02*
X518994Y399307D01*
X518408Y398915D01*
X518016Y398329D01*
X517879Y397638D01*
X517939Y397333D01*
X517824Y397192D01*
X517502Y396968D01*
X516929Y397082D01*
X516766Y397049D01*
X516341Y397475D01*
X516373Y397638D01*
X516236Y398329D01*
X515844Y398915D01*
X515258Y399307D01*
X514567Y399444D01*
X513876Y399307D01*
X513290Y398915D01*
X512898Y398329D01*
X512761Y397638D01*
X512793Y397475D01*
X512368Y397049D01*
X512205Y397082D01*
X511514Y396944D01*
X510927Y396553D01*
X510536Y395967D01*
X510398Y395276D01*
X510536Y394584D01*
X510927Y393998D01*
X511000Y393950D01*
Y368255D01*
X510927Y368206D01*
X510536Y367620D01*
X510398Y366929D01*
X510536Y366238D01*
X510927Y365652D01*
X511514Y365260D01*
X512205Y365123D01*
X512896Y365260D01*
X513482Y365652D01*
X513874Y366238D01*
X514011Y366929D01*
X513874Y367620D01*
X513482Y368206D01*
X513409Y368255D01*
Y381184D01*
X513799Y381392D01*
X513909Y381395D01*
X514567Y381264D01*
X515225Y381395D01*
X515335Y381392D01*
X515725Y381184D01*
Y368255D01*
X515652Y368206D01*
X515260Y367620D01*
X515123Y366929D01*
X515260Y366238D01*
X515652Y365652D01*
X516238Y365260D01*
X516929Y365123D01*
X517620Y365260D01*
X518206Y365652D01*
X518598Y366238D01*
X518736Y366929D01*
X518598Y367620D01*
X518206Y368206D01*
X518133Y368255D01*
Y381376D01*
X518633Y381643D01*
X518994Y381402D01*
X519685Y381264D01*
X520376Y381402D01*
X520962Y381794D01*
X521354Y382380D01*
X521491Y383071D01*
X521354Y383762D01*
X520962Y384348D01*
X520889Y384397D01*
Y396312D01*
X520962Y396360D01*
X521354Y396947D01*
X521491Y397638D01*
X521354Y398329D01*
X520962Y398915D01*
X520376Y399307D01*
X519685Y399444D01*
D02*
G37*
G36*
X611917Y396886D02*
Y392075D01*
X616728D01*
X616611Y392966D01*
X616074Y394263D01*
X615219Y395377D01*
X614106Y396231D01*
X612809Y396768D01*
X611917Y396886D01*
D02*
G37*
G36*
X610917Y396886D02*
X610026Y396768D01*
X608729Y396231D01*
X607615Y395377D01*
X606761Y394263D01*
X606224Y392966D01*
X606106Y392075D01*
X610917D01*
Y396886D01*
D02*
G37*
G36*
X545275Y401299D02*
X543785Y401102D01*
X542396Y400527D01*
X541204Y399612D01*
X540289Y398419D01*
X539714Y397031D01*
X539517Y395540D01*
X539714Y394050D01*
X540289Y392662D01*
X541204Y391469D01*
X542396Y390554D01*
X543785Y389979D01*
X545275Y389783D01*
X546766Y389979D01*
X548154Y390554D01*
X549347Y391469D01*
X550262Y392662D01*
X550837Y394050D01*
X551033Y395540D01*
X550837Y397031D01*
X550262Y398419D01*
X549347Y399612D01*
X548154Y400527D01*
X546766Y401102D01*
X545275Y401299D01*
D02*
G37*
G36*
X610917Y391075D02*
X606106D01*
X606224Y390183D01*
X606761Y388886D01*
X607615Y387773D01*
X608729Y386918D01*
X610026Y386381D01*
X610917Y386264D01*
Y391075D01*
D02*
G37*
G36*
X616728D02*
X611917D01*
Y386264D01*
X612809Y386381D01*
X614106Y386918D01*
X615219Y387773D01*
X616074Y388886D01*
X616611Y390183D01*
X616728Y391075D01*
D02*
G37*
G36*
X360630Y390783D02*
X359939Y390645D01*
X359353Y390254D01*
X358961Y389668D01*
X358824Y388976D01*
X358961Y388285D01*
X359353Y387699D01*
X359939Y387308D01*
X360630Y387170D01*
X360804Y386695D01*
Y383355D01*
X360804Y383355D01*
X360895Y382894D01*
X361156Y382504D01*
X362969Y380691D01*
Y372192D01*
X362896Y372143D01*
X362504Y371557D01*
X362367Y370866D01*
X362504Y370175D01*
X362896Y369589D01*
X363482Y369197D01*
X364173Y369060D01*
X364864Y369197D01*
X365451Y369589D01*
X365842Y370175D01*
X365980Y370866D01*
X365842Y371557D01*
X365451Y372143D01*
X365377Y372192D01*
Y381190D01*
X365377Y381190D01*
X365286Y381651D01*
X365025Y382041D01*
X365025Y382041D01*
X363212Y383854D01*
Y387598D01*
X363212Y387598D01*
X363120Y388059D01*
X362859Y388450D01*
X362419Y388890D01*
X362436Y388976D01*
X362299Y389668D01*
X361907Y390254D01*
X361321Y390645D01*
X360630Y390783D01*
D02*
G37*
G36*
X377165Y356925D02*
X376474Y356787D01*
X375888Y356395D01*
X375497Y355809D01*
X375359Y355118D01*
X375497Y354427D01*
X375888Y353841D01*
X375961Y353792D01*
Y344218D01*
X375961Y344218D01*
X376053Y343757D01*
X376314Y343367D01*
X376748Y342932D01*
Y340460D01*
X376249Y340281D01*
X371001Y345529D01*
X370425Y345970D01*
X369755Y346248D01*
X369035Y346343D01*
X368707D01*
X367987Y346248D01*
X367317Y345970D01*
X366741Y345529D01*
X366299Y344953D01*
X366022Y344282D01*
X365927Y343563D01*
X366022Y342844D01*
X366299Y342173D01*
X366741Y341598D01*
X367317Y341156D01*
X367649Y341018D01*
X371630Y337038D01*
Y334075D01*
X371725Y333355D01*
X372002Y332685D01*
X372444Y332109D01*
X373020Y331667D01*
X373690Y331390D01*
X374410Y331295D01*
X375129Y331390D01*
X375799Y331667D01*
X376249Y332012D01*
X376748Y331832D01*
Y299358D01*
X376676Y299309D01*
X376284Y298723D01*
X376146Y298031D01*
X376284Y297340D01*
X376676Y296754D01*
X377261Y296363D01*
X377953Y296225D01*
X378644Y296363D01*
X379230Y296754D01*
X379622Y297340D01*
X379759Y298031D01*
X379622Y298723D01*
X379230Y299309D01*
X379157Y299358D01*
Y343430D01*
X379157Y343431D01*
X379065Y343891D01*
X378804Y344282D01*
X378804Y344282D01*
X378370Y344717D01*
Y353792D01*
X378443Y353841D01*
X378834Y354427D01*
X378972Y355118D01*
X378834Y355809D01*
X378443Y356395D01*
X377857Y356787D01*
X377165Y356925D01*
D02*
G37*
G36*
X516929Y327003D02*
X516238Y326866D01*
X515652Y326474D01*
X515260Y325888D01*
X515123Y325197D01*
X515139Y325113D01*
X514802Y324731D01*
X514332D01*
X513994Y325113D01*
X514011Y325197D01*
X513874Y325888D01*
X513482Y326474D01*
X512896Y326866D01*
X512205Y327003D01*
X511514Y326866D01*
X510927Y326474D01*
X510536Y325888D01*
X510398Y325197D01*
X510536Y324506D01*
X510927Y323920D01*
X511000Y323871D01*
Y294633D01*
X510927Y294584D01*
X510536Y293998D01*
X510398Y293307D01*
X510536Y292616D01*
X510927Y292030D01*
X511514Y291638D01*
X512205Y291501D01*
X512896Y291638D01*
X513482Y292030D01*
X513874Y292616D01*
X514011Y293307D01*
X513874Y293998D01*
X513482Y294584D01*
X513409Y294633D01*
Y296144D01*
X513799Y296353D01*
X513909Y296356D01*
X514567Y296225D01*
X514730Y296258D01*
X515155Y295832D01*
X515123Y295669D01*
X515260Y294978D01*
X515652Y294392D01*
X516238Y294000D01*
X516929Y293863D01*
X517620Y294000D01*
X518206Y294392D01*
X518598Y294978D01*
X518736Y295669D01*
X518598Y296361D01*
X518206Y296947D01*
X518133Y296995D01*
Y323871D01*
X518206Y323920D01*
X518598Y324506D01*
X518736Y325197D01*
X518598Y325888D01*
X518206Y326474D01*
X517620Y326866D01*
X516929Y327003D01*
D02*
G37*
G36*
X598768Y328106D02*
Y322508D01*
X604366D01*
X604297Y323207D01*
X603947Y324360D01*
X603379Y325423D01*
X602615Y326355D01*
X601683Y327119D01*
X600620Y327688D01*
X599467Y328037D01*
X598768Y328106D01*
D02*
G37*
G36*
X618768D02*
Y322508D01*
X624366D01*
X624297Y323207D01*
X623947Y324360D01*
X623379Y325423D01*
X622615Y326355D01*
X621683Y327119D01*
X620620Y327688D01*
X619467Y328037D01*
X618768Y328106D01*
D02*
G37*
G36*
X597768Y328106D02*
X597068Y328037D01*
X595915Y327688D01*
X594852Y327119D01*
X593921Y326355D01*
X593156Y325423D01*
X592588Y324360D01*
X592238Y323207D01*
X592169Y322508D01*
X597768D01*
Y328106D01*
D02*
G37*
G36*
X617768D02*
X617068Y328037D01*
X615915Y327688D01*
X614852Y327119D01*
X613921Y326355D01*
X613156Y325423D01*
X612588Y324360D01*
X612238Y323207D01*
X612169Y322508D01*
X617768D01*
Y328106D01*
D02*
G37*
G36*
Y321508D02*
X612169D01*
X612238Y320809D01*
X612588Y319655D01*
X613156Y318592D01*
X613921Y317661D01*
X614852Y316896D01*
X615915Y316328D01*
X617068Y315978D01*
X617768Y315909D01*
Y321508D01*
D02*
G37*
G36*
X597768D02*
X592169D01*
X592238Y320809D01*
X592588Y319655D01*
X593156Y318592D01*
X593921Y317661D01*
X594852Y316896D01*
X595915Y316328D01*
X597068Y315978D01*
X597768Y315909D01*
Y321508D01*
D02*
G37*
G36*
X624366D02*
X618768D01*
Y315909D01*
X619467Y315978D01*
X620620Y316328D01*
X621683Y316896D01*
X622615Y317661D01*
X623379Y318592D01*
X623947Y319655D01*
X624297Y320809D01*
X624366Y321508D01*
D02*
G37*
G36*
X604366D02*
X598768D01*
Y315909D01*
X599467Y315978D01*
X600620Y316328D01*
X601683Y316896D01*
X602615Y317661D01*
X603379Y318592D01*
X603947Y319655D01*
X604297Y320809D01*
X604366Y321508D01*
D02*
G37*
G36*
X445276Y311047D02*
X445275Y311047D01*
X443701D01*
X443701Y311047D01*
X443240Y310955D01*
X442849Y310694D01*
X442849Y310694D01*
X440487Y308332D01*
X440226Y307941D01*
X440134Y307480D01*
X440134Y307480D01*
Y304642D01*
X439743Y304433D01*
X439634Y304431D01*
X438976Y304562D01*
X438284Y304424D01*
X437698Y304033D01*
X437497D01*
X436911Y304424D01*
X436220Y304562D01*
X435528Y304424D01*
X434942Y304033D01*
X434551Y303447D01*
X434413Y302755D01*
X434551Y302064D01*
X434942Y301478D01*
X435016Y301429D01*
Y270617D01*
X434943Y270569D01*
X434552Y269983D01*
X434414Y269291D01*
X434552Y268600D01*
X434943Y268014D01*
X435529Y267622D01*
X436221Y267485D01*
X436912Y267622D01*
X437498Y268014D01*
X437699D01*
X438285Y267622D01*
X438976Y267485D01*
X439668Y267622D01*
X440254Y268014D01*
X440455D01*
X441041Y267622D01*
X441732Y267485D01*
X442423Y267622D01*
X443010Y268014D01*
X443211D01*
X443797Y267622D01*
X443927Y267597D01*
X444091Y267054D01*
X443596Y266559D01*
X441877D01*
X441828Y266632D01*
X441242Y267023D01*
X440551Y267161D01*
X439860Y267023D01*
X439274Y266632D01*
X438882Y266046D01*
X438745Y265354D01*
X438882Y264663D01*
X439274Y264077D01*
X439860Y263685D01*
X440551Y263548D01*
X441242Y263685D01*
X441828Y264077D01*
X441877Y264150D01*
X444094D01*
X444095Y264150D01*
X444555Y264242D01*
X444946Y264503D01*
X447461Y267018D01*
X447461Y267018D01*
X447722Y267409D01*
X447814Y267870D01*
Y268175D01*
X447858Y268394D01*
X447858Y268394D01*
Y272415D01*
X447858Y272415D01*
X447766Y272876D01*
X447505Y273267D01*
X447505Y273267D01*
X446086Y274686D01*
Y286509D01*
X451728Y292151D01*
X451968Y292103D01*
X451968Y292103D01*
X461272D01*
X461321Y292030D01*
X461907Y291638D01*
X462598Y291501D01*
X463290Y291638D01*
X463876Y292030D01*
X464267Y292616D01*
X464405Y293307D01*
X464267Y293998D01*
X463876Y294584D01*
X463290Y294976D01*
X462598Y295113D01*
X461907Y294976D01*
X461321Y294584D01*
X461272Y294511D01*
X452241D01*
X451901Y294579D01*
X451901Y294579D01*
X451249D01*
X451249Y294579D01*
X450788Y294487D01*
X450397Y294226D01*
X444580Y288409D01*
X444118Y288600D01*
Y305326D01*
X444488Y305674D01*
X445179Y305812D01*
X445765Y306203D01*
X445812Y306273D01*
X446247D01*
X446364Y306199D01*
X446946Y305811D01*
X447637Y305673D01*
X448328Y305811D01*
X448914Y306202D01*
X449306Y306788D01*
X449443Y307480D01*
X449306Y308171D01*
X448914Y308757D01*
X448328Y309149D01*
X447637Y309286D01*
X447552Y309269D01*
X446127Y310694D01*
X445736Y310955D01*
X445276Y311047D01*
D02*
G37*
G36*
X608268Y317942D02*
X607110Y317828D01*
X605997Y317490D01*
X604971Y316942D01*
X604072Y316204D01*
X603334Y315305D01*
X602785Y314279D01*
X602448Y313165D01*
X602334Y312008D01*
X602448Y310850D01*
X602785Y309737D01*
X603334Y308711D01*
X604072Y307812D01*
X604971Y307074D01*
X605997Y306525D01*
X607110Y306188D01*
X608268Y306074D01*
X609425Y306188D01*
X610539Y306525D01*
X611564Y307074D01*
X612464Y307812D01*
X613202Y308711D01*
X613750Y309737D01*
X614088Y310850D01*
X614202Y312008D01*
X614088Y313165D01*
X613750Y314279D01*
X613202Y315305D01*
X612464Y316204D01*
X611564Y316942D01*
X610539Y317490D01*
X609425Y317828D01*
X608268Y317942D01*
D02*
G37*
G36*
X598768Y308106D02*
Y302508D01*
X604366D01*
X604297Y303207D01*
X603947Y304361D01*
X603379Y305423D01*
X602615Y306355D01*
X601683Y307119D01*
X600620Y307688D01*
X599467Y308037D01*
X598768Y308106D01*
D02*
G37*
G36*
X618768D02*
Y302508D01*
X624366D01*
X624297Y303207D01*
X623947Y304361D01*
X623379Y305423D01*
X622615Y306355D01*
X621683Y307119D01*
X620620Y307688D01*
X619467Y308037D01*
X618768Y308106D01*
D02*
G37*
G36*
X597768Y308106D02*
X597068Y308037D01*
X595915Y307688D01*
X594852Y307119D01*
X593921Y306355D01*
X593156Y305423D01*
X592588Y304361D01*
X592238Y303207D01*
X592169Y302508D01*
X597768D01*
Y308106D01*
D02*
G37*
G36*
X617768D02*
X617068Y308037D01*
X615915Y307688D01*
X614852Y307119D01*
X613921Y306355D01*
X613156Y305423D01*
X612588Y304361D01*
X612238Y303207D01*
X612169Y302508D01*
X617768D01*
Y308106D01*
D02*
G37*
G36*
Y301508D02*
X612169D01*
X612238Y300809D01*
X612588Y299655D01*
X613156Y298592D01*
X613921Y297661D01*
X614852Y296896D01*
X615915Y296328D01*
X617068Y295978D01*
X617768Y295909D01*
Y301508D01*
D02*
G37*
G36*
X597768D02*
X592169D01*
X592238Y300809D01*
X592588Y299655D01*
X593156Y298592D01*
X593921Y297661D01*
X594852Y296896D01*
X595915Y296328D01*
X597068Y295978D01*
X597768Y295909D01*
Y301508D01*
D02*
G37*
G36*
X624366D02*
X618768D01*
Y295909D01*
X619467Y295978D01*
X620620Y296328D01*
X621683Y296896D01*
X622615Y297661D01*
X623379Y298592D01*
X623947Y299655D01*
X624297Y300809D01*
X624366Y301508D01*
D02*
G37*
G36*
X604366D02*
X598768D01*
Y295909D01*
X599467Y295978D01*
X600620Y296328D01*
X601683Y296896D01*
X602615Y297661D01*
X603379Y298592D01*
X603947Y299655D01*
X604297Y300809D01*
X604366Y301508D01*
D02*
G37*
G36*
X412992Y299838D02*
X412301Y299700D01*
X411715Y299309D01*
X411323Y298723D01*
X411186Y298031D01*
X411323Y297340D01*
X411715Y296754D01*
X411788Y296705D01*
Y293178D01*
X411788Y293178D01*
X411880Y292717D01*
X412042Y292473D01*
X411973Y292126D01*
X412111Y291435D01*
X412502Y290849D01*
X413088Y290457D01*
X413779Y290320D01*
X414471Y290457D01*
X415057Y290849D01*
X415448Y291435D01*
X415586Y292126D01*
X415448Y292817D01*
X415057Y293403D01*
X414471Y293795D01*
X414196Y293849D01*
Y296705D01*
X414269Y296754D01*
X414661Y297340D01*
X414798Y298031D01*
X414661Y298723D01*
X414269Y299309D01*
X413683Y299700D01*
X412992Y299838D01*
D02*
G37*
G36*
X398819Y315586D02*
X398128Y315448D01*
X397542Y315057D01*
X397150Y314471D01*
X397012Y313779D01*
Y295669D01*
Y291732D01*
X397150Y291041D01*
X397542Y290455D01*
X398128Y290063D01*
X398819Y289926D01*
X399510Y290063D01*
X400096Y290455D01*
X400488Y291041D01*
X400625Y291732D01*
Y295669D01*
Y313779D01*
X400488Y314471D01*
X400096Y315057D01*
X399510Y315448D01*
X398819Y315586D01*
D02*
G37*
G36*
X497244Y311649D02*
X496553Y311511D01*
X495967Y311120D01*
X495575Y310534D01*
X495438Y309842D01*
X495575Y309151D01*
X495967Y308565D01*
X496040Y308516D01*
Y284791D01*
X495967Y284742D01*
X495575Y284156D01*
X495438Y283465D01*
X495575Y282773D01*
X495967Y282187D01*
X496553Y281796D01*
X497244Y281658D01*
X497935Y281796D01*
X498521Y282187D01*
X498723D01*
X499309Y281796D01*
X500000Y281658D01*
X500691Y281796D01*
X501277Y282187D01*
X501479D01*
X502065Y281796D01*
X502756Y281658D01*
X503447Y281796D01*
X504033Y282187D01*
X504425Y282773D01*
X504562Y283465D01*
X504425Y284156D01*
X504033Y284742D01*
X503960Y284791D01*
Y299068D01*
X504033Y299116D01*
X504425Y299702D01*
X504562Y300394D01*
X504425Y301085D01*
X504033Y301671D01*
X503447Y302063D01*
X502756Y302200D01*
X502065Y302063D01*
X501704Y301822D01*
X501204Y302089D01*
Y303792D01*
X501277Y303841D01*
X501669Y304427D01*
X501806Y305118D01*
X501669Y305809D01*
X501277Y306395D01*
X500691Y306787D01*
X500000Y306925D01*
X499309Y306787D01*
X498948Y306546D01*
X498448Y306813D01*
Y308516D01*
X498521Y308565D01*
X498913Y309151D01*
X499050Y309842D01*
X498913Y310534D01*
X498521Y311120D01*
X497935Y311511D01*
X497244Y311649D01*
D02*
G37*
G36*
X598768Y278894D02*
Y273295D01*
X604366D01*
X604297Y273995D01*
X603947Y275148D01*
X603379Y276211D01*
X602615Y277142D01*
X601683Y277907D01*
X600620Y278475D01*
X599467Y278825D01*
X598768Y278894D01*
D02*
G37*
G36*
X618768D02*
Y273295D01*
X624366D01*
X624297Y273995D01*
X623947Y275148D01*
X623379Y276211D01*
X622615Y277142D01*
X621683Y277907D01*
X620620Y278475D01*
X619467Y278825D01*
X618768Y278894D01*
D02*
G37*
G36*
X597768Y278894D02*
X597068Y278825D01*
X595915Y278475D01*
X594852Y277907D01*
X593921Y277142D01*
X593156Y276211D01*
X592588Y275148D01*
X592238Y273995D01*
X592169Y273295D01*
X597768D01*
Y278894D01*
D02*
G37*
G36*
X617768D02*
X617068Y278825D01*
X615915Y278475D01*
X614852Y277907D01*
X613921Y277142D01*
X613156Y276211D01*
X612588Y275148D01*
X612238Y273995D01*
X612169Y273295D01*
X617768D01*
Y278894D01*
D02*
G37*
G36*
X541339Y267554D02*
X540647Y267417D01*
X540061Y267025D01*
X540013Y266952D01*
X483610D01*
X483561Y267025D01*
X482975Y267417D01*
X482283Y267554D01*
X481592Y267417D01*
X481006Y267025D01*
X480615Y266439D01*
X480477Y265748D01*
X480615Y265057D01*
X481006Y264471D01*
X481592Y264079D01*
X482283Y263942D01*
X482975Y264079D01*
X483561Y264471D01*
X483610Y264544D01*
X540013D01*
X540061Y264471D01*
X540647Y264079D01*
X541339Y263942D01*
X542030Y264079D01*
X542616Y264471D01*
X543007Y265057D01*
X543145Y265748D01*
X543007Y266439D01*
X542616Y267025D01*
X542030Y267417D01*
X541339Y267554D01*
D02*
G37*
G36*
X617768Y272295D02*
X612169D01*
X612238Y271596D01*
X612588Y270443D01*
X613156Y269380D01*
X613921Y268448D01*
X614852Y267684D01*
X615915Y267115D01*
X617068Y266766D01*
X617768Y266697D01*
Y272295D01*
D02*
G37*
G36*
X597768D02*
X592169D01*
X592238Y271596D01*
X592588Y270443D01*
X593156Y269380D01*
X593921Y268448D01*
X594852Y267684D01*
X595915Y267115D01*
X597068Y266766D01*
X597768Y266697D01*
Y272295D01*
D02*
G37*
G36*
X624366D02*
X618768D01*
Y266697D01*
X619467Y266766D01*
X620620Y267115D01*
X621683Y267684D01*
X622615Y268448D01*
X623379Y269380D01*
X623947Y270443D01*
X624297Y271596D01*
X624366Y272295D01*
D02*
G37*
G36*
X604366D02*
X598768D01*
Y266697D01*
X599467Y266766D01*
X600620Y267115D01*
X601683Y267684D01*
X602615Y268448D01*
X603379Y269380D01*
X603947Y270443D01*
X604297Y271596D01*
X604366Y272295D01*
D02*
G37*
G36*
X608268Y268729D02*
X607110Y268615D01*
X605997Y268278D01*
X604971Y267729D01*
X604072Y266991D01*
X603334Y266092D01*
X602785Y265066D01*
X602448Y263953D01*
X602334Y262795D01*
X602448Y261638D01*
X602785Y260524D01*
X603334Y259499D01*
X604072Y258599D01*
X604971Y257861D01*
X605997Y257313D01*
X607110Y256975D01*
X608268Y256861D01*
X609425Y256975D01*
X610539Y257313D01*
X611564Y257861D01*
X612464Y258599D01*
X613202Y259499D01*
X613750Y260524D01*
X614088Y261638D01*
X614202Y262795D01*
X614088Y263953D01*
X613750Y265066D01*
X613202Y266092D01*
X612464Y266991D01*
X611564Y267729D01*
X610539Y268278D01*
X609425Y268615D01*
X608268Y268729D01*
D02*
G37*
G36*
X598768Y258894D02*
Y253295D01*
X604366D01*
X604297Y253995D01*
X603947Y255148D01*
X603379Y256211D01*
X602615Y257142D01*
X601683Y257907D01*
X600620Y258475D01*
X599467Y258825D01*
X598768Y258894D01*
D02*
G37*
G36*
X618768D02*
Y253295D01*
X624366D01*
X624297Y253995D01*
X623947Y255148D01*
X623379Y256211D01*
X622615Y257142D01*
X621683Y257907D01*
X620620Y258475D01*
X619467Y258825D01*
X618768Y258894D01*
D02*
G37*
G36*
X597768Y258894D02*
X597068Y258825D01*
X595915Y258475D01*
X594852Y257907D01*
X593921Y257142D01*
X593156Y256211D01*
X592588Y255148D01*
X592238Y253995D01*
X592169Y253295D01*
X597768D01*
Y258894D01*
D02*
G37*
G36*
X617768D02*
X617068Y258825D01*
X615915Y258475D01*
X614852Y257907D01*
X613921Y257142D01*
X613156Y256211D01*
X612588Y255148D01*
X612238Y253995D01*
X612169Y253295D01*
X617768D01*
Y258894D01*
D02*
G37*
G36*
Y252295D02*
X612169D01*
X612238Y251596D01*
X612588Y250443D01*
X613156Y249380D01*
X613921Y248448D01*
X614852Y247684D01*
X615915Y247115D01*
X617068Y246766D01*
X617768Y246697D01*
Y252295D01*
D02*
G37*
G36*
X597768D02*
X592169D01*
X592238Y251596D01*
X592588Y250443D01*
X593156Y249380D01*
X593921Y248448D01*
X594852Y247684D01*
X595915Y247115D01*
X597068Y246766D01*
X597768Y246697D01*
Y252295D01*
D02*
G37*
G36*
X624366D02*
X618768D01*
Y246697D01*
X619467Y246766D01*
X620620Y247115D01*
X621683Y247684D01*
X622615Y248448D01*
X623379Y249380D01*
X623947Y250443D01*
X624297Y251596D01*
X624366Y252295D01*
D02*
G37*
G36*
X604366D02*
X598768D01*
Y246697D01*
X599467Y246766D01*
X600620Y247115D01*
X601683Y247684D01*
X602615Y248448D01*
X603379Y249380D01*
X603947Y250443D01*
X604297Y251596D01*
X604366Y252295D01*
D02*
G37*
G36*
X450955Y243706D02*
X450264Y243569D01*
X449678Y243177D01*
X449616Y243085D01*
X446847D01*
X446798Y243158D01*
X446212Y243549D01*
X445521Y243687D01*
X444830Y243549D01*
X444244Y243158D01*
X443852Y242572D01*
X443715Y241880D01*
X443852Y241189D01*
X444244Y240603D01*
X444830Y240212D01*
X445521Y240074D01*
X446212Y240212D01*
X446798Y240603D01*
X446847Y240676D01*
X449642D01*
X449678Y240623D01*
X450264Y240231D01*
X450955Y240094D01*
X451646Y240231D01*
X452232Y240623D01*
X452624Y241209D01*
X452762Y241900D01*
X452624Y242591D01*
X452232Y243177D01*
X451646Y243569D01*
X450955Y243706D01*
D02*
G37*
G36*
X618768Y225744D02*
Y220146D01*
X624366D01*
X624297Y220845D01*
X623947Y221998D01*
X623379Y223061D01*
X622615Y223993D01*
X621683Y224757D01*
X620620Y225325D01*
X619467Y225675D01*
X618768Y225744D01*
D02*
G37*
G36*
X598768D02*
Y220146D01*
X604366D01*
X604297Y220845D01*
X603947Y221998D01*
X603379Y223061D01*
X602615Y223993D01*
X601683Y224757D01*
X600620Y225325D01*
X599467Y225675D01*
X598768Y225744D01*
D02*
G37*
G36*
X617768Y225744D02*
X617068Y225675D01*
X615915Y225325D01*
X614852Y224757D01*
X613921Y223993D01*
X613156Y223061D01*
X612588Y221998D01*
X612238Y220845D01*
X612169Y220146D01*
X617768D01*
Y225744D01*
D02*
G37*
G36*
X597768D02*
X597068Y225675D01*
X595915Y225325D01*
X594852Y224757D01*
X593921Y223993D01*
X593156Y223061D01*
X592588Y221998D01*
X592238Y220845D01*
X592169Y220146D01*
X597768D01*
Y225744D01*
D02*
G37*
G36*
X457874Y227791D02*
X457183Y227653D01*
X456597Y227261D01*
X456205Y226676D01*
X456068Y225984D01*
X456205Y225293D01*
X456597Y224707D01*
X456670Y224658D01*
Y220224D01*
X456597Y220175D01*
X456205Y219589D01*
X456068Y218898D01*
X456205Y218206D01*
X456597Y217620D01*
X457183Y217229D01*
X457874Y217091D01*
X458565Y217229D01*
X459151Y217620D01*
X459543Y218206D01*
X459680Y218898D01*
X459543Y219589D01*
X459151Y220175D01*
X459078Y220224D01*
Y224658D01*
X459151Y224707D01*
X459543Y225293D01*
X459680Y225984D01*
X459543Y226676D01*
X459151Y227261D01*
X458565Y227653D01*
X457874Y227791D01*
D02*
G37*
G36*
X431102Y230153D02*
X430411Y230015D01*
X429825Y229624D01*
X429433Y229038D01*
X429296Y228346D01*
X429433Y227655D01*
X429825Y227069D01*
X429898Y227020D01*
Y220971D01*
X422854Y213927D01*
X422345Y214267D01*
X421654Y214405D01*
X420962Y214267D01*
X420376Y213876D01*
X419985Y213290D01*
X419847Y212598D01*
X419985Y211907D01*
X420376Y211321D01*
X420962Y210930D01*
X421654Y210792D01*
X422345Y210930D01*
X422931Y211321D01*
X422980Y211394D01*
X423228D01*
X423228Y211394D01*
X423689Y211486D01*
X424080Y211747D01*
X431954Y219621D01*
X432215Y220012D01*
X432307Y220472D01*
Y227020D01*
X432380Y227069D01*
X432771Y227655D01*
X432909Y228346D01*
X432771Y229038D01*
X432380Y229624D01*
X431794Y230015D01*
X431102Y230153D01*
D02*
G37*
G36*
X617768Y219146D02*
X612169D01*
X612238Y218446D01*
X612588Y217293D01*
X613156Y216230D01*
X613921Y215299D01*
X614852Y214534D01*
X615915Y213966D01*
X617068Y213616D01*
X617768Y213547D01*
Y219146D01*
D02*
G37*
G36*
X597768D02*
X592169D01*
X592238Y218446D01*
X592588Y217293D01*
X593156Y216230D01*
X593921Y215299D01*
X594852Y214534D01*
X595915Y213966D01*
X597068Y213616D01*
X597768Y213547D01*
Y219146D01*
D02*
G37*
G36*
X624366D02*
X618768D01*
Y213547D01*
X619467Y213616D01*
X620620Y213966D01*
X621683Y214534D01*
X622615Y215299D01*
X623379Y216230D01*
X623947Y217293D01*
X624297Y218446D01*
X624366Y219146D01*
D02*
G37*
G36*
X604366D02*
X598768D01*
Y213547D01*
X599467Y213616D01*
X600620Y213966D01*
X601683Y214534D01*
X602615Y215299D01*
X603379Y216230D01*
X603947Y217293D01*
X604297Y218446D01*
X604366Y219146D01*
D02*
G37*
G36*
X528740Y324641D02*
X528049Y324503D01*
X527463Y324112D01*
X527071Y323526D01*
X526934Y322835D01*
Y316559D01*
X523622D01*
X522903Y316464D01*
X522232Y316187D01*
X521657Y315745D01*
X521215Y315169D01*
X520937Y314499D01*
X520842Y313779D01*
X520937Y313060D01*
X521215Y312390D01*
X521657Y311814D01*
X522232Y311372D01*
X522903Y311095D01*
X523622Y311000D01*
X525764D01*
Y293307D01*
Y288189D01*
X525858Y287470D01*
X526136Y286799D01*
X526578Y286224D01*
X527153Y285782D01*
X527166Y285776D01*
X527251Y285349D01*
X527643Y284763D01*
X530613Y281794D01*
X531199Y281402D01*
X531890Y281264D01*
X551343D01*
Y253150D01*
Y209055D01*
X551481Y208364D01*
X551872Y207778D01*
X551872Y207778D01*
X552458Y207386D01*
X553150Y207249D01*
X553841Y207386D01*
X554427Y207778D01*
X554818Y208364D01*
X554956Y209055D01*
X554956Y209055D01*
Y251343D01*
X555512D01*
X556203Y251481D01*
X556789Y251872D01*
X557181Y252458D01*
X557318Y253150D01*
X557181Y253841D01*
X556789Y254427D01*
X556203Y254819D01*
X555512Y254956D01*
X554956D01*
Y283071D01*
Y299252D01*
X556789Y301085D01*
X557181Y301671D01*
X557318Y302362D01*
X557181Y303053D01*
X556789Y303640D01*
X556203Y304031D01*
X555512Y304169D01*
X554820Y304031D01*
X554235Y303640D01*
X551872Y301277D01*
X551481Y300691D01*
X551343Y300000D01*
Y284877D01*
X532869D01*
X532802Y284992D01*
X533109Y285456D01*
X533465Y285409D01*
X534184Y285504D01*
X534854Y285782D01*
X535430Y286224D01*
X535872Y286799D01*
X536150Y287470D01*
X536244Y288189D01*
Y293307D01*
Y313779D01*
Y318898D01*
X536150Y319617D01*
X535872Y320287D01*
X535430Y320863D01*
X534854Y321305D01*
X534184Y321583D01*
X533465Y321677D01*
X532745Y321583D01*
X532075Y321305D01*
X531499Y320863D01*
X531057Y320287D01*
X531046Y320262D01*
X530547Y320361D01*
Y322835D01*
X530409Y323526D01*
X530018Y324112D01*
X529431Y324503D01*
X528740Y324641D01*
D02*
G37*
G36*
X608268Y215580D02*
X607110Y215466D01*
X605997Y215128D01*
X604971Y214580D01*
X604072Y213842D01*
X603334Y212943D01*
X602785Y211916D01*
X602448Y210803D01*
X602334Y209646D01*
X602448Y208488D01*
X602785Y207375D01*
X603334Y206349D01*
X604072Y205450D01*
X604971Y204712D01*
X605997Y204163D01*
X607110Y203826D01*
X608268Y203712D01*
X609425Y203826D01*
X610539Y204163D01*
X611564Y204712D01*
X612464Y205450D01*
X613202Y206349D01*
X613750Y207375D01*
X614088Y208488D01*
X614202Y209646D01*
X614088Y210803D01*
X613750Y211916D01*
X613202Y212943D01*
X612464Y213842D01*
X611564Y214580D01*
X610539Y215128D01*
X609425Y215466D01*
X608268Y215580D01*
D02*
G37*
G36*
X618768Y205744D02*
Y200146D01*
X624366D01*
X624297Y200845D01*
X623947Y201998D01*
X623379Y203061D01*
X622615Y203993D01*
X621683Y204757D01*
X620620Y205325D01*
X619467Y205675D01*
X618768Y205744D01*
D02*
G37*
G36*
X598768D02*
Y200146D01*
X604366D01*
X604297Y200845D01*
X603947Y201998D01*
X603379Y203061D01*
X602615Y203993D01*
X601683Y204757D01*
X600620Y205325D01*
X599467Y205675D01*
X598768Y205744D01*
D02*
G37*
G36*
X617768Y205744D02*
X617068Y205675D01*
X615915Y205325D01*
X614852Y204757D01*
X613921Y203993D01*
X613156Y203061D01*
X612588Y201998D01*
X612238Y200845D01*
X612169Y200146D01*
X617768D01*
Y205744D01*
D02*
G37*
G36*
X597768D02*
X597068Y205675D01*
X595915Y205325D01*
X594852Y204757D01*
X593921Y203993D01*
X593156Y203061D01*
X592588Y201998D01*
X592238Y200845D01*
X592169Y200146D01*
X597768D01*
Y205744D01*
D02*
G37*
G36*
X617768Y199146D02*
X612169D01*
X612238Y198446D01*
X612588Y197293D01*
X613156Y196230D01*
X613921Y195299D01*
X614852Y194534D01*
X615915Y193966D01*
X617068Y193616D01*
X617768Y193547D01*
Y199146D01*
D02*
G37*
G36*
X597768D02*
X592169D01*
X592238Y198446D01*
X592588Y197293D01*
X593156Y196230D01*
X593921Y195299D01*
X594852Y194534D01*
X595915Y193966D01*
X597068Y193616D01*
X597768Y193547D01*
Y199146D01*
D02*
G37*
G36*
X624366D02*
X618768D01*
Y193547D01*
X619467Y193616D01*
X620620Y193966D01*
X621683Y194534D01*
X622615Y195299D01*
X623379Y196230D01*
X623947Y197293D01*
X624297Y198446D01*
X624366Y199146D01*
D02*
G37*
G36*
X604366D02*
X598768D01*
Y193547D01*
X599467Y193616D01*
X600620Y193966D01*
X601683Y194534D01*
X602615Y195299D01*
X603379Y196230D01*
X603947Y197293D01*
X604297Y198446D01*
X604366Y199146D01*
D02*
G37*
G36*
X477559Y160259D02*
X477559Y160259D01*
X452362D01*
X452362Y160259D01*
X451901Y160168D01*
X451511Y159907D01*
X451511Y159907D01*
X449936Y158332D01*
X449675Y157941D01*
X449583Y157480D01*
X449583Y157480D01*
Y147638D01*
X449583Y147638D01*
X449675Y147177D01*
X449936Y146786D01*
X451452Y145270D01*
X451843Y145009D01*
X452007Y144976D01*
X452266Y144589D01*
Y144387D01*
X451874Y143801D01*
X451737Y143110D01*
X451874Y142419D01*
X452266Y141833D01*
X452852Y141441D01*
X453543Y141304D01*
X454235Y141441D01*
X454821Y141833D01*
X454869Y141906D01*
X464265D01*
X465487Y140684D01*
X465487Y140684D01*
X465878Y140423D01*
X466339Y140331D01*
X475052D01*
X475101Y140258D01*
X475687Y139867D01*
X476378Y139729D01*
X477069Y139867D01*
X477655Y140258D01*
X478047Y140844D01*
X478184Y141535D01*
X478047Y142227D01*
X477980Y142326D01*
X478078Y142817D01*
X478126Y142849D01*
X479659Y144382D01*
X479659Y144382D01*
X479920Y144773D01*
X480012Y145234D01*
X480012Y145234D01*
Y148161D01*
X480012Y148161D01*
X479920Y148622D01*
X479659Y149012D01*
X479659Y149012D01*
X479198Y149474D01*
X478807Y149735D01*
X478346Y149826D01*
X478346Y149826D01*
X478073D01*
X477806Y150326D01*
X478047Y150687D01*
X478184Y151378D01*
X478047Y152069D01*
X477769Y152484D01*
X477780Y152619D01*
X477937Y152979D01*
X477970Y153016D01*
X478271Y153076D01*
X478662Y153337D01*
X479592Y154267D01*
X479853Y154657D01*
X479944Y155118D01*
Y157874D01*
X479944Y157874D01*
X479853Y158335D01*
X479592Y158726D01*
X479592Y158726D01*
X478411Y159907D01*
X478020Y160168D01*
X477559Y160259D01*
D02*
G37*
G36*
X120079Y153381D02*
X119387Y153244D01*
X118801Y152852D01*
X118753Y152779D01*
X103295D01*
X103246Y152852D01*
X102660Y153244D01*
X101969Y153381D01*
X101277Y153244D01*
X100691Y152852D01*
X100300Y152266D01*
X100162Y151575D01*
X100300Y150883D01*
X100691Y150297D01*
X101277Y149906D01*
X101969Y149768D01*
X102660Y149906D01*
X103246Y150297D01*
X103295Y150371D01*
X118753D01*
X118801Y150297D01*
X119387Y149906D01*
X120079Y149768D01*
X120770Y149906D01*
X121356Y150297D01*
X121748Y150883D01*
X121885Y151575D01*
X121748Y152266D01*
X121356Y152852D01*
X120770Y153244D01*
X120079Y153381D01*
D02*
G37*
G36*
X146850Y143539D02*
X146159Y143401D01*
X145573Y143010D01*
X145524Y142937D01*
X122586D01*
X122537Y143010D01*
X121951Y143401D01*
X121260Y143539D01*
X120569Y143401D01*
X119983Y143010D01*
X119591Y142423D01*
X119454Y141732D01*
X119591Y141041D01*
X119983Y140455D01*
X120569Y140063D01*
X121260Y139926D01*
X121951Y140063D01*
X122537Y140455D01*
X122586Y140528D01*
X145524D01*
X145573Y140455D01*
X146159Y140063D01*
X146850Y139926D01*
X147542Y140063D01*
X148128Y140455D01*
X148519Y141041D01*
X148657Y141732D01*
X148519Y142423D01*
X148128Y143010D01*
X147542Y143401D01*
X146850Y143539D01*
D02*
G37*
G36*
X538696Y188814D02*
X538005Y188677D01*
X537419Y188285D01*
X537027Y187699D01*
X536890Y187008D01*
X537027Y186317D01*
X537419Y185731D01*
X538005Y185339D01*
X538696Y185202D01*
X538782Y185219D01*
X539291Y184710D01*
Y165245D01*
X539218Y165197D01*
X538826Y164611D01*
X538689Y163919D01*
X538826Y163228D01*
X539218Y162642D01*
X539804Y162250D01*
X540495Y162113D01*
X541186Y162250D01*
X541772Y162642D01*
X542164Y163228D01*
X542301Y163919D01*
X542164Y164611D01*
X541772Y165197D01*
X541699Y165245D01*
Y178215D01*
X542199Y178385D01*
X542373Y178158D01*
X542949Y177717D01*
X543619Y177439D01*
X544339Y177344D01*
X551354D01*
Y128999D01*
X551274Y128944D01*
X550594Y129074D01*
X550490Y129230D01*
X549904Y129622D01*
X549213Y129759D01*
X549126Y129742D01*
X528189Y150679D01*
Y175839D01*
X528262Y175888D01*
X528654Y176474D01*
X528791Y177165D01*
X528654Y177857D01*
X528262Y178443D01*
X527676Y178834D01*
X526985Y178972D01*
X526294Y178834D01*
X525708Y178443D01*
X525316Y177857D01*
X525179Y177165D01*
X525316Y176474D01*
X525708Y175888D01*
X525781Y175839D01*
Y150180D01*
X525781Y150180D01*
X525873Y149720D01*
X526133Y149329D01*
X547423Y128039D01*
X547406Y127953D01*
X547544Y127261D01*
X547935Y126675D01*
X548521Y126284D01*
X549213Y126146D01*
X549904Y126284D01*
X550490Y126675D01*
X550594Y126832D01*
X551274Y126962D01*
X551354Y126906D01*
Y117427D01*
X549495Y115568D01*
X549055Y114994D01*
X542323Y108262D01*
X541118Y109466D01*
Y113469D01*
X541023Y114188D01*
X540746Y114858D01*
X540304Y115434D01*
X539728Y115876D01*
X539058Y116154D01*
X538339Y116248D01*
X537619Y116154D01*
X536949Y115876D01*
X536373Y115434D01*
X535931Y114858D01*
X535654Y114188D01*
X535559Y113469D01*
Y108315D01*
X535654Y107596D01*
X535931Y106925D01*
X536373Y106349D01*
X539543Y103179D01*
Y59222D01*
X537038Y56717D01*
X528740D01*
X528021Y56622D01*
X527350Y56344D01*
X526775Y55902D01*
X526333Y55327D01*
X526055Y54656D01*
X525960Y53937D01*
X526055Y53218D01*
X526333Y52547D01*
X526775Y51972D01*
X527350Y51530D01*
X528021Y51252D01*
X528740Y51157D01*
X538189D01*
X538908Y51252D01*
X539579Y51530D01*
X540155Y51972D01*
X542323Y54140D01*
X574935Y21528D01*
X574967Y21449D01*
X575214Y21127D01*
X575125Y20911D01*
X574984Y19842D01*
X575125Y18774D01*
X575537Y17778D01*
X576194Y16922D01*
X577049Y16266D01*
X578045Y15853D01*
X579114Y15713D01*
X580183Y15853D01*
X581179Y16266D01*
X582034Y16922D01*
X582690Y17778D01*
X583103Y18774D01*
X583244Y19842D01*
X583103Y20911D01*
X582690Y21907D01*
X582034Y22763D01*
X581179Y23419D01*
X580405Y23740D01*
X579815Y24330D01*
X579782Y24409D01*
X579340Y24984D01*
X545103Y59222D01*
Y97559D01*
X545266Y97641D01*
X545603Y97693D01*
X546194Y96922D01*
X547049Y96266D01*
X548045Y95853D01*
X549114Y95713D01*
X550183Y95853D01*
X551179Y96266D01*
X552034Y96922D01*
X552691Y97778D01*
X553103Y98774D01*
X553244Y99843D01*
X553103Y100911D01*
X552691Y101907D01*
X552034Y102763D01*
X551179Y103419D01*
X550183Y103832D01*
X549114Y103972D01*
X548045Y103832D01*
X547049Y103419D01*
X546194Y102763D01*
X545603Y101992D01*
X545266Y102044D01*
X545103Y102126D01*
Y103179D01*
X553426Y111503D01*
X553866Y112077D01*
X556099Y114310D01*
X556541Y114885D01*
X556819Y115556D01*
X556914Y116275D01*
Y178867D01*
X556896Y179001D01*
X556914Y179134D01*
X556819Y179853D01*
X556541Y180524D01*
X556099Y181099D01*
X555109Y182089D01*
X554534Y182531D01*
X553863Y182809D01*
X553144Y182904D01*
X544339D01*
X543619Y182809D01*
X542949Y182531D01*
X542373Y182089D01*
X542199Y181863D01*
X541699Y182033D01*
Y185209D01*
X541699Y185209D01*
X541608Y185670D01*
X541347Y186060D01*
X540485Y186922D01*
X540502Y187008D01*
X540365Y187699D01*
X539973Y188285D01*
X539387Y188677D01*
X538696Y188814D01*
D02*
G37*
G36*
X121260Y130153D02*
X120569Y130015D01*
X119983Y129624D01*
X119591Y129038D01*
X119454Y128347D01*
X119456Y128333D01*
X115789Y124665D01*
X115569Y124622D01*
X114983Y124230D01*
X114591Y123644D01*
X114454Y122953D01*
X114591Y122262D01*
X114983Y121676D01*
X115569Y121284D01*
X116260Y121147D01*
X116951Y121284D01*
X117537Y121676D01*
X117929Y122262D01*
X118066Y122953D01*
X118064Y122967D01*
X121731Y126634D01*
X121951Y126678D01*
X122537Y127069D01*
X122929Y127655D01*
X123066Y128347D01*
X122929Y129038D01*
X122537Y129624D01*
X121951Y130015D01*
X121260Y130153D01*
D02*
G37*
G36*
X465551Y126767D02*
X464860Y126629D01*
X464274Y126238D01*
X463882Y125652D01*
X463745Y124961D01*
X463882Y124269D01*
X464274Y123683D01*
X464544Y123503D01*
Y117323D01*
X464544Y117323D01*
X464636Y116862D01*
X464896Y116471D01*
X465140Y116228D01*
X465123Y116142D01*
X465260Y115451D01*
X465652Y114864D01*
X465903Y114696D01*
X465752Y114196D01*
X384003D01*
X383954Y114269D01*
X383368Y114661D01*
X382677Y114798D01*
X381986Y114661D01*
X381400Y114269D01*
X381008Y113683D01*
X380871Y112992D01*
X381008Y112301D01*
X381400Y111715D01*
X381986Y111323D01*
X382677Y111186D01*
X383368Y111323D01*
X383954Y111715D01*
X384003Y111788D01*
X484107D01*
X484156Y111715D01*
X484742Y111323D01*
X485433Y111186D01*
X486124Y111323D01*
X486710Y111715D01*
X487102Y112301D01*
X487239Y112992D01*
X487102Y113683D01*
X486710Y114269D01*
X486124Y114661D01*
X485433Y114798D01*
X484742Y114661D01*
X484156Y114269D01*
X484107Y114196D01*
X468107D01*
X467955Y114696D01*
X468206Y114864D01*
X468598Y115451D01*
X468736Y116142D01*
X468598Y116833D01*
X468206Y117419D01*
X467620Y117811D01*
X466952Y117944D01*
Y123869D01*
X467220Y124269D01*
X467357Y124961D01*
X467220Y125652D01*
X466828Y126238D01*
X466242Y126629D01*
X465551Y126767D01*
D02*
G37*
G36*
X344291Y110197D02*
X336811D01*
Y102717D01*
X344291D01*
Y110197D01*
D02*
G37*
G36*
X350551Y110229D02*
X349575Y110101D01*
X348665Y109724D01*
X347884Y109124D01*
X347284Y108343D01*
X346907Y107433D01*
X346779Y106457D01*
X346907Y105480D01*
X347284Y104570D01*
X347884Y103789D01*
X348665Y103190D01*
X349575Y102813D01*
X350551Y102684D01*
X351528Y102813D01*
X352437Y103190D01*
X353219Y103789D01*
X353818Y104570D01*
X354195Y105480D01*
X354324Y106457D01*
X354195Y107433D01*
X353818Y108343D01*
X353219Y109124D01*
X352437Y109724D01*
X351528Y110101D01*
X350551Y110229D01*
D02*
G37*
G36*
X603421Y104150D02*
X599614D01*
Y100343D01*
X603421D01*
Y104150D01*
D02*
G37*
G36*
X589614Y104121D02*
Y100343D01*
X593393D01*
X593310Y100967D01*
X592876Y102015D01*
X592186Y102914D01*
X591286Y103605D01*
X590238Y104039D01*
X589614Y104121D01*
D02*
G37*
G36*
X588614Y104121D02*
X587990Y104039D01*
X586942Y103605D01*
X586042Y102914D01*
X585352Y102015D01*
X584918Y100967D01*
X584836Y100343D01*
X588614D01*
Y104121D01*
D02*
G37*
G36*
X598614Y104150D02*
X594807D01*
Y100343D01*
X598614D01*
Y104150D01*
D02*
G37*
G36*
X361417Y112830D02*
X360726Y112692D01*
X360140Y112301D01*
X359749Y111715D01*
X359611Y111024D01*
X359749Y110332D01*
X360140Y109746D01*
X360726Y109355D01*
X361417Y109217D01*
X361504Y109234D01*
X372771Y97967D01*
X372771Y97967D01*
X373161Y97706D01*
X373622Y97615D01*
X498477D01*
X498526Y97542D01*
X499112Y97150D01*
X499803Y97013D01*
X500494Y97150D01*
X501080Y97542D01*
X501472Y98128D01*
X501610Y98819D01*
X501472Y99510D01*
X501080Y100096D01*
X500494Y100488D01*
X499803Y100625D01*
X499112Y100488D01*
X498526Y100096D01*
X498477Y100023D01*
X374121D01*
X363207Y110938D01*
X363224Y111024D01*
X363086Y111715D01*
X362695Y112301D01*
X362109Y112692D01*
X361417Y112830D01*
D02*
G37*
G36*
X579114Y103972D02*
X578045Y103832D01*
X577049Y103419D01*
X576194Y102763D01*
X575537Y101907D01*
X575125Y100911D01*
X574984Y99843D01*
X575125Y98774D01*
X575537Y97778D01*
X576194Y96922D01*
X577049Y96266D01*
X578045Y95853D01*
X579114Y95713D01*
X580183Y95853D01*
X581179Y96266D01*
X582034Y96922D01*
X582690Y97778D01*
X583103Y98774D01*
X583244Y99843D01*
X583103Y100911D01*
X582690Y101907D01*
X582034Y102763D01*
X581179Y103419D01*
X580183Y103832D01*
X579114Y103972D01*
D02*
G37*
G36*
X569114D02*
X568045Y103832D01*
X567049Y103419D01*
X566194Y102763D01*
X565538Y101907D01*
X565125Y100911D01*
X564984Y99843D01*
X565125Y98774D01*
X565538Y97778D01*
X566194Y96922D01*
X567049Y96266D01*
X568045Y95853D01*
X569114Y95713D01*
X570183Y95853D01*
X571179Y96266D01*
X572034Y96922D01*
X572690Y97778D01*
X573103Y98774D01*
X573244Y99843D01*
X573103Y100911D01*
X572690Y101907D01*
X572034Y102763D01*
X571179Y103419D01*
X570183Y103832D01*
X569114Y103972D01*
D02*
G37*
G36*
X559114D02*
X558045Y103832D01*
X557049Y103419D01*
X556194Y102763D01*
X555538Y101907D01*
X555125Y100911D01*
X554984Y99843D01*
X555125Y98774D01*
X555538Y97778D01*
X556194Y96922D01*
X557049Y96266D01*
X558045Y95853D01*
X559114Y95713D01*
X560183Y95853D01*
X561179Y96266D01*
X562034Y96922D01*
X562690Y97778D01*
X563103Y98774D01*
X563244Y99843D01*
X563103Y100911D01*
X562690Y101907D01*
X562034Y102763D01*
X561179Y103419D01*
X560183Y103832D01*
X559114Y103972D01*
D02*
G37*
G36*
X588614Y99343D02*
X584836D01*
X584918Y98718D01*
X585352Y97670D01*
X586042Y96771D01*
X586942Y96080D01*
X587990Y95646D01*
X588614Y95564D01*
Y99343D01*
D02*
G37*
G36*
X593393D02*
X589614D01*
Y95564D01*
X590238Y95646D01*
X591286Y96080D01*
X592186Y96771D01*
X592876Y97670D01*
X593310Y98718D01*
X593393Y99343D01*
D02*
G37*
G36*
X603421D02*
X599614D01*
Y95535D01*
X603421D01*
Y99343D01*
D02*
G37*
G36*
X598614D02*
X594807D01*
Y95535D01*
X598614D01*
Y99343D01*
D02*
G37*
G36*
X350551Y100229D02*
X349575Y100101D01*
X348665Y99724D01*
X347884Y99124D01*
X347284Y98343D01*
X346907Y97433D01*
X346779Y96457D01*
X346907Y95480D01*
X347284Y94570D01*
X347884Y93789D01*
X348665Y93190D01*
X349575Y92813D01*
X350551Y92684D01*
X351528Y92813D01*
X352437Y93190D01*
X353219Y93789D01*
X353818Y94570D01*
X354195Y95480D01*
X354324Y96457D01*
X354195Y97433D01*
X353818Y98343D01*
X353219Y99124D01*
X352437Y99724D01*
X351528Y100101D01*
X350551Y100229D01*
D02*
G37*
G36*
X340551D02*
X339575Y100101D01*
X338665Y99724D01*
X337884Y99124D01*
X337284Y98343D01*
X336907Y97433D01*
X336779Y96457D01*
X336907Y95480D01*
X337284Y94570D01*
X337884Y93789D01*
X338665Y93190D01*
X339575Y92813D01*
X340551Y92684D01*
X341528Y92813D01*
X342437Y93190D01*
X343219Y93789D01*
X343818Y94570D01*
X344195Y95480D01*
X344324Y96457D01*
X344195Y97433D01*
X343818Y98343D01*
X343219Y99124D01*
X342437Y99724D01*
X341528Y100101D01*
X340551Y100229D01*
D02*
G37*
G36*
X351051Y90378D02*
Y86957D01*
X354472D01*
X354402Y87489D01*
X354004Y88450D01*
X353370Y89276D01*
X352545Y89909D01*
X351583Y90308D01*
X351051Y90378D01*
D02*
G37*
G36*
X350051D02*
X349519Y90308D01*
X348558Y89909D01*
X347732Y89276D01*
X347098Y88450D01*
X346700Y87489D01*
X346630Y86957D01*
X350051D01*
Y90378D01*
D02*
G37*
G36*
X361417Y102594D02*
X360726Y102456D01*
X360140Y102065D01*
X359749Y101479D01*
X359611Y100787D01*
X359749Y100096D01*
X360140Y99510D01*
X360726Y99119D01*
X361417Y98981D01*
X361504Y98998D01*
X373952Y86550D01*
X373952Y86550D01*
X374342Y86289D01*
X374803Y86197D01*
X490521D01*
X490654Y85529D01*
X491046Y84943D01*
X491632Y84552D01*
X492323Y84414D01*
X493014Y84552D01*
X493600Y84943D01*
X493992Y85529D01*
X494129Y86221D01*
X493992Y86912D01*
X493600Y87498D01*
X493014Y87889D01*
X492323Y88027D01*
X492237Y88010D01*
X491993Y88253D01*
X491603Y88514D01*
X491142Y88606D01*
X491142Y88606D01*
X375302D01*
X363207Y100701D01*
X363224Y100787D01*
X363086Y101479D01*
X362695Y102065D01*
X362109Y102456D01*
X361417Y102594D01*
D02*
G37*
G36*
X340551Y90229D02*
X339575Y90101D01*
X338665Y89724D01*
X337884Y89124D01*
X337284Y88343D01*
X336907Y87433D01*
X336779Y86457D01*
X336907Y85480D01*
X337284Y84570D01*
X337884Y83789D01*
X338665Y83190D01*
X339575Y82813D01*
X340551Y82684D01*
X341528Y82813D01*
X342437Y83190D01*
X343219Y83789D01*
X343818Y84570D01*
X344195Y85480D01*
X344324Y86457D01*
X344195Y87433D01*
X343818Y88343D01*
X343219Y89124D01*
X342437Y89724D01*
X341528Y90101D01*
X340551Y90229D01*
D02*
G37*
G36*
X350051Y85957D02*
X346630D01*
X346700Y85425D01*
X347098Y84463D01*
X347732Y83637D01*
X348558Y83004D01*
X349519Y82606D01*
X350051Y82536D01*
Y85957D01*
D02*
G37*
G36*
X354472D02*
X351051D01*
Y82536D01*
X351583Y82606D01*
X352545Y83004D01*
X353370Y83637D01*
X354004Y84463D01*
X354402Y85425D01*
X354472Y85957D01*
D02*
G37*
G36*
X130905Y88420D02*
X130214Y88283D01*
X129628Y87892D01*
X129237Y87305D01*
X129099Y86614D01*
Y76603D01*
X128443Y76472D01*
X127857Y76080D01*
X127465Y75494D01*
X127328Y74803D01*
X127465Y74112D01*
X127857Y73526D01*
X128443Y73134D01*
X129134Y72997D01*
X129825Y73134D01*
X130020Y73264D01*
X130214Y73134D01*
X130905Y72997D01*
X207874D01*
X208565Y73134D01*
X209151Y73526D01*
X209543Y74112D01*
X209680Y74803D01*
X209543Y75494D01*
X209151Y76080D01*
X208565Y76472D01*
X207874Y76609D01*
X132712D01*
Y86614D01*
X132574Y87305D01*
X132183Y87892D01*
X131597Y88283D01*
X130905Y88420D01*
D02*
G37*
G36*
X63492Y40765D02*
Y28059D01*
X76198D01*
X76075Y29631D01*
X75589Y31652D01*
X74794Y33572D01*
X73708Y35345D01*
X72358Y36925D01*
X70778Y38275D01*
X69006Y39361D01*
X67085Y40156D01*
X65064Y40641D01*
X63492Y40765D01*
D02*
G37*
G36*
X62492D02*
X60920Y40641D01*
X58899Y40156D01*
X56979Y39361D01*
X55207Y38275D01*
X53626Y36925D01*
X52276Y35345D01*
X51190Y33572D01*
X50395Y31652D01*
X49910Y29631D01*
X49786Y28059D01*
X62492D01*
Y40765D01*
D02*
G37*
G36*
X500500Y36828D02*
Y24122D01*
X513206D01*
X513083Y25694D01*
X512597Y27715D01*
X511802Y29635D01*
X510716Y31408D01*
X509366Y32988D01*
X507786Y34338D01*
X506013Y35424D01*
X504093Y36219D01*
X502072Y36704D01*
X500500Y36828D01*
D02*
G37*
G36*
X499500D02*
X497928Y36704D01*
X495907Y36219D01*
X493987Y35424D01*
X492214Y34338D01*
X490634Y32988D01*
X489284Y31408D01*
X488198Y29635D01*
X487403Y27715D01*
X486917Y25694D01*
X486794Y24122D01*
X499500D01*
Y36828D01*
D02*
G37*
G36*
X603421Y24150D02*
X599614D01*
Y20343D01*
X603421D01*
Y24150D01*
D02*
G37*
G36*
X598614D02*
X594807D01*
Y20343D01*
X598614D01*
Y24150D01*
D02*
G37*
G36*
X461614Y42283D02*
X390748D01*
Y18661D01*
X461614D01*
Y42283D01*
D02*
G37*
G36*
X589114Y23972D02*
X588045Y23832D01*
X587049Y23419D01*
X586194Y22763D01*
X585537Y21907D01*
X585125Y20911D01*
X584984Y19842D01*
X585125Y18774D01*
X585537Y17778D01*
X586194Y16922D01*
X587049Y16266D01*
X588045Y15853D01*
X589114Y15713D01*
X590183Y15853D01*
X591179Y16266D01*
X592034Y16922D01*
X592691Y17778D01*
X593103Y18774D01*
X593244Y19842D01*
X593103Y20911D01*
X592691Y21907D01*
X592034Y22763D01*
X591179Y23419D01*
X590183Y23832D01*
X589114Y23972D01*
D02*
G37*
G36*
X569114D02*
X568045Y23832D01*
X567049Y23419D01*
X566194Y22763D01*
X565538Y21907D01*
X565125Y20911D01*
X564984Y19842D01*
X565125Y18774D01*
X565538Y17778D01*
X566194Y16922D01*
X567049Y16266D01*
X568045Y15853D01*
X569114Y15713D01*
X570183Y15853D01*
X571179Y16266D01*
X572034Y16922D01*
X572690Y17778D01*
X573103Y18774D01*
X573244Y19842D01*
X573103Y20911D01*
X572690Y21907D01*
X572034Y22763D01*
X571179Y23419D01*
X570183Y23832D01*
X569114Y23972D01*
D02*
G37*
G36*
X559114D02*
X558045Y23832D01*
X557049Y23419D01*
X556194Y22763D01*
X555538Y21907D01*
X555125Y20911D01*
X554984Y19842D01*
X555125Y18774D01*
X555538Y17778D01*
X556194Y16922D01*
X557049Y16266D01*
X558045Y15853D01*
X559114Y15713D01*
X560183Y15853D01*
X561179Y16266D01*
X562034Y16922D01*
X562690Y17778D01*
X563103Y18774D01*
X563244Y19842D01*
X563103Y20911D01*
X562690Y21907D01*
X562034Y22763D01*
X561179Y23419D01*
X560183Y23832D01*
X559114Y23972D01*
D02*
G37*
G36*
X549114D02*
X548045Y23832D01*
X547049Y23419D01*
X546194Y22763D01*
X545538Y21907D01*
X545125Y20911D01*
X544984Y19842D01*
X545125Y18774D01*
X545538Y17778D01*
X546194Y16922D01*
X547049Y16266D01*
X548045Y15853D01*
X549114Y15713D01*
X550183Y15853D01*
X551179Y16266D01*
X552034Y16922D01*
X552691Y17778D01*
X553103Y18774D01*
X553244Y19842D01*
X553103Y20911D01*
X552691Y21907D01*
X552034Y22763D01*
X551179Y23419D01*
X550183Y23832D01*
X549114Y23972D01*
D02*
G37*
G36*
X603421Y19342D02*
X599614D01*
Y15536D01*
X603421D01*
Y19342D01*
D02*
G37*
G36*
X598614D02*
X594807D01*
Y15536D01*
X598614D01*
Y19342D01*
D02*
G37*
G36*
X76198Y27059D02*
X63492D01*
Y14353D01*
X65064Y14477D01*
X67085Y14962D01*
X69006Y15757D01*
X70778Y16843D01*
X72358Y18193D01*
X73708Y19773D01*
X74794Y21546D01*
X75589Y23466D01*
X76075Y25487D01*
X76198Y27059D01*
D02*
G37*
G36*
X62492D02*
X49786D01*
X49910Y25487D01*
X50395Y23466D01*
X51190Y21546D01*
X52276Y19773D01*
X53626Y18193D01*
X55207Y16843D01*
X56979Y15757D01*
X58899Y14962D01*
X60920Y14477D01*
X62492Y14353D01*
Y27059D01*
D02*
G37*
G36*
X513206Y23122D02*
X500500D01*
Y10416D01*
X502072Y10540D01*
X504093Y11025D01*
X506013Y11820D01*
X507786Y12906D01*
X509366Y14256D01*
X510716Y15836D01*
X511802Y17609D01*
X512597Y19529D01*
X513083Y21550D01*
X513206Y23122D01*
D02*
G37*
G36*
X499500D02*
X486794D01*
X486917Y21550D01*
X487403Y19529D01*
X488198Y17609D01*
X489284Y15836D01*
X490634Y14256D01*
X492214Y12906D01*
X493987Y11820D01*
X495907Y11025D01*
X497928Y10540D01*
X499500Y10416D01*
Y23122D01*
D02*
G37*
G36*
X616929Y165724D02*
X614567D01*
X614548Y165720D01*
X614529Y165723D01*
X614363Y165715D01*
X614326Y165706D01*
X614288Y165708D01*
X614205Y165696D01*
X614184Y165689D01*
X614161Y165689D01*
X614083Y165673D01*
X614069Y165667D01*
X614054Y165667D01*
X613972Y165647D01*
X613950Y165637D01*
X613927Y165635D01*
X613848Y165612D01*
X613826Y165600D01*
X613801Y165596D01*
X613726Y165568D01*
X613717Y165562D01*
X613706Y165560D01*
X613627Y165529D01*
X613606Y165515D01*
X613582Y165509D01*
X613507Y165474D01*
X613486Y165458D01*
X613460Y165450D01*
X613390Y165410D01*
X613377Y165400D01*
X613361Y165394D01*
X613290Y165350D01*
X613282Y165343D01*
X613273Y165339D01*
X613206Y165296D01*
X613183Y165274D01*
X613154Y165260D01*
X613087Y165209D01*
X613069Y165188D01*
X613046Y165175D01*
X612983Y165120D01*
X612975Y165110D01*
X612964Y165103D01*
X612905Y165048D01*
X612899Y165039D01*
X612825Y164990D01*
X612758Y164890D01*
X612738Y164867D01*
X612725Y164844D01*
X612705Y164826D01*
X612654Y164759D01*
X612640Y164731D01*
X612617Y164708D01*
X612574Y164641D01*
X612570Y164631D01*
X612563Y164623D01*
X612520Y164552D01*
X612514Y164537D01*
X612503Y164524D01*
X612464Y164453D01*
X612461Y164445D01*
X612321Y164236D01*
X612244Y163846D01*
X613075D01*
X613098Y163909D01*
X613130Y163988D01*
X613165Y164063D01*
X613205Y164134D01*
X613248Y164205D01*
X613291Y164272D01*
X613343Y164339D01*
X613398Y164402D01*
X613453Y164461D01*
X613512Y164516D01*
X613575Y164571D01*
X613642Y164622D01*
X613709Y164665D01*
X613779Y164709D01*
X613850Y164748D01*
X613925Y164784D01*
X614004Y164815D01*
X614079Y164842D01*
X614157Y164866D01*
X614240Y164886D01*
X614319Y164902D01*
X614402Y164913D01*
X614484Y164917D01*
X614567Y164921D01*
X616929D01*
X617012Y164917D01*
X617095Y164913D01*
X617177Y164902D01*
X617256Y164886D01*
X617339Y164866D01*
X617417Y164842D01*
X617492Y164815D01*
X617571Y164784D01*
X617646Y164748D01*
X617717Y164709D01*
X617787Y164665D01*
X617854Y164622D01*
X617921Y164571D01*
X617984Y164516D01*
X618043Y164461D01*
X618098Y164402D01*
X618153Y164339D01*
X618205Y164272D01*
X618248Y164205D01*
X618291Y164134D01*
X618331Y164063D01*
X618366Y163988D01*
X618398Y163909D01*
X618421Y163846D01*
X619252D01*
X619175Y164236D01*
X619035Y164445D01*
X619032Y164453D01*
X618993Y164524D01*
X618982Y164537D01*
X618976Y164552D01*
X618933Y164623D01*
X618926Y164631D01*
X618922Y164641D01*
X618879Y164708D01*
X618856Y164731D01*
X618843Y164759D01*
X618791Y164826D01*
X618771Y164844D01*
X618758Y164867D01*
X618738Y164890D01*
X618671Y164990D01*
X618597Y165039D01*
X618591Y165048D01*
X618532Y165103D01*
X618521Y165110D01*
X618513Y165120D01*
X618450Y165175D01*
X618427Y165188D01*
X618409Y165209D01*
X618342Y165260D01*
X618313Y165274D01*
X618290Y165296D01*
X618223Y165339D01*
X618214Y165343D01*
X618206Y165350D01*
X618135Y165394D01*
X618119Y165400D01*
X618106Y165410D01*
X618036Y165450D01*
X618011Y165458D01*
X617989Y165474D01*
X617914Y165509D01*
X617890Y165515D01*
X617869Y165529D01*
X617790Y165560D01*
X617779Y165562D01*
X617770Y165568D01*
X617695Y165596D01*
X617670Y165600D01*
X617648Y165612D01*
X617569Y165635D01*
X617546Y165637D01*
X617525Y165647D01*
X617442Y165667D01*
X617427Y165667D01*
X617413Y165673D01*
X617335Y165689D01*
X617312Y165689D01*
X617291Y165696D01*
X617208Y165708D01*
X617170Y165706D01*
X617133Y165715D01*
X616967Y165723D01*
X616948Y165720D01*
X616929Y165724D01*
D02*
G37*
G36*
X619252Y127492D02*
X618421D01*
X618398Y127429D01*
X618366Y127350D01*
X618331Y127276D01*
X618291Y127205D01*
X618248Y127134D01*
X618205Y127067D01*
X618153Y127000D01*
X618098Y126937D01*
X618043Y126878D01*
X617984Y126823D01*
X617921Y126768D01*
X617854Y126716D01*
X617787Y126673D01*
X617717Y126630D01*
X617646Y126591D01*
X617571Y126555D01*
X617492Y126524D01*
X617417Y126496D01*
X617339Y126472D01*
X617256Y126453D01*
X617177Y126437D01*
X617095Y126425D01*
X617012Y126421D01*
X616929Y126417D01*
X614567D01*
X614484Y126421D01*
X614402Y126425D01*
X614319Y126437D01*
X614240Y126453D01*
X614157Y126472D01*
X614079Y126496D01*
X614004Y126524D01*
X613925Y126555D01*
X613850Y126591D01*
X613779Y126630D01*
X613709Y126673D01*
X613642Y126716D01*
X613575Y126768D01*
X613512Y126823D01*
X613453Y126878D01*
X613398Y126937D01*
X613343Y127000D01*
X613291Y127067D01*
X613248Y127134D01*
X613205Y127205D01*
X613165Y127276D01*
X613130Y127350D01*
X613098Y127429D01*
X613075Y127492D01*
X612244D01*
X612321Y127103D01*
X612461Y126893D01*
X612464Y126886D01*
X612503Y126815D01*
X612514Y126802D01*
X612520Y126786D01*
X612563Y126715D01*
X612570Y126707D01*
X612574Y126698D01*
X612617Y126631D01*
X612640Y126608D01*
X612654Y126579D01*
X612705Y126512D01*
X612725Y126495D01*
X612738Y126471D01*
X612758Y126448D01*
X612825Y126349D01*
X612899Y126299D01*
X612905Y126291D01*
X612964Y126236D01*
X612975Y126229D01*
X612983Y126219D01*
X613046Y126163D01*
X613069Y126150D01*
X613087Y126130D01*
X613154Y126079D01*
X613183Y126065D01*
X613206Y126042D01*
X613273Y125999D01*
X613282Y125995D01*
X613290Y125988D01*
X613361Y125945D01*
X613377Y125939D01*
X613390Y125928D01*
X613460Y125889D01*
X613486Y125881D01*
X613507Y125865D01*
X613582Y125830D01*
X613606Y125823D01*
X613627Y125810D01*
X613706Y125778D01*
X613717Y125776D01*
X613726Y125770D01*
X613801Y125743D01*
X613826Y125739D01*
X613848Y125727D01*
X613927Y125704D01*
X613950Y125701D01*
X613972Y125691D01*
X614054Y125672D01*
X614069Y125671D01*
X614083Y125665D01*
X614161Y125650D01*
X614184Y125650D01*
X614205Y125642D01*
X614288Y125630D01*
X614326Y125633D01*
X614363Y125623D01*
X614529Y125615D01*
X614548Y125618D01*
X614567Y125615D01*
X616929D01*
X616948Y125618D01*
X616967Y125615D01*
X617133Y125623D01*
X617170Y125633D01*
X617208Y125630D01*
X617291Y125642D01*
X617312Y125650D01*
X617335Y125650D01*
X617413Y125665D01*
X617427Y125671D01*
X617442Y125672D01*
X617525Y125691D01*
X617546Y125701D01*
X617569Y125704D01*
X617648Y125727D01*
X617670Y125739D01*
X617695Y125743D01*
X617770Y125770D01*
X617779Y125776D01*
X617790Y125778D01*
X617869Y125810D01*
X617890Y125823D01*
X617914Y125830D01*
X617989Y125865D01*
X618011Y125881D01*
X618036Y125889D01*
X618106Y125928D01*
X618119Y125939D01*
X618135Y125945D01*
X618206Y125988D01*
X618214Y125995D01*
X618223Y125999D01*
X618290Y126042D01*
X618313Y126065D01*
X618342Y126079D01*
X618409Y126130D01*
X618427Y126150D01*
X618450Y126163D01*
X618513Y126219D01*
X618521Y126229D01*
X618532Y126236D01*
X618591Y126291D01*
X618597Y126299D01*
X618671Y126349D01*
X618738Y126448D01*
X618758Y126471D01*
X618771Y126495D01*
X618791Y126512D01*
X618843Y126579D01*
X618856Y126608D01*
X618879Y126631D01*
X618922Y126698D01*
X618926Y126707D01*
X618933Y126715D01*
X618976Y126786D01*
X618982Y126802D01*
X618993Y126815D01*
X619032Y126886D01*
X619035Y126893D01*
X619175Y127103D01*
X619252Y127492D01*
D02*
G37*
%LPD*%
D12*
X452756Y455709D02*
X452953Y455905D01*
Y456496D02*
X457087Y460630D01*
X452953Y455905D02*
Y456496D01*
X457087Y460630D02*
X464567D01*
X377953Y298031D02*
Y343431D01*
X377165Y344218D02*
X377953Y343431D01*
X377165Y344218D02*
Y355118D01*
X612079Y147764D02*
X612992Y146850D01*
X605905Y140945D02*
X612531D01*
X612992Y141406D01*
Y146850D01*
X610454Y147764D02*
X612079D01*
X610383Y147835D02*
X610454Y147764D01*
X604513Y139172D02*
Y139552D01*
X603893Y138552D02*
X604513Y139172D01*
Y139552D02*
X605905Y140945D01*
X603893Y138233D02*
Y138552D01*
X610610Y143307D02*
X610715Y143203D01*
X603937Y146850D02*
X607480Y143307D01*
X610610D01*
X362008Y383355D02*
Y387598D01*
Y383355D02*
X364173Y381190D01*
Y370866D02*
Y381190D01*
X360630Y388976D02*
X362008Y387598D01*
X412992Y293178D02*
Y298031D01*
Y293178D02*
X413779Y292390D01*
Y292126D02*
Y292390D01*
X603711Y146624D02*
X603937Y146850D01*
X601013Y143139D02*
X603711Y145837D01*
X600787Y142520D02*
X601013Y142746D01*
X603711Y145837D02*
Y146624D01*
X601013Y142746D02*
Y143139D01*
X526985Y150180D02*
Y177165D01*
Y150180D02*
X549213Y127953D01*
X121260Y141732D02*
X146850D01*
X101969Y151575D02*
X120079D01*
X514567Y298031D02*
Y322835D01*
X512205Y293307D02*
Y325197D01*
X516929Y295669D02*
Y325197D01*
X444882Y274187D02*
Y287008D01*
Y274187D02*
X446654Y272415D01*
Y268394D02*
Y272415D01*
X446610Y268351D02*
X446654Y268394D01*
X446610Y267870D02*
Y268351D01*
X444095Y265354D02*
X446610Y267870D01*
X440551Y265354D02*
X444095D01*
X444488Y269291D02*
Y272354D01*
X442913Y273928D02*
X444488Y272354D01*
X438976Y269292D02*
Y302755D01*
X441506Y269517D02*
X441732Y269291D01*
X441339Y270343D02*
X441506Y270175D01*
X441339Y270343D02*
Y307480D01*
X441506Y269517D02*
Y270175D01*
X436221Y269291D02*
Y302754D01*
Y269291D02*
X436221Y269291D01*
X451249Y293375D02*
X451901D01*
X451968Y293307D01*
X444882Y287008D02*
X451249Y293375D01*
X451968Y293307D02*
X462598D01*
X519685Y383071D02*
X519685Y383071D01*
X519685Y383071D02*
Y397638D01*
X514567Y383071D02*
X514567Y383071D01*
X514567Y383071D02*
Y397638D01*
X497244Y283465D02*
X497244Y283465D01*
X497244Y283465D02*
Y309842D01*
X500000Y283465D02*
X500000Y283465D01*
X500000Y283465D02*
Y305118D01*
X502756Y283465D02*
X502756Y283465D01*
X502756Y283465D02*
Y300394D01*
X361417Y100787D02*
X374803Y87402D01*
X491142D02*
X492323Y86221D01*
X374803Y87402D02*
X491142D01*
X482283Y265748D02*
X541339D01*
X445521Y241880D02*
X450129D01*
X450149Y241900D02*
X450955D01*
X450129Y241880D02*
X450149Y241900D01*
X436220Y302755D02*
X436221Y302754D01*
X443701Y309842D02*
X445276D01*
X447637Y307481D01*
Y307480D02*
Y307481D01*
X441339Y307480D02*
X443701Y309842D01*
X516929Y366929D02*
Y395276D01*
X512205Y366929D02*
Y395276D01*
X442913Y305906D02*
X444488Y307480D01*
X442913Y273928D02*
Y305906D01*
X487598Y469487D02*
X490158Y472047D01*
X480295Y469487D02*
X487598D01*
X474585Y475197D02*
X480295Y469487D01*
X484056Y471653D02*
X484645D01*
X477362Y478346D02*
X484056Y471653D01*
X104331Y300197D02*
X117520Y287008D01*
X144882D01*
X117520Y204331D02*
X144882D01*
X104331Y217520D02*
X117520Y204331D01*
X82303Y283839D02*
X85630Y280512D01*
X54291Y283839D02*
X82303D01*
Y201161D02*
X85630Y197835D01*
X54291Y201161D02*
X82303D01*
X310630Y155241D02*
Y163386D01*
Y155241D02*
X312007Y153864D01*
Y148622D02*
Y153864D01*
X310630Y163386D02*
X316142Y168898D01*
X45958Y270476D02*
X46627Y269807D01*
X20669Y270669D02*
X20862Y270476D01*
X45958D01*
X323031Y178296D02*
Y180818D01*
X322987Y178251D02*
X323031Y178296D01*
X322987Y177761D02*
Y178251D01*
X321763Y182087D02*
X323031Y180818D01*
X309842Y212598D02*
X318985D01*
X310408Y214764D02*
X319882D01*
X325984Y208661D01*
X318985Y212598D02*
X325790Y205793D01*
X325875D01*
X319685Y236221D02*
X320866D01*
X315945Y232480D02*
X319685Y236221D01*
X250000Y230315D02*
X318898D01*
X245472Y232480D02*
X315945D01*
X245276Y232283D02*
X245472Y232480D01*
X269685Y236221D02*
X279528D01*
X255906Y358268D02*
X278476D01*
X179134Y196850D02*
X192913D01*
X183071Y263779D02*
X191142D01*
X177165Y358268D02*
X196850D01*
X175197Y220472D02*
X188976D01*
X101378Y184055D02*
X102362Y185039D01*
X27559Y184055D02*
X101378D01*
X27559Y266732D02*
X101378D01*
X102362Y267717D01*
X27559Y349410D02*
X101378D01*
X102362Y350394D01*
X30512Y366142D02*
X48216D01*
X30512Y283465D02*
X48216D01*
X30512Y200787D02*
X48216D01*
X52621Y205193D01*
X33465Y192913D02*
X41838D01*
X33465Y275590D02*
X41838D01*
X42621Y274807D01*
X33465Y358268D02*
X41838D01*
X41651Y187130D02*
X71427D01*
X74145Y189848D02*
X74441D01*
X71427Y187130D02*
X74145Y189848D01*
X41576Y187205D02*
X41651Y187130D01*
X20866Y187205D02*
X41576D01*
X20669Y187008D02*
X20866Y187205D01*
X71723Y269807D02*
X74441Y272525D01*
X46627Y269807D02*
X71723D01*
X20669Y353346D02*
X24606D01*
X72047Y352713D02*
Y352809D01*
X71818Y352484D02*
X72047Y352713D01*
X25469Y352484D02*
X71818D01*
X24606Y353346D02*
X25469Y352484D01*
X72047Y352809D02*
X74441Y355202D01*
X48216Y283465D02*
X52621Y287870D01*
X41838Y358268D02*
X42621Y357484D01*
X46155D01*
X41838Y192913D02*
X42621Y192130D01*
X144656Y369911D02*
X144882Y369685D01*
X143830Y370079D02*
X143998Y369911D01*
X104331Y382874D02*
X117126Y370079D01*
X143998Y369911D02*
X144656D01*
X117126Y370079D02*
X143830D01*
X332677Y180709D02*
Y235827D01*
X330118Y178740D02*
X330438D01*
X330886Y179189D01*
X331157D01*
X332677Y180709D01*
X329528Y238976D02*
X332677Y235827D01*
X408661Y251575D02*
X408815Y251728D01*
X413933D01*
X88583Y194882D02*
X90551Y196850D01*
X100787D01*
X51155Y197130D02*
X54688D01*
X42621Y192130D02*
X46155D01*
X51155Y197130D01*
X54688D02*
X56936Y194882D01*
X88583D01*
Y277559D02*
X90551Y279528D01*
X100787D01*
X51155Y279807D02*
X54688D01*
X42621Y274807D02*
X46155D01*
X51155Y279807D01*
X54688D02*
X56936Y277559D01*
X88583D01*
X58398Y202756D02*
X100787D01*
X55961Y205193D02*
X58398Y202756D01*
X52621Y205193D02*
X55961D01*
X58398Y285433D02*
X100787D01*
X55961Y287870D02*
X58398Y285433D01*
X52621Y287870D02*
X55961D01*
X56936Y360236D02*
X88583D01*
X54688Y362484D02*
X56936Y360236D01*
X46155Y357484D02*
X51155Y362484D01*
X54688D01*
X90551Y362205D02*
X100787D01*
X88583Y360236D02*
X90551Y362205D01*
X48216Y366142D02*
X52621Y370547D01*
X55961D01*
X58398Y368110D01*
X100787D01*
X175984Y303937D02*
X183465D01*
X309340Y215833D02*
X310408Y214764D01*
X320669Y180118D02*
X320866Y179921D01*
X313276Y180118D02*
X320669D01*
X310433Y179502D02*
X313018Y182087D01*
X321763D01*
X310236Y169291D02*
X310433Y169488D01*
Y179502D01*
X310097Y166090D02*
X312992Y168985D01*
X312008Y177056D02*
Y178850D01*
X312992Y168985D02*
Y176072D01*
X312008Y178850D02*
X313276Y180118D01*
X312008Y177056D02*
X312992Y176072D01*
X146457Y221654D02*
X146653Y221457D01*
X131496Y221654D02*
X146457D01*
X129527Y218110D02*
Y219685D01*
X131496Y221654D01*
X146457Y304331D02*
X146653Y304134D01*
X131496Y304331D02*
X146457D01*
X129527Y300787D02*
Y302362D01*
X131496Y304331D01*
X82303Y366516D02*
X85630Y363189D01*
X54291Y366516D02*
X82303D01*
X316142Y168898D02*
Y176378D01*
X314493Y177953D02*
X315040Y177406D01*
X315114D01*
X316142Y176378D01*
X314173Y177953D02*
X314493D01*
X340551Y188976D02*
Y236153D01*
X336614Y185433D02*
Y236153D01*
X335630Y237137D02*
X336614Y236153D01*
X477559Y159055D02*
X478740Y157874D01*
X452362Y159055D02*
X477559D01*
X478740Y155118D02*
Y157874D01*
X477811Y154189D02*
X478740Y155118D01*
X476378Y154134D02*
X476433Y154189D01*
X477811D01*
X470276Y151378D02*
X476378D01*
X467520Y154134D02*
X470276Y151378D01*
X478808Y145234D02*
Y148161D01*
X476378Y148622D02*
X478346D01*
X478808Y148161D01*
X466535Y151575D02*
X472244Y145866D01*
X476378D01*
X464764Y143110D02*
X466339Y141535D01*
X476378D01*
X477275Y143701D02*
X478808Y145234D01*
X465551Y149016D02*
X470866Y143701D01*
X477275D01*
X453543Y143110D02*
X464764D01*
X453995Y151575D02*
X466535D01*
X453811Y151391D02*
X453995Y151575D01*
X454382Y148870D02*
X454528Y149016D01*
X453586Y148644D02*
X453813Y148870D01*
X454382D01*
X454528Y149016D02*
X465551D01*
X450787Y147638D02*
X452304Y146121D01*
X453166D01*
X453392Y145895D01*
X450787Y147638D02*
Y157480D01*
X453740Y156693D02*
X476378D01*
X453543Y156890D02*
X453740Y156693D01*
X420866Y187205D02*
X421063Y187008D01*
X442200D02*
X442594Y187402D01*
X421063Y187008D02*
X442200D01*
X442594Y187402D02*
X442913D01*
X465748Y117323D02*
X466929Y116142D01*
X465748Y117323D02*
Y124764D01*
X465551Y124961D02*
X465748Y124764D01*
X420866Y176181D02*
X442919D01*
X420866Y178937D02*
X442886D01*
X420866Y181693D02*
X442724D01*
X431102Y220472D02*
Y228346D01*
X423228Y212598D02*
X431102Y220472D01*
X421654Y212598D02*
X423228D01*
X457874Y218898D02*
Y225984D01*
X339567Y237137D02*
Y237205D01*
Y237137D02*
X340551Y236153D01*
X335630Y237137D02*
Y237205D01*
X450394Y478346D02*
X477362D01*
X450787Y157480D02*
X452362Y159055D01*
X453543Y154134D02*
X467520D01*
X442851Y184449D02*
X442886Y184414D01*
X420866Y184449D02*
X442851D01*
X259055Y296850D02*
X279528D01*
X278476Y358268D02*
X279263Y357480D01*
X279528D01*
X373622Y98819D02*
X499803D01*
X361417Y111024D02*
X373622Y98819D01*
X382677Y112992D02*
X485433D01*
X540495Y163919D02*
Y185209D01*
X538696Y187008D02*
X540495Y185209D01*
X131496Y387008D02*
X146457D01*
X146653Y386811D01*
X129527Y383465D02*
Y385039D01*
X131496Y387008D01*
X483268Y430905D02*
Y462972D01*
X480709Y428346D02*
X483268Y430905D01*
X474192Y472047D02*
X483268Y462972D01*
X450000Y472047D02*
X474192D01*
X450394Y475197D02*
X474585D01*
D13*
X398819Y295669D02*
Y313779D01*
Y291732D02*
Y295669D01*
X168504Y74803D02*
X207874D01*
X130905D02*
X168504D01*
X130905D02*
Y86614D01*
X528920Y286041D02*
X531890Y283071D01*
X553150D01*
X528543Y288189D02*
X528920Y287812D01*
Y286041D02*
Y287812D01*
X553150Y253150D02*
Y283071D01*
Y300000D01*
X555512Y302362D01*
X553150Y209055D02*
X553150Y209055D01*
X553150Y209055D02*
Y253150D01*
X528740Y313779D02*
Y322835D01*
X464567Y224410D02*
X481882Y241724D01*
Y252370D01*
X418110Y262992D02*
X418307Y262795D01*
Y223031D02*
Y262795D01*
X410236Y214961D02*
X418307Y223031D01*
X43839Y205709D02*
X44291Y206161D01*
X23622Y205709D02*
X43839D01*
X48248Y273839D02*
X54291D01*
X47052Y272642D02*
X48248Y273839D01*
X23815Y272642D02*
X47052D01*
X23622Y272835D02*
X23815Y272642D01*
X417323Y185765D02*
Y204724D01*
X405512Y173954D02*
X417323Y185765D01*
Y204724D02*
X419291Y202756D01*
X413654Y208394D02*
X417323Y204724D01*
X319685Y174016D02*
X321260Y172441D01*
X327362D01*
Y193110D01*
Y163189D02*
Y172441D01*
X319685Y174016D02*
Y177165D01*
X327165Y162992D02*
X327362Y163189D01*
X319576Y220582D02*
Y224100D01*
Y220582D02*
X329528Y210630D01*
X327362Y193110D02*
X329528Y195276D01*
Y210630D01*
X553150Y253150D02*
X555512D01*
X236221Y269843D02*
X236378Y269685D01*
X263779D01*
X383858Y240158D02*
Y254921D01*
X298228Y279528D02*
X376969D01*
X263779Y338583D02*
X298228D01*
X263779Y279528D02*
X298228D01*
X263779Y226378D02*
X289370D01*
X257874Y372047D02*
Y397638D01*
X43760Y372047D02*
X44291Y371516D01*
X23622Y372047D02*
X43760D01*
X419291Y202756D02*
X462992D01*
X465748Y205512D01*
X410236Y211811D02*
X412008Y210039D01*
X412154D02*
X413654Y208540D01*
X412008Y210039D02*
X412154D01*
X413654Y208394D02*
Y208540D01*
X464567Y206693D02*
X465748Y205512D01*
X464567Y206693D02*
Y224410D01*
X410236Y211811D02*
Y214961D01*
D15*
X413386Y455709D02*
X448984D01*
X449969Y456693D01*
X450182D01*
X613189Y138189D02*
X614961Y139961D01*
Y148031D01*
X611024Y151969D02*
X614961Y148031D01*
X610607Y152362D02*
X611000Y151969D01*
X610394Y152362D02*
X610607D01*
X611000Y151969D02*
X611024D01*
X610630Y138189D02*
X613189D01*
X121260Y128150D02*
Y128347D01*
X116260Y123150D02*
X121260Y128150D01*
X116260Y122953D02*
Y123150D01*
X246063Y372047D02*
Y421260D01*
X243110Y372047D02*
Y400591D01*
D141*
X368707Y343563D02*
X369035D01*
X374410Y338189D01*
Y334075D02*
Y338189D01*
X538189Y53937D02*
X542323Y58071D01*
X528740Y53937D02*
X538189D01*
X538339Y108315D02*
Y113469D01*
Y108315D02*
X542323Y104331D01*
X551461Y113469D01*
X554134Y116275D02*
Y178867D01*
X551461Y113602D02*
X554134Y116275D01*
X533465Y288189D02*
Y293307D01*
X528543Y288189D02*
Y293307D01*
X533465Y313779D02*
Y318898D01*
Y293307D02*
Y313779D01*
X523622D02*
X528740D01*
X528543Y313583D02*
X528740Y313779D01*
X528543Y293307D02*
Y313583D01*
X542323Y58071D02*
X577375Y23019D01*
X542323Y58071D02*
Y104331D01*
X551461Y113469D02*
Y113602D01*
X577375Y22839D02*
X579114Y21100D01*
Y19842D02*
Y21100D01*
X577375Y22839D02*
Y23019D01*
X553144Y180124D02*
X554134Y179134D01*
X544339Y180124D02*
X553144D01*
D143*
X405512Y173954D02*
Y174213D01*
Y154528D02*
Y173954D01*
X397638Y174409D02*
X405315D01*
X405512Y174213D01*
X327165Y162992D02*
X329803Y160354D01*
X356142D01*
X361968Y154528D01*
X405512D01*
D146*
X609842Y131496D02*
D03*
Y159843D02*
D03*
D147*
X625197Y127992D02*
D03*
Y163347D02*
D03*
X615748Y127992D02*
D03*
Y163347D02*
D03*
D148*
X614567Y130413D02*
D03*
Y160925D02*
D03*
D149*
X599114Y99843D02*
D03*
Y19842D02*
D03*
D150*
X589114Y99843D02*
D03*
X579114D02*
D03*
X569114D02*
D03*
X559114D02*
D03*
X549114D02*
D03*
X589114Y19842D02*
D03*
X579114D02*
D03*
X569114D02*
D03*
X559114D02*
D03*
X549114D02*
D03*
D151*
X611417Y411575D02*
D03*
Y391575D02*
D03*
D152*
X340551Y106457D02*
D03*
D153*
X350551D02*
D03*
X340551Y96457D02*
D03*
X350551D02*
D03*
X340551Y86457D02*
D03*
X350551D02*
D03*
D154*
X54291Y191161D02*
D03*
X44291Y196161D02*
D03*
X54291Y201161D02*
D03*
X44291Y206161D02*
D03*
X54291Y211161D02*
D03*
X44291Y216161D02*
D03*
X54291Y221161D02*
D03*
Y273839D02*
D03*
X44291Y278839D02*
D03*
X54291Y283839D02*
D03*
X44291Y288839D02*
D03*
X54291Y293839D02*
D03*
X44291Y298839D02*
D03*
X54291Y303839D02*
D03*
Y356516D02*
D03*
X44291Y361516D02*
D03*
X54291Y366516D02*
D03*
X44291Y371516D02*
D03*
X54291Y376516D02*
D03*
X44291Y381516D02*
D03*
X54291Y386516D02*
D03*
D155*
X44291Y226161D02*
D03*
Y308839D02*
D03*
Y391516D02*
D03*
D156*
X39803Y176654D02*
D03*
Y240669D02*
D03*
Y259331D02*
D03*
Y323346D02*
D03*
Y342008D02*
D03*
Y406024D02*
D03*
D157*
X11811Y183661D02*
D03*
Y233661D02*
D03*
Y266339D02*
D03*
Y316339D02*
D03*
Y349016D02*
D03*
Y399016D02*
D03*
D158*
X598268Y219646D02*
D03*
Y199646D02*
D03*
X618268D02*
D03*
Y219646D02*
D03*
X608268Y209646D02*
D03*
X598268Y272795D02*
D03*
Y252795D02*
D03*
X618268D02*
D03*
Y272795D02*
D03*
X608268Y262795D02*
D03*
X598268Y322008D02*
D03*
Y302008D02*
D03*
X618268D02*
D03*
Y322008D02*
D03*
X608268Y312008D02*
D03*
D159*
X236221Y249843D02*
D03*
Y259842D02*
D03*
Y269843D02*
D03*
D160*
X500000Y23622D02*
D03*
X62992Y27559D02*
D03*
X59055Y433071D02*
D03*
X606299Y492126D02*
D03*
D161*
X376142Y170354D02*
D03*
Y160354D02*
D03*
X366142Y170354D02*
D03*
Y160354D02*
D03*
X356142Y170354D02*
D03*
Y160354D02*
D03*
D162*
X545276Y486349D02*
D03*
X545275Y395540D02*
D03*
D163*
X601378Y452756D02*
D03*
D164*
X589370Y471654D02*
D03*
D165*
X577756Y452756D02*
D03*
D166*
X338583Y327756D02*
D03*
X468176Y254703D02*
D03*
X454724Y484252D02*
D03*
X413386Y455709D02*
D03*
X452756D02*
D03*
X450182Y456693D02*
D03*
X430118Y439961D02*
D03*
X422094Y421828D02*
D03*
X457874Y457087D02*
D03*
X452756Y436024D02*
D03*
X377165Y355118D02*
D03*
X470866Y276378D02*
D03*
X462992Y274803D02*
D03*
X610383Y147835D02*
D03*
X603893Y138233D02*
D03*
X610715Y143203D02*
D03*
X610394Y152362D02*
D03*
X597244Y108661D02*
D03*
X333858Y415354D02*
D03*
X349213Y370472D02*
D03*
X353150D02*
D03*
X349213Y375984D02*
D03*
X353150D02*
D03*
X351181Y373228D02*
D03*
X364173Y370866D02*
D03*
X360630Y388976D02*
D03*
X362598Y423228D02*
D03*
X372047Y416929D02*
D03*
X366142Y417323D02*
D03*
X361024Y411417D02*
D03*
Y405512D02*
D03*
X334252Y385039D02*
D03*
X344094D02*
D03*
X364173Y384252D02*
D03*
X369291D02*
D03*
X413779Y292126D02*
D03*
X412992Y298031D02*
D03*
X398819Y295669D02*
D03*
Y291732D02*
D03*
X377953Y298031D02*
D03*
X591031Y117311D02*
D03*
X591350Y177165D02*
D03*
X576378Y162598D02*
D03*
X610630Y138189D02*
D03*
X600787Y142520D02*
D03*
X603937Y146850D02*
D03*
X549213Y127953D02*
D03*
X141339Y151181D02*
D03*
X121653Y147638D02*
D03*
X121260Y141732D02*
D03*
X146850D02*
D03*
X120079Y151575D02*
D03*
X101969D02*
D03*
X514567Y322835D02*
D03*
X512205Y325197D02*
D03*
X516929D02*
D03*
X553150Y209055D02*
D03*
X528740Y322835D02*
D03*
X436221Y269291D02*
D03*
X444488D02*
D03*
X441732D02*
D03*
X438976D02*
D03*
X440551Y265354D02*
D03*
X462598Y293307D02*
D03*
X512205D02*
D03*
X516929Y295669D02*
D03*
X514567Y298031D02*
D03*
X519685Y383071D02*
D03*
X514567D02*
D03*
X497244Y283465D02*
D03*
X500000D02*
D03*
X502756D02*
D03*
X398819Y313779D02*
D03*
X351350Y353904D02*
D03*
Y359904D02*
D03*
Y347404D02*
D03*
Y362904D02*
D03*
Y356904D02*
D03*
Y350404D02*
D03*
X351461Y366764D02*
D03*
X426575Y81299D02*
D03*
X432087D02*
D03*
X437598D02*
D03*
X426575Y75787D02*
D03*
X432087D02*
D03*
X437598D02*
D03*
X429331Y84213D02*
D03*
X434842D02*
D03*
X429331Y78701D02*
D03*
X434842D02*
D03*
X429331Y73189D02*
D03*
X434842D02*
D03*
X460693Y464567D02*
D03*
X452693D02*
D03*
X456693D02*
D03*
X314961Y142520D02*
D03*
X304331Y152362D02*
D03*
X318898Y149213D02*
D03*
X286614Y241339D02*
D03*
X303543Y221654D02*
D03*
X240945Y338189D02*
D03*
X270303Y379710D02*
D03*
X286221Y359449D02*
D03*
X309842Y360236D02*
D03*
X353543Y229528D02*
D03*
X393701Y217323D02*
D03*
X130905Y20669D02*
D03*
X170276D02*
D03*
X209646D02*
D03*
X492913Y277165D02*
D03*
X502756Y300394D02*
D03*
X482283Y265748D02*
D03*
X541339D02*
D03*
X450955Y241900D02*
D03*
X445521Y241880D02*
D03*
X481882Y252370D02*
D03*
X418110Y262992D02*
D03*
X438976Y302755D02*
D03*
X436220D02*
D03*
X444488Y307480D02*
D03*
X447637Y307480D02*
D03*
X320866Y190945D02*
D03*
X11811Y169291D02*
D03*
Y208661D02*
D03*
Y248031D02*
D03*
Y291339D02*
D03*
Y330709D02*
D03*
Y374016D02*
D03*
Y413386D02*
D03*
X302756Y179528D02*
D03*
X374409Y291732D02*
D03*
X408661Y200394D02*
D03*
X164567Y147638D02*
D03*
X155905Y133858D02*
D03*
X116260Y122953D02*
D03*
X121260Y128347D02*
D03*
X514567Y397638D02*
D03*
X512205Y395276D02*
D03*
X519685Y397638D02*
D03*
X516929Y395276D02*
D03*
Y366929D02*
D03*
X512205D02*
D03*
X497244Y309842D02*
D03*
X447244Y280315D02*
D03*
X500000Y305118D02*
D03*
X369685Y186221D02*
D03*
X484645Y471653D02*
D03*
X104331Y300197D02*
D03*
X144882Y287008D02*
D03*
X104331Y217520D02*
D03*
X144882Y204331D02*
D03*
X85630Y280512D02*
D03*
Y197835D02*
D03*
X312007Y148622D02*
D03*
X310630Y163386D02*
D03*
X461587Y285039D02*
D03*
X460433Y280878D02*
D03*
X23622Y205709D02*
D03*
Y272835D02*
D03*
X322987Y177761D02*
D03*
X325875Y205793D02*
D03*
X474409Y43681D02*
D03*
X480315D02*
D03*
X484815Y59992D02*
D03*
X216161Y257874D02*
D03*
X287776Y393701D02*
D03*
Y387795D02*
D03*
X286051Y375984D02*
D03*
Y257874D02*
D03*
X287776Y334646D02*
D03*
Y328740D02*
D03*
X286051Y316929D02*
D03*
X287776Y269685D02*
D03*
Y275590D02*
D03*
X248406Y202756D02*
D03*
X283839Y192913D02*
D03*
Y198819D02*
D03*
X282874Y202193D02*
D03*
Y154949D02*
D03*
X283839Y145669D02*
D03*
Y151575D02*
D03*
X248406Y155512D02*
D03*
Y161417D02*
D03*
Y167323D02*
D03*
Y173228D02*
D03*
Y208661D02*
D03*
Y214567D02*
D03*
Y220472D02*
D03*
X263779Y269685D02*
D03*
X383858Y240158D02*
D03*
Y254921D02*
D03*
X376969Y279528D02*
D03*
X263779Y338583D02*
D03*
X298228D02*
D03*
X263779Y279528D02*
D03*
X298228D02*
D03*
X289370Y226378D02*
D03*
X263779D02*
D03*
X320866Y236221D02*
D03*
X250000Y230315D02*
D03*
X245276Y232283D02*
D03*
X318898Y230315D02*
D03*
X257874Y372047D02*
D03*
Y397638D02*
D03*
X243110Y372047D02*
D03*
X246063D02*
D03*
X279528Y236221D02*
D03*
X255906Y358268D02*
D03*
X192913Y196850D02*
D03*
X183071Y263779D02*
D03*
X191142D02*
D03*
X177165Y358268D02*
D03*
X196850D02*
D03*
X188976Y220472D02*
D03*
X175197D02*
D03*
X179134Y196850D02*
D03*
X129134Y74803D02*
D03*
Y68898D02*
D03*
X168504Y74803D02*
D03*
Y68898D02*
D03*
X207874Y74803D02*
D03*
Y68898D02*
D03*
X240158Y70079D02*
D03*
X255906D02*
D03*
X271654D02*
D03*
X130905Y86614D02*
D03*
X23622Y372047D02*
D03*
X27559Y184055D02*
D03*
Y266732D02*
D03*
Y349410D02*
D03*
X30512Y366142D02*
D03*
Y283465D02*
D03*
Y200787D02*
D03*
X33465Y192913D02*
D03*
X33465Y275590D02*
D03*
X33465Y358268D02*
D03*
X243110Y400591D02*
D03*
X20669Y187008D02*
D03*
Y270669D02*
D03*
Y353346D02*
D03*
X74441Y355202D02*
D03*
Y272525D02*
D03*
Y189848D02*
D03*
X330118Y178740D02*
D03*
X329528Y238976D02*
D03*
X408661Y251575D02*
D03*
X413933Y251728D02*
D03*
X100787Y202756D02*
D03*
Y196850D02*
D03*
Y285433D02*
D03*
Y279528D02*
D03*
X102362Y185039D02*
D03*
Y267717D02*
D03*
Y350394D02*
D03*
X100787Y362205D02*
D03*
Y368110D02*
D03*
X175984Y303937D02*
D03*
X183465D02*
D03*
X320866Y179921D02*
D03*
X131565Y231299D02*
D03*
Y225640D02*
D03*
X130037Y214567D02*
D03*
X149606Y189635D02*
D03*
X155512D02*
D03*
X165632Y204677D02*
D03*
X146653Y221457D02*
D03*
X129527Y218110D02*
D03*
X131565Y313976D02*
D03*
Y308317D02*
D03*
X130037Y297244D02*
D03*
X149606Y272313D02*
D03*
X155512D02*
D03*
X165632Y287354D02*
D03*
X146653Y304134D02*
D03*
X129527Y300787D02*
D03*
X98425Y207677D02*
D03*
X80709Y240158D02*
D03*
X84646D02*
D03*
X88583D02*
D03*
X92520D02*
D03*
Y207677D02*
D03*
X98425Y290354D02*
D03*
X80709Y322835D02*
D03*
X84646D02*
D03*
X88583D02*
D03*
X92520D02*
D03*
Y290354D02*
D03*
X85630Y363189D02*
D03*
X314173Y177953D02*
D03*
X340551Y188976D02*
D03*
X336614Y185433D02*
D03*
X397638Y174409D02*
D03*
X310097Y166090D02*
D03*
X310236Y169291D02*
D03*
X476378Y141535D02*
D03*
X453543Y151378D02*
D03*
Y148622D02*
D03*
Y145866D02*
D03*
Y143110D02*
D03*
Y156890D02*
D03*
X420079Y187205D02*
D03*
X309842Y212598D02*
D03*
X325984Y208661D02*
D03*
X465551Y124961D02*
D03*
X466929Y116142D02*
D03*
X442913Y187205D02*
D03*
X420079Y176181D02*
D03*
Y178937D02*
D03*
Y181693D02*
D03*
X457874Y225984D02*
D03*
Y218898D02*
D03*
X421654Y212598D02*
D03*
X431102Y228346D02*
D03*
X319685Y177165D02*
D03*
X309340Y215833D02*
D03*
X319576Y224100D02*
D03*
X104331Y382874D02*
D03*
X92520Y405512D02*
D03*
Y373031D02*
D03*
X98425D02*
D03*
X84646Y405512D02*
D03*
X88583D02*
D03*
X80709D02*
D03*
X405512Y154528D02*
D03*
X417323Y362402D02*
D03*
Y358071D02*
D03*
X547276Y350736D02*
D03*
X543276D02*
D03*
X335630Y237205D02*
D03*
X339567D02*
D03*
X453543Y154134D02*
D03*
X458268Y215354D02*
D03*
X465748Y205512D02*
D03*
X442919Y176181D02*
D03*
X442886Y178937D02*
D03*
Y181693D02*
D03*
X442886Y184449D02*
D03*
X269685Y236221D02*
D03*
X555512Y253150D02*
D03*
Y302362D02*
D03*
X279528Y296850D02*
D03*
X259055D02*
D03*
X279528Y357480D02*
D03*
X420079Y184449D02*
D03*
X476378Y151378D02*
D03*
Y154134D02*
D03*
Y148622D02*
D03*
Y145866D02*
D03*
Y156890D02*
D03*
X382677Y112992D02*
D03*
X361417Y100787D02*
D03*
Y111024D02*
D03*
X499803Y98819D02*
D03*
X492323Y86221D02*
D03*
X485433Y112992D02*
D03*
X371016Y96528D02*
D03*
Y106370D02*
D03*
X319929Y96386D02*
D03*
Y106228D02*
D03*
X538339Y113469D02*
D03*
X544339Y180124D02*
D03*
X540495Y163919D02*
D03*
X538696Y187008D02*
D03*
X535995Y163419D02*
D03*
X533858Y169291D02*
D03*
Y175197D02*
D03*
X526985Y177165D02*
D03*
X548425Y118110D02*
D03*
Y124016D02*
D03*
X541339Y127953D02*
D03*
X526378Y120079D02*
D03*
X419291Y346457D02*
D03*
X429134Y340551D02*
D03*
X411811Y386024D02*
D03*
Y382874D02*
D03*
X414524Y377677D02*
D03*
Y372177D02*
D03*
X446850Y338583D02*
D03*
X481299Y342520D02*
D03*
X474409Y389764D02*
D03*
X492126Y374016D02*
D03*
X482283Y372047D02*
D03*
X474409Y385827D02*
D03*
Y381890D02*
D03*
X488189Y374016D02*
D03*
X405024Y369177D02*
D03*
X409524D02*
D03*
X146653Y386811D02*
D03*
X130037Y379921D02*
D03*
X129527Y383465D02*
D03*
X131565Y396654D02*
D03*
Y390995D02*
D03*
X155512Y354990D02*
D03*
X165632Y370031D02*
D03*
X144882Y369685D02*
D03*
X149606Y354990D02*
D03*
X432283Y262598D02*
D03*
X410236Y211811D02*
D03*
X475394Y485236D02*
D03*
X478386Y498032D02*
D03*
X484252Y486031D02*
D03*
X480315Y457677D02*
D03*
X474409D02*
D03*
X468504Y431291D02*
D03*
X462598Y419480D02*
D03*
X402748Y449803D02*
D03*
X423622Y491339D02*
D03*
X426772D02*
D03*
X415748D02*
D03*
X418898D02*
D03*
X396063D02*
D03*
X399213D02*
D03*
X388189D02*
D03*
X391339D02*
D03*
X401378Y440354D02*
D03*
Y443504D02*
D03*
Y432480D02*
D03*
Y435630D02*
D03*
X464567Y460630D02*
D03*
X490158Y472047D02*
D03*
X480709Y428346D02*
D03*
X450394Y475197D02*
D03*
X450000Y472047D02*
D03*
X450394Y478346D02*
D03*
X462598Y244094D02*
D03*
X410630Y207480D02*
D03*
X461795Y224909D02*
D03*
Y232409D02*
D03*
X418110Y217323D02*
D03*
X394094Y292642D02*
D03*
X394189Y286282D02*
D03*
X601031Y175602D02*
D03*
X606031D02*
D03*
X611031D02*
D03*
X616031D02*
D03*
X621031D02*
D03*
Y117311D02*
D03*
X616031D02*
D03*
X611031D02*
D03*
X606031D02*
D03*
X601031D02*
D03*
X590551Y153937D02*
D03*
X587031Y131311D02*
D03*
X591531Y166311D02*
D03*
Y171811D02*
D03*
X577165Y153543D02*
D03*
X581031Y131811D02*
D03*
X576531Y171811D02*
D03*
Y166311D02*
D03*
X600031Y7811D02*
D03*
X426897Y273535D02*
D03*
X421397D02*
D03*
X477165Y242520D02*
D03*
X466535Y191929D02*
D03*
X460630D02*
D03*
X564055Y344488D02*
D03*
X554055D02*
D03*
X559055D02*
D03*
X415139Y230283D02*
D03*
X406639Y236709D02*
D03*
X394685Y273622D02*
D03*
Y267717D02*
D03*
Y261811D02*
D03*
D167*
X368707Y343563D02*
D03*
X374410Y334075D02*
D03*
X528740Y53937D02*
D03*
X533465Y288189D02*
D03*
X528543D02*
D03*
X533465Y318898D02*
D03*
Y293307D02*
D03*
Y313779D02*
D03*
X528740D02*
D03*
X523622D02*
D03*
X528543Y293307D02*
D03*
X554134Y179134D02*
D03*
M02*
